<svg width="20" height="20" viewBox="0 0 20 20" fill="none" xmlns="http://www.w3.org/2000/svg">
<path d="M1.3 13.18C0.86 13.18 0.5 13.54 0.499999 13.98C0.499999 14.42 0.839999 14.78 1.28 14.78C3.78 14.78 6.18 13.8 7.94 12.06L6.88 10.88C5.42 12.34 3.4 13.18 1.3 13.18Z" fill="#202251"/>
<path d="M9.52002 7.95998L10.58 9.13998C12.04 7.67999 14.06 6.83999 16.14 6.83999L16.8 6.83999L15.98 7.65999C15.66 7.97999 15.66 8.47998 15.98 8.77998C16.28 9.09998 16.8 9.09998 17.1 8.77998L19.26 6.59999C19.4 6.45999 19.5 6.23999 19.5 6.03999C19.5 5.81999 19.42 5.61999 19.26 5.47999L17.08 3.3C16.92 3.14 16.72 3.06 16.52 3.06C16.32 3.06 16.12 3.14 15.96 3.3C15.64 3.62 15.64 4.12 15.96 4.42L16.78 5.23999L16.12 5.23999C13.64 5.25999 11.26 6.23999 9.52002 7.95998Z" fill="#202251"/>
<path d="M19.26 13.4L17.1 11.22C16.94 11.06 16.74 10.98 16.54 10.98C16.34 10.98 16.14 11.06 15.98 11.22C15.68 11.52 15.68 12.04 15.98 12.34L16.8 13.16L16.14 13.16C13.9 13.16 11.76 12.2 10.28 10.52L8.36 8.39997C6.56 6.37997 4 5.21997 1.3 5.21997C0.86 5.21997 0.5 5.57997 0.5 6.01997C0.5 6.45997 0.84 6.81997 1.28 6.81997C3.54 6.81997 5.68 7.77997 7.16 9.45997L9.06 11.6C10.86 13.62 13.42 14.76 16.12 14.76L16.8 14.76L15.98 15.58C15.68 15.88 15.68 16.4 15.98 16.7C16.28 17 16.8 17 17.1 16.7L19.28 14.52C19.58 14.2 19.58 13.7 19.26 13.4Z" fill="#202251"/>
</svg>
