<svg width="49" height="36" viewBox="0 0 49 36" fill="none" xmlns="http://www.w3.org/2000/svg">
<path d="M17.8482 34.3401C18.5518 34.7254 19.4161 34.9365 20.19 35.1308C21.0309 35.3418 21.8852 35.5027 22.7462 35.6132C24.3778 35.8209 26.0361 35.8544 27.671 35.6869C30.3847 35.4088 33.2022 34.4808 35.1219 32.4607C35.2291 32.3501 35.0683 32.1591 34.941 32.253C32.7566 33.9247 30.1602 34.7422 27.4399 34.9968C25.8519 35.1442 24.2471 35.104 22.6692 34.8862C21.9187 34.7824 21.1716 34.6383 20.4346 34.4574C19.6339 34.2597 18.8466 33.9448 18.0425 33.7773C17.7042 33.7069 17.5534 34.1793 17.8482 34.3401Z" fill="#202251"/>
<path d="M39.1822 30.3601C39.1822 30.3601 35.0112 33.7237 29.1852 35.0068C24.659 36.0018 19.5902 35.3251 13.791 31.9347C2.35005 25.251 3.65998 19.2173 3.65998 19.2173C3.65998 19.2173 3.90454 17.0631 5.22452 14.862C6.5445 12.661 6.09222 10.2321 10.1225 6.33243C14.1528 2.43279 16.5315 2.03076 16.5315 2.03076L24.5351 0.0574951L31.9893 1.38083L39.5206 6.11131L42.6865 10.624L44.2376 12.5571L44.8675 14.3026L45.504 19.0967L44.4454 22.0717L39.9862 28.5845L39.1822 30.3601Z" fill="white"/>
<path d="M5.22798 14.8621C3.25471 16.2524 3.09725 19.2374 3.45907 21.405C3.85774 23.8071 5.16432 25.9713 7.25485 27.2578C7.56977 27.4521 7.82439 26.9362 7.51282 26.7452C5.6032 25.5727 4.39713 23.5525 4.03196 21.3648C3.70699 19.4183 3.76059 16.5975 5.5496 15.3378C5.84442 15.1267 5.5295 14.651 5.22798 14.8621Z" fill="#202251"/>
<path d="M13.7912 31.6734C10.4477 30.005 7.64019 27.4588 6.36712 23.8842C5.07394 20.2525 5.24145 16.4199 6.52122 12.8084C6.88305 11.7933 7.41238 10.8519 7.87806 9.88031C8.34709 8.90205 8.91997 7.96399 9.60006 7.11639C10.6353 5.83326 11.9787 4.68414 13.3925 3.83989C14.8967 2.93869 16.6187 2.2988 18.2804 1.76947C21.3827 0.777807 24.7195 0.275276 27.9659 0.747655C31.4635 1.25689 34.9108 3.02579 37.658 5.21683C39.8457 6.95893 41.6146 9.19017 42.5795 11.8301C43.4941 14.3361 43.6649 17.0497 43.3835 19.6897C43.2227 21.2207 42.9681 22.7819 42.4488 24.2359C41.886 25.8139 41.0384 27.2813 39.9931 28.5878C38.6497 30.2696 36.9947 31.7571 35.1487 32.8661C35.0516 32.9264 34.951 32.9833 34.8505 33.0369C34.5256 33.2111 34.8472 33.6869 35.1688 33.5126C36.6563 32.7119 38.0098 31.5595 39.1824 30.3601C41.5778 27.9178 43.1054 24.9495 43.6917 21.5826C44.1708 18.8187 44.2613 15.9542 43.5912 13.2138C42.9312 10.5068 41.494 8.06785 39.5207 6.10798C37.0516 3.65563 33.7349 1.72256 30.4149 0.707452C27.0245 -0.331111 23.3761 -0.133449 19.9656 0.700752C17.7143 1.25019 15.5065 2.07434 13.4561 3.15645C12.5047 3.65898 11.6437 4.33907 10.8329 5.03927C9.13774 6.50665 8.03887 8.27556 7.06061 10.2656C6.55138 11.2974 6.06895 12.2958 5.72388 13.398C5.41231 14.3897 5.17109 15.4048 5.03038 16.4367C4.77912 18.2491 4.82937 20.0884 5.2046 21.8774C5.55637 23.5525 6.14265 25.2309 7.06731 26.6816C8.06902 28.2495 9.4292 29.5795 10.9468 30.6482C11.7676 31.2312 12.6387 31.7404 13.5365 32.1893C13.8649 32.3501 14.1195 31.8375 13.7912 31.6734Z" fill="#202251"/>
<path d="M12.7223 28.1657C10.806 26.102 9.4961 23.5357 8.81266 20.812C8.11917 18.0481 7.87125 14.7716 9.64686 12.3662C11.5096 9.84011 14.5583 8.73454 17.4595 7.89364C20.6054 6.98239 23.8115 6.56026 27.0813 6.3894C30.3444 6.21854 33.8688 5.94382 36.5088 8.23201C38.6462 10.0847 39.7216 12.8084 40.0433 15.5589C40.4185 18.7584 40.2275 22.1354 38.8003 25.0768C37.5909 27.5694 35.497 29.68 32.8202 30.5276C31.0949 31.0737 29.2187 31.3149 27.4297 31.5729C25.5838 31.8375 23.7144 32.0051 21.8483 31.9112C18.488 31.7471 15.0842 30.6482 12.7223 28.1657C12.4677 27.8977 12.0892 28.3299 12.3438 28.5945C17.2016 33.7036 24.9539 32.7287 31.1853 31.5126C32.6829 31.2211 34.1067 30.7789 35.3831 29.9279C36.5791 29.1339 37.5943 28.0853 38.4017 26.8993C40.2376 24.2058 40.8641 20.8958 40.7736 17.6796C40.6898 14.708 40.1103 11.7598 38.2978 9.33423C37.4167 8.15161 36.2709 7.1432 34.9208 6.53346C33.306 5.80311 31.5103 5.67246 29.7648 5.71601C26.2806 5.79976 22.7696 6.01083 19.3624 6.79477C16.2669 7.50837 12.8832 8.47323 10.4643 10.6308C9.35539 11.6191 8.46759 12.8653 8.04211 14.3026C7.61329 15.7666 7.67694 17.4015 7.8679 18.9024C8.23307 21.7568 9.28839 24.5542 10.9534 26.9027C11.3756 27.499 11.8412 28.0585 12.3371 28.5945C12.5917 28.8626 12.9703 28.4337 12.7223 28.1657Z" fill="#202251"/>
<path d="M42.9144 11.7966C44.1506 11.9909 44.6666 13.197 44.8743 14.2992C45.0619 15.3009 45.1791 16.3395 45.216 17.358C45.2964 19.4049 44.824 21.6462 43.0283 22.8758C42.7234 23.0835 43.0417 23.5592 43.3466 23.3515C45.3802 21.9612 45.9028 19.4284 45.7788 17.1067C45.675 15.1401 45.5577 11.6358 43.0283 11.2338C42.6631 11.1768 42.5492 11.7363 42.9144 11.7966Z" fill="#202251"/>
<path d="M39.1923 16.7985C38.874 14.192 37.8354 11.6124 35.7784 9.85351C35.7281 9.81331 35.6812 9.7731 35.631 9.7329C35.8957 10.1249 36.0096 10.5336 35.9291 10.9323C35.6779 12.192 33.5807 12.8385 31.2489 12.3729C28.9172 11.9072 27.2287 10.5068 27.4833 9.24377C27.5905 8.70104 28.0428 8.27221 28.7061 7.9975C28.0394 8.01425 27.3761 8.0511 26.7228 8.08125C23.587 8.23201 20.5082 8.62064 17.493 9.47829C14.709 10.2656 11.7876 11.3041 10.0053 13.6895C8.30673 15.9643 8.55464 19.0666 9.22803 21.6831C9.89137 24.2627 11.1577 26.6983 13.0037 28.6549C15.2785 31.0134 18.5516 32.062 21.7779 32.2262C23.5703 32.3166 25.3626 32.1659 27.1349 31.9213C28.8535 31.6834 30.6492 31.4623 32.3076 30.9497C34.8738 30.1557 36.8773 28.1624 38.0331 25.8072C39.3899 23.0232 39.5608 19.8271 39.1923 16.7985Z" fill="#202251"/>
<path d="M33.7718 19.616C32.9476 22.0717 26.542 21.4955 23.5872 22.8155C27.4499 19.1302 28.0161 17.8605 29.6041 15.6561C31.1921 13.4516 33.3631 14.7046 36.2811 13.0094C39.1958 11.3142 37.859 10.7112 39.7016 7.9774C41.1757 5.79307 45.8493 3.97391 48.0001 3.33737C46.8376 3.99066 44.2244 5.65236 43.0753 7.07955C41.6381 8.86186 42.4019 11.9675 39.1388 14.1987C35.8757 16.4367 34.8036 16.5472 33.7718 19.616Z" fill="white" stroke="#202251" stroke-width="0.524675" stroke-linejoin="round"/>
<path d="M13.0138 21.2174C13.9217 23.5223 18.2267 22.008 20.4312 22.8791C17.2719 19.8069 16.7058 18.6344 15.3121 16.6913C13.9184 14.7481 12.6051 16.3026 10.3739 15.0564C8.14263 13.8101 8.97013 13.0161 7.32853 10.5905C6.01525 8.64742 2.56119 7.5385 1 7.22693C1.8878 7.70266 3.90798 8.95898 4.89629 10.1986C6.12916 11.7464 6.04206 14.929 8.58821 16.6544C11.131 18.3798 11.8781 18.3362 13.0138 21.2174Z" fill="white" stroke="#202251" stroke-width="0.524675" stroke-linejoin="round"/>
</svg>
