<svg width="45" height="45" viewBox="0 0 45 45" fill="none" xmlns="http://www.w3.org/2000/svg">
<circle cx="22.5" cy="22.5" r="22.5" fill="#202251"/>
<g clip-path="url(#clip0)">
<path d="M18.9225 12.7125C18.9225 12.2175 18.5175 11.8125 18.0225 11.8125C17.5275 11.8125 17.1225 12.195 17.1225 12.69C17.1225 15.5025 18.225 18.2025 20.1825 20.1825L21.51 18.99C19.8675 17.3475 18.9225 15.075 18.9225 12.7125Z" fill="white"/>
<path d="M24.795 21.96L23.4675 23.1525C25.11 24.795 26.055 27.0675 26.055 29.4075L26.055 30.15L25.1325 29.2275C24.7725 28.8675 24.21 28.8675 23.8725 29.2275C23.5125 29.565 23.5125 30.15 23.8725 30.4875L26.325 32.9175C26.4825 33.075 26.73 33.1875 26.955 33.1875C27.2025 33.1875 27.4275 33.0975 27.585 32.9175L30.0375 30.465C30.2175 30.285 30.3075 30.06 30.3075 29.835C30.3075 29.61 30.2175 29.385 30.0375 29.205C29.6775 28.845 29.115 28.845 28.7775 29.205L27.855 30.1275L27.855 29.385C27.8325 26.595 26.73 23.9175 24.795 21.96Z" fill="white"/>
<path d="M18.675 32.9175L21.1275 30.4875C21.3075 30.3075 21.3975 30.0825 21.3975 29.8575C21.3975 29.6325 21.3075 29.4075 21.1275 29.2275C20.79 28.89 20.205 28.89 19.8675 29.2275L18.945 30.15L18.945 29.4075C18.945 26.8875 20.025 24.48 21.915 22.815L24.3 20.655C26.5725 18.63 27.8775 15.75 27.8775 12.7125C27.8775 12.2175 27.4725 11.8125 26.9775 11.8125C26.4825 11.8125 26.0775 12.195 26.0775 12.69C26.0775 15.2325 24.9975 17.64 23.1075 19.305L20.7 21.4425C18.4275 23.4675 17.145 26.3475 17.145 29.385L17.145 30.15L16.2225 29.2275C15.885 28.89 15.3 28.89 14.9625 29.2275C14.625 29.565 14.625 30.15 14.9625 30.4875L17.415 32.94C17.775 33.2775 18.3375 33.2775 18.675 32.9175Z" fill="white"/>
</g>
<defs>
<clipPath id="clip0">
<rect width="22.5" height="22.5" fill="white" transform="translate(33.75 11.25) rotate(90)"/>
</clipPath>
</defs>
</svg>
