<svg width="510" height="210" viewBox="0 0 510 210" fill="none" xmlns="http://www.w3.org/2000/svg">
<rect width="510" height="210" rx="30" fill="#131234"/>
<mask id="mask0" mask-type="alpha" maskUnits="userSpaceOnUse" x="0" y="0" width="510" height="210">
<rect width="510" height="210" rx="30" fill="#131234"/>
</mask>
<g mask="url(#mask0)">
<path d="M493.338 301.262C460.462 362.934 383.785 386.285 322.078 353.415C260.378 320.546 237.017 243.894 269.901 182.229C302.777 120.556 379.462 97.2057 441.162 130.075C502.878 162.945 526.23 239.589 493.338 301.262Z" fill="url(#paint0_radial)"/>
<path opacity="0.4" d="M348.317 119.63C388.116 109.955 431.803 122.36 460.429 155.468C501.18 202.587 495.996 273.812 448.847 314.536C401.708 355.268 330.452 350.087 289.71 302.959C249.313 256.241 254.07 185.861 300.086 144.957C299.668 145.301 299.258 145.645 298.848 145.998C245.95 191.699 240.134 271.614 285.855 324.489C331.576 377.356 411.526 383.178 464.416 337.477C517.314 291.767 523.121 211.86 477.409 158.993C444.492 120.925 393.841 107.258 348.317 119.63Z" fill="url(#paint1_radial)"/>
<path opacity="0.3" d="M447.576 164.552C476.81 204.383 465.056 262.661 421.336 294.719C377.609 326.785 318.46 320.488 289.234 280.658C260.009 240.827 271.755 182.549 315.491 150.483C359.21 118.433 418.351 124.73 447.576 164.552Z" fill="url(#paint2_radial)"/>
<path opacity="0.5" d="M395.055 139.914C412.847 160.477 403.84 197.389 374.943 222.347C346.045 247.312 308.215 250.871 290.424 230.308C272.641 209.736 281.647 172.833 310.537 147.867C339.434 122.909 377.272 119.351 395.055 139.914Z" fill="url(#paint3_radial)"/>
<path opacity="0.4" d="M466.754 212.229C469.666 214.525 478.484 215.156 479.952 207.203C481.412 199.242 471.569 195.684 466.754 197.364C461.939 199.037 457.748 205.113 466.754 212.229Z" fill="#D3D3D3"/>
<path opacity="0.4" d="M452.449 172.038C455.697 174.916 467.894 176.433 470.781 171.202C473.668 165.962 466.016 158.723 456.074 158.018C446.133 157.296 440.858 161.781 452.449 172.038Z" fill="#D3D3D3"/>
<path opacity="0.4" d="M377.42 155.115C381.448 157.96 393.251 156.124 394.293 149.433C395.343 142.735 383.785 141.226 377.42 143.555C371.047 145.867 370.054 149.909 377.42 155.115Z" fill="#D3D3D3"/>
<path opacity="0.4" d="M349.269 138.545C353.715 140.595 360.219 140.013 360.507 136.864C360.785 133.724 356.602 131.838 351.992 132.256C347.382 132.675 343.823 136.028 349.269 138.545Z" fill="#D3D3D3"/>
<path opacity="0.4" d="M292.089 165.962C292.671 162.757 296.067 165.339 296.281 167.012C296.494 168.685 291.252 170.57 292.089 165.962Z" fill="#D3D3D3"/>
<path opacity="0.4" d="M300.005 208.253C298.971 205.498 303.401 206.162 303.614 208.253C303.819 210.343 300.8 210.343 300.005 208.253Z" fill="#D3D3D3"/>
<path opacity="0.4" d="M439.267 145.342C438.923 142.62 442.097 142.669 442.565 145.342C443.04 148.015 439.431 146.67 439.267 145.342Z" fill="#D3D3D3"/>
<path opacity="0.4" d="M417.285 144.407C414.816 142.669 418.531 141.12 420.106 142.53C421.681 143.932 419.95 146.293 417.285 144.407Z" fill="#D3D3D3"/>
<path opacity="0.4" d="M396.392 134.511C394.818 133.724 396.86 130.682 398.902 132.199C400.945 133.732 397.959 135.298 396.392 134.511Z" fill="#D3D3D3"/>
<path opacity="0.4" d="M385.081 125.722C383.392 123.729 387.116 124.312 388.379 124.935C389.634 125.566 387.747 128.862 385.081 125.722Z" fill="#D3D3D3"/>
<path opacity="0.4" d="M412.568 131.789C411.001 128.55 415.086 130.945 414.766 131.789C414.446 132.625 412.568 131.789 412.568 131.789Z" fill="#D3D3D3"/>
<path opacity="0.4" d="M385.393 132.207C383.974 131.059 386.607 130.977 386.714 132.166C386.804 133.355 385.393 132.207 385.393 132.207Z" fill="#D3D3D3"/>
<path opacity="0.4" d="M361.294 133.453C360.548 132.912 362.262 131.568 363.164 132.584C364.075 133.609 362.639 134.437 361.294 133.453Z" fill="#D3D3D3"/>
<path opacity="0.4" d="M332.306 152.672C330.887 151.524 335.136 150.056 336.703 151.622C338.269 153.197 334.504 154.451 332.306 152.672Z" fill="#D3D3D3"/>
<path d="M163.004 19.0008C160.847 19.4682 160.47 19.8453 160.002 22.0016C159.535 19.8453 159.157 19.4682 157 19.0008C159.157 18.5335 159.535 18.1563 160.002 16C160.47 18.1563 160.847 18.5335 163.004 19.0008Z" fill="white"/>
<path d="M71.6084 23.3036C70.6733 23.5086 70.5011 23.6726 70.3042 24.6073C70.0991 23.6726 69.9351 23.5004 69 23.3036C69.9351 23.0987 70.1073 22.9347 70.3042 22C70.5093 22.9347 70.6733 23.0987 71.6084 23.3036Z" fill="white"/>
<path d="M225.616 177.23C226.508 177.23 227.232 176.507 227.232 175.615C227.232 174.723 226.508 174 225.616 174C224.723 174 224 174.723 224 175.615C224 176.507 224.723 177.23 225.616 177.23Z" fill="white"/>
<path d="M292.004 32.0008C289.847 32.4682 289.47 32.8453 289.002 35.0016C288.535 32.8453 288.157 32.4682 286 32.0008C288.157 31.5335 288.535 31.1563 289.002 29C289.47 31.1563 289.855 31.5335 292.004 32.0008Z" fill="white"/>
<path d="M483.004 90.0008C480.847 90.4682 480.47 90.8453 480.002 93.0016C479.535 90.8453 479.157 90.4682 477 90.0008C479.157 89.5335 479.535 89.1563 480.002 87C480.478 89.1563 480.855 89.5335 483.004 90.0008Z" fill="white"/>
<path d="M218.004 24.0008C215.847 24.4682 215.47 24.8453 215.002 27.0016C214.535 24.8453 214.157 24.4682 212 24.0008C214.157 23.5335 214.535 23.1563 215.002 21C215.47 23.1563 215.855 23.5335 218.004 24.0008Z" fill="white"/>
<path d="M108.616 191.23C109.508 191.23 110.232 190.507 110.232 189.615C110.232 188.723 109.508 188 108.616 188C107.723 188 107 188.723 107 189.615C107 190.507 107.723 191.23 108.616 191.23Z" fill="white"/>
<path d="M237.616 96.2304C238.508 96.2304 239.232 95.5072 239.232 94.6152C239.232 93.7232 238.508 93 237.616 93C236.723 93 236 93.7232 236 94.6152C236 95.5072 236.723 96.2304 237.616 96.2304Z" fill="white"/>
<path d="M28.6159 93.2304C29.5083 93.2304 30.2318 92.5072 30.2318 91.6152C30.2318 90.7231 29.5083 90 28.6159 90C27.7235 90 27 90.7231 27 91.6152C27 92.5072 27.7235 93.2304 28.6159 93.2304Z" fill="white"/>
<path d="M369.616 16.2304C370.508 16.2304 371.232 15.5072 371.232 14.6152C371.232 13.7231 370.508 13 369.616 13C368.723 13 368 13.7231 368 14.6152C368 15.5072 368.723 16.2304 369.616 16.2304Z" fill="white"/>
<path d="M44.0043 188.001C41.847 188.468 41.4697 188.845 41.0021 191.002C40.5346 188.845 40.1573 188.468 38 188.001C40.1573 187.533 40.5346 187.156 41.0021 185C41.4779 187.156 41.8552 187.533 44.0043 188.001Z" fill="white"/>
<path d="M154.462 192.253C153.527 192.458 153.355 192.622 153.158 193.557C152.953 192.622 152.789 192.45 151.854 192.253C152.789 192.048 152.961 191.884 153.158 190.95C153.355 191.884 153.519 192.048 154.462 192.253Z" fill="white"/>
<path d="M283.608 75.3036C282.673 75.5086 282.501 75.6726 282.304 76.6073C282.099 75.6726 281.935 75.5004 281 75.3036C281.935 75.0987 282.107 74.9347 282.304 74C282.501 74.9347 282.665 75.0987 283.608 75.3036Z" fill="white"/>
<path d="M458.608 39.3036C457.673 39.5086 457.501 39.6726 457.304 40.6073C457.099 39.6726 456.935 39.5004 456 39.3036C456.935 39.0987 457.107 38.9347 457.304 38C457.509 38.9347 457.673 39.0987 458.608 39.3036Z" fill="white"/>
<path d="M274.608 125.304C273.673 125.509 273.501 125.673 273.304 126.607C273.099 125.673 272.935 125.5 272 125.304C272.935 125.099 273.107 124.935 273.304 124C273.509 124.935 273.673 125.099 274.608 125.304Z" fill="white"/>
<path d="M104.984 104.774C106.937 104.774 107.957 103.809 107.957 102.272V101.744H106.937V102.193C106.937 103.248 106.342 103.831 104.973 103.831C103.593 103.831 102.987 103.248 102.987 102.193V99.1638C102.987 98.1092 103.593 97.5258 104.984 97.5258C106.342 97.5258 106.937 98.1092 106.937 99.1638V99.6126H107.957V99.0853C107.957 97.5483 106.925 96.5834 104.973 96.5834C103.021 96.5834 102 97.5483 102 99.0853V102.272C102 103.809 103.032 104.774 104.984 104.774Z" fill="white"/>
<path d="M111.653 104.785C113.235 104.785 114.065 103.887 114.065 102.429V101.172C114.065 99.7136 113.235 98.8273 111.642 98.8273C110.06 98.8273 109.23 99.7136 109.23 101.172V102.429C109.23 103.887 110.06 104.785 111.653 104.785ZM111.642 103.876C110.621 103.876 110.184 103.371 110.184 102.373V101.228C110.184 100.23 110.632 99.736 111.653 99.736C112.674 99.736 113.112 100.23 113.112 101.228V102.373C113.112 103.371 112.663 103.876 111.642 103.876Z" fill="white"/>
<path d="M118.116 98.8273C117.353 98.8273 116.714 99.0741 116.299 99.5902L116.13 98.9731H115.491V104.639H116.445V100.993C116.557 100.129 117.118 99.736 117.926 99.736C118.823 99.736 119.328 100.241 119.328 101.352V104.639H120.27V101.329C120.27 99.5677 119.451 98.8273 118.116 98.8273Z" fill="white"/>
<path d="M124.493 98.8273C123.73 98.8273 123.09 99.0741 122.675 99.5902L122.507 98.9731H121.868V104.639H122.821V100.993C122.933 100.129 123.494 99.736 124.302 99.736C125.2 99.736 125.705 100.241 125.705 101.352V104.639H126.647V101.329C126.647 99.5677 125.828 98.8273 124.493 98.8273Z" fill="white"/>
<path d="M130.41 98.8273C128.861 98.8273 128.031 99.7809 128.031 101.239V102.339C128.031 103.797 128.839 104.774 130.466 104.774C131.846 104.774 132.743 104.078 132.743 102.821H131.789V102.889C131.789 103.584 131.262 103.955 130.443 103.955C129.445 103.955 128.973 103.405 128.973 102.35V102.092H132.766V100.948C132.766 99.6799 131.857 98.8273 130.41 98.8273ZM128.973 101.284V101.239C128.973 100.207 129.422 99.6463 130.443 99.6463C131.329 99.6463 131.801 100.084 131.801 100.959V101.284H128.973Z" fill="white"/>
<path d="M136.348 104.774C137.818 104.774 138.681 103.921 138.681 102.552V102.44H137.728V102.575C137.728 103.427 137.223 103.865 136.348 103.865C135.361 103.865 134.923 103.371 134.923 102.373V101.228C134.923 100.23 135.372 99.736 136.348 99.736C137.234 99.736 137.728 100.174 137.728 101.026V101.161H138.681V101.049C138.681 99.6799 137.806 98.8273 136.348 98.8273C134.8 98.8273 133.969 99.7136 133.969 101.172V102.429C133.969 103.887 134.811 104.774 136.348 104.774Z" fill="white"/>
<path d="M142.365 103.73C141.591 103.73 141.209 103.371 141.209 102.462V99.8707H142.758V98.9731H141.209V97.3127H140.256V98.9731H139.493V99.8707H140.256V102.675C140.256 104.033 140.895 104.639 142.163 104.639H142.859V103.73H142.365Z" fill="white"/>
<path d="M152.206 98.9731L151.151 103.618L149.928 98.9731H149.154L147.931 103.595L146.877 98.9731H145.912L147.359 104.639H148.335L149.547 100.836L150.758 104.639H151.735L153.182 98.9731H152.206Z" fill="white"/>
<path d="M154.123 98.0868H155.133V96.92H154.123V98.0868ZM154.146 104.639H155.099V98.9731H154.146V104.639Z" fill="white"/>
<path d="M159.03 103.73C158.256 103.73 157.874 103.371 157.874 102.462V99.8707H159.422V98.9731H157.874V97.3127H156.92V98.9731H156.158V99.8707H156.92V102.675C156.92 104.033 157.56 104.639 158.828 104.639H159.523V103.73H159.03Z" fill="white"/>
<path d="M163.191 98.8273C162.506 98.8273 161.923 99.0292 161.519 99.4331V96H160.565V104.639H161.519V101.004C161.631 100.14 162.192 99.736 163 99.736C163.886 99.736 164.402 100.252 164.402 101.352V104.639H165.345V101.329C165.345 99.5677 164.515 98.8273 163.191 98.8273Z" fill="white"/>
<path d="M142.721 57.9487V58.4512C142.721 59.4059 141.968 60.0591 140.913 60.0591H138.25V53.6777H140.712C141.767 53.6777 142.521 54.1802 142.521 55.1349V55.5369C142.521 56.0393 142.32 56.3911 141.918 56.6423C142.42 56.8935 142.721 57.396 142.721 57.9487ZM139.053 54.4314V56.3911H140.762C141.365 56.3911 141.767 56.1398 141.767 55.5369V55.1349C141.767 54.5822 141.365 54.3812 140.762 54.3812H139.053V54.4314ZM141.918 57.9487C141.918 57.396 141.566 57.0945 140.913 57.0945H139.003V59.3054H140.913C141.566 59.3054 141.918 59.0039 141.918 58.4512V57.9487Z" fill="white"/>
<path d="M147.495 57.0948V57.9992H144.43V58.2002C144.43 59.0544 144.832 59.5066 145.636 59.5066C146.289 59.5066 146.741 59.2052 146.741 58.6524V58.5519H147.495C147.495 59.5569 146.791 60.1096 145.686 60.1096C144.38 60.1096 143.726 59.3056 143.726 58.15V57.2455C143.726 56.0898 144.38 55.2859 145.636 55.2859C146.791 55.3864 147.495 56.0396 147.495 57.0948ZM146.741 57.346V57.0948C146.741 56.3913 146.339 56.0396 145.636 56.0396C144.832 56.0396 144.43 56.4918 144.43 57.2958V57.346H146.741Z" fill="white"/>
<path d="M148.349 58.6523V58.5518H149.103V58.6523C149.103 59.1548 149.505 59.5065 150.258 59.5065C150.811 59.5065 151.263 59.3055 151.263 58.8533C151.263 57.7981 148.5 58.4513 148.5 56.7932C148.5 55.939 149.153 55.4365 150.208 55.4365C151.313 55.4365 151.967 56.0395 151.967 56.8937V56.9942H151.213V56.8937C151.213 56.3912 150.861 56.0897 150.208 56.0897C149.605 56.0897 149.253 56.341 149.253 56.7429C149.253 57.7479 152.017 57.0947 152.017 58.8031C152.017 59.7075 151.163 60.21 150.208 60.21C149.052 60.1597 148.349 59.5568 148.349 58.6523Z" fill="white"/>
<path d="M155.233 59.3056V60.0593H154.68C153.675 60.0593 153.173 59.5568 153.173 58.5017V56.2405H152.57V55.5371H153.173V54.1804H153.926V55.5371H155.183V56.2405H153.926V58.3007C153.926 59.0544 154.228 59.3056 154.831 59.3056H155.233Z" fill="white"/>
<path d="M162.669 55.3359V56.0393C162.669 57.0945 161.966 57.6975 160.71 57.6975H159.001V60.0591H158.198V53.6777H160.71C161.966 53.6777 162.669 54.3309 162.669 55.3359ZM161.916 55.3359C161.916 54.7329 161.564 54.4314 160.81 54.4314H159.052V56.994H160.81C161.564 56.994 161.916 56.6926 161.916 56.0896V55.3359Z" fill="white"/>
<path d="M166.036 55.4365V56.1399C165.885 56.0897 165.785 56.0897 165.634 56.0897C164.981 56.0897 164.428 56.4414 164.428 57.1951V60.0592H163.674V55.4867H164.227L164.378 55.9389C164.729 55.5872 165.232 55.3862 165.785 55.3862C165.885 55.3862 165.986 55.3862 166.036 55.4365Z" fill="white"/>
<path d="M166.94 53.8286H167.744V54.7833H166.94V53.8286ZM166.991 55.4868H167.744V60.0592H166.991V55.4868Z" fill="white"/>
<path d="M168.9 58.2503V57.2453C168.9 56.0896 169.553 55.3359 170.81 55.3359C171.965 55.3359 172.669 56.0394 172.669 57.1448V57.2453H171.915V57.1448C171.915 56.4414 171.513 56.0896 170.81 56.0896C170.006 56.0896 169.654 56.4916 169.654 57.2956V58.2C169.654 59.004 170.006 59.4059 170.81 59.4059C171.513 59.4059 171.915 59.0542 171.915 58.3508V58.2503H172.669V58.3508C172.669 59.4562 171.965 60.1596 170.81 60.1596C169.604 60.1596 168.9 59.4562 168.9 58.2503Z" fill="white"/>
<path d="M177.492 57.0948V57.9992H174.427V58.2002C174.427 59.0544 174.829 59.5066 175.633 59.5066C176.286 59.5066 176.738 59.2052 176.738 58.6524V58.5519H177.492C177.492 59.5569 176.789 60.1096 175.683 60.1096C174.377 60.1096 173.724 59.3056 173.724 58.15V57.2455C173.724 56.0898 174.377 55.2859 175.633 55.2859C176.738 55.3864 177.492 56.0396 177.492 57.0948ZM176.688 57.346V57.0948C176.688 56.3913 176.286 56.0396 175.583 56.0396C174.779 56.0396 174.377 56.4918 174.377 57.2958V57.346H176.688Z" fill="white"/>
<path d="M180.557 58.2504V57.9991H181.361V58.3006C181.361 58.9538 181.964 59.4563 182.969 59.4563C183.874 59.4563 184.477 59.0543 184.477 58.3509C184.477 56.6927 180.758 57.5971 180.758 55.336C180.758 54.3813 181.412 53.5774 182.919 53.5774C184.426 53.5774 185.18 54.3311 185.18 55.3863V55.6878H184.376V55.3863C184.376 54.7833 183.823 54.3311 182.919 54.3311C182.065 54.3311 181.562 54.7331 181.562 55.2858C181.562 56.743 185.281 55.939 185.281 58.2504C185.281 59.3055 184.477 60.1597 182.969 60.1597C181.412 60.1597 180.557 59.3558 180.557 58.2504Z" fill="white"/>
<path d="M191.662 55.4866L190.506 60.059H189.702L188.748 56.994L187.793 60.059H186.989L185.833 55.4866H186.587L187.441 59.2048L188.446 55.4866H189.049L190.054 59.2048L190.908 55.4866H191.662Z" fill="white"/>
<path d="M196.084 55.4867V60.0592H195.531L195.38 59.607C195.079 60.009 194.576 60.1597 193.973 60.1597C192.868 60.1597 192.215 59.607 192.215 58.2503V57.2956C192.215 55.9389 192.868 55.3862 193.973 55.3862C194.576 55.3862 195.079 55.5872 195.38 55.9389L195.531 55.4867H196.084ZM195.28 58.3006V57.1449C195.229 56.3912 194.777 56.0394 194.074 56.0394C193.32 56.0394 192.918 56.3912 192.918 57.2956V58.1498C192.918 59.004 193.32 59.406 194.074 59.406C194.777 59.406 195.229 59.1045 195.28 58.3006Z" fill="white"/>
<path d="M201.259 57.2956V58.2503C201.259 59.607 200.606 60.1597 199.45 60.1597C198.897 60.1597 198.445 60.009 198.144 59.6572V62.0691H197.39V55.4867H197.943L198.093 55.9389C198.395 55.537 198.897 55.3862 199.5 55.3862C200.606 55.3862 201.259 55.9389 201.259 57.2956ZM200.505 57.3459C200.505 56.4917 200.103 56.0897 199.35 56.0897C198.696 56.0897 198.244 56.3912 198.144 57.0946V58.401C198.244 59.1045 198.646 59.406 199.35 59.406C200.103 59.406 200.505 59.0543 200.505 58.1498V57.3459Z" fill="white"/>
<path d="M204.374 58.2503V57.2453C204.374 56.0896 205.027 55.3359 206.334 55.3359C207.59 55.3359 208.294 56.0394 208.294 57.2453V58.2503C208.294 59.4059 207.64 60.1596 206.334 60.1596C205.078 60.1596 204.374 59.4562 204.374 58.2503ZM207.54 58.2V57.2956C207.54 56.4916 207.188 56.0896 206.384 56.0896C205.58 56.0896 205.178 56.4916 205.178 57.2956V58.2C205.178 59.004 205.53 59.4059 206.334 59.4059C207.138 59.4059 207.54 59.004 207.54 58.2Z" fill="white"/>
<path d="M213.268 57.3961V60.0592H212.514V57.3961C212.514 56.4917 212.112 56.0897 211.409 56.0897C210.756 56.0897 210.303 56.3912 210.203 57.0946V60.0592H209.449V55.4867H209.952L210.102 55.9892C210.454 55.5872 210.957 55.3862 211.56 55.3862C212.615 55.3862 213.268 55.9389 213.268 57.3961Z" fill="white"/>
<path d="M142.319 68.953V69.3048C142.319 70.2092 141.616 70.9127 140.611 70.9127H137.998V65.1343H140.46C141.465 65.1343 142.169 65.7372 142.169 66.5914V66.9934C142.169 67.2949 142.018 67.6466 141.716 67.8979C142.118 68.1491 142.319 68.5511 142.319 68.953ZM139.254 66.2397V67.4456H140.46C140.711 67.4456 140.912 67.2949 140.912 66.9934V66.5914C140.912 66.3905 140.711 66.2397 140.46 66.2397H139.254ZM141.063 68.953C141.063 68.7018 140.912 68.5008 140.611 68.5008H139.254V69.8072H140.611C140.862 69.8072 141.063 69.6063 141.063 69.355V68.953Z" fill="white"/>
<path d="M143.023 65.1343H144.229V66.3402H143.023V65.1343ZM143.023 66.7422H144.229V70.9127H143.023V66.7422Z" fill="white"/>
<path d="M148.902 68.5007V70.9126H147.696V68.5007C147.696 67.9983 147.394 67.747 147.043 67.747C146.741 67.747 146.39 67.948 146.39 68.4002V70.9126H145.184V66.7421H145.988L146.189 67.0436C146.49 66.7421 146.942 66.6416 147.394 66.6416C148.249 66.6416 148.902 67.1943 148.902 68.5007Z" fill="white"/>
<path d="M153.374 66.742V70.9125H152.57L152.369 70.6111C152.067 70.9125 151.665 71.013 151.163 71.013C150.158 71.013 149.555 70.4603 149.555 69.2544V68.35C149.555 67.144 150.158 66.5913 151.163 66.5913C151.615 66.5913 152.067 66.6918 152.369 66.9933L152.57 66.6918H153.374V66.742ZM152.168 69.2544V68.4002C152.168 67.948 151.866 67.747 151.464 67.747C151.062 67.747 150.811 67.9982 150.811 68.4504V69.2544C150.811 69.7066 151.062 69.9579 151.464 69.9579C151.866 69.9579 152.168 69.7066 152.168 69.2544Z" fill="white"/>
<path d="M157.997 68.5007V70.9126H156.791V68.5007C156.791 67.9983 156.489 67.747 156.137 67.747C155.836 67.747 155.484 67.948 155.484 68.4002V70.9126H154.278V66.7421H155.082L155.283 67.0436C155.585 66.7421 156.037 66.6416 156.489 66.6416C157.394 66.6416 157.997 67.1943 157.997 68.5007Z" fill="white"/>
<path d="M158.7 69.2042V68.4002C158.7 67.2948 159.403 66.5913 160.559 66.5913C161.665 66.5913 162.368 67.2948 162.368 68.2997V68.4002H161.162V68.2495C161.162 67.8977 160.911 67.6465 160.559 67.6465C160.157 67.6465 159.906 67.8977 159.906 68.35V69.1539C159.906 69.6061 160.107 69.8574 160.559 69.8574C160.911 69.8574 161.162 69.6564 161.162 69.2544V69.1037H162.368V69.2042C162.368 70.2593 161.665 70.9125 160.559 70.9125C159.403 71.013 158.7 70.3096 158.7 69.2042Z" fill="white"/>
<path d="M166.639 68.1991V69.1538H164.177V69.204C164.177 69.7567 164.478 70.008 164.83 70.008C165.081 70.008 165.433 69.8572 165.433 69.606H166.639C166.639 70.5104 165.885 71.0632 164.83 71.0632C163.674 71.0632 162.971 70.3597 162.971 69.2543V68.5006C162.971 67.3951 163.674 66.6917 164.83 66.6917C165.885 66.6414 166.639 67.2946 166.639 68.1991ZM165.383 68.2996V68.1991C165.383 67.7971 165.182 67.5961 164.83 67.5961C164.428 67.5961 164.177 67.8474 164.177 68.2996H165.383Z" fill="white"/>
<path d="M169.151 69.1034V68.9024H170.407V69.2039C170.407 69.6561 170.91 69.9074 171.513 69.9074C171.915 69.9074 172.417 69.7064 172.417 69.2541C172.417 68.1487 169.252 68.8019 169.252 66.7418C169.252 65.7871 169.905 64.9832 171.412 64.9832C172.869 64.9832 173.573 65.7369 173.573 66.7418V66.993H172.317V66.6916C172.317 66.3398 171.915 66.0886 171.362 66.0886C170.91 66.0886 170.508 66.2896 170.508 66.6413C170.508 67.4955 173.673 67.0433 173.673 69.1537C173.673 70.2088 172.869 70.9625 171.462 70.9625C170.005 71.0128 169.151 70.2591 169.151 69.1034Z" fill="white"/>
<path d="M180.206 68.5007V70.9125H179V68.4504C179 67.9982 178.748 67.747 178.447 67.747C178.196 67.747 177.894 67.948 177.894 68.4504V70.9125H176.688V68.4504C176.688 67.9982 176.437 67.747 176.136 67.747C175.884 67.747 175.583 67.948 175.583 68.4002V70.9125H174.377V66.742H175.181L175.382 66.9933C175.683 66.742 176.035 66.5913 176.387 66.5913C176.889 66.5913 177.291 66.742 177.593 67.0938C177.894 66.742 178.296 66.5913 178.698 66.5913C179.653 66.6416 180.206 67.1943 180.206 68.5007Z" fill="white"/>
<path d="M184.728 66.742V70.9125H183.924L183.723 70.6111C183.422 70.9125 183.02 71.013 182.517 71.013C181.512 71.013 180.909 70.4603 180.909 69.2544V68.35C180.909 67.144 181.512 66.5913 182.517 66.5913C182.969 66.5913 183.422 66.6918 183.723 66.9933L183.924 66.6918H184.728V66.742ZM183.472 69.2544V68.4002C183.472 67.948 183.17 67.747 182.768 67.747C182.366 67.747 182.115 67.9982 182.115 68.4504V69.2544C182.115 69.7066 182.366 69.9579 182.768 69.9579C183.17 69.9579 183.472 69.7066 183.472 69.2544Z" fill="white"/>
<path d="M187.994 66.6416V67.6968C187.843 67.6465 187.692 67.6465 187.592 67.6465C187.19 67.6465 186.788 67.8978 186.788 68.5007V70.9126H185.582V66.7421H186.386L186.637 67.0938C186.989 66.7923 187.441 66.6918 187.843 66.6918C187.893 66.6416 187.944 66.6416 187.994 66.6416Z" fill="white"/>
<path d="M191.009 69.8072V70.9126H190.305C189.3 70.9126 188.748 70.3599 188.748 69.2545V67.8475H188.195V66.7421H188.748V65.5864H189.953V66.7421H190.908V67.8475H189.953V69.0535C189.953 69.5559 190.154 69.8072 190.556 69.8072H191.009Z" fill="white"/>
<path d="M193.471 69.1537V66.8423C193.471 65.7369 194.375 64.9832 195.833 64.9832C197.29 64.9832 198.144 65.7369 198.144 66.8423V67.3448H196.837V66.8925C196.837 66.4403 196.486 66.1388 195.833 66.1388C195.129 66.1388 194.727 66.4403 194.727 66.8925V69.1034C194.727 69.5556 195.079 69.8571 195.782 69.8571C196.436 69.8571 196.787 69.5556 196.787 69.1034V68.6512H198.094V69.1537C198.094 70.2591 197.239 71.0128 195.782 71.0128C194.325 71.0128 193.471 70.3093 193.471 69.1537Z" fill="white"/>
<path d="M202.666 68.5006V70.9125H201.46V68.5006C201.46 67.9981 201.159 67.7469 200.807 67.7469C200.455 67.7469 200.154 67.9981 200.154 68.4001V70.9125H198.948V64.6316H200.154V66.8927C200.455 66.742 200.757 66.6415 201.108 66.6415C202.013 66.6415 202.666 67.1942 202.666 68.5006Z" fill="white"/>
<path d="M207.188 66.742V70.9125H206.384L206.183 70.6111C205.882 70.9125 205.48 71.013 204.977 71.013C203.972 71.013 203.369 70.4603 203.369 69.2544V68.35C203.369 67.144 203.972 66.5913 204.977 66.5913C205.43 66.5913 205.882 66.6918 206.183 66.9933L206.384 66.6918H207.188V66.742ZM205.932 69.2544V68.4002C205.932 67.948 205.631 67.747 205.229 67.747C204.827 67.747 204.575 67.9982 204.575 68.4504V69.2544C204.575 69.7066 204.827 69.9579 205.229 69.9579C205.631 69.9579 205.932 69.7066 205.932 69.2544Z" fill="white"/>
<path d="M208.042 65.1343H209.248V66.3402H208.042V65.1343ZM208.042 66.7422H209.248V70.9127H208.042V66.7422Z" fill="white"/>
<path d="M213.871 68.5007V70.9126H212.665V68.5007C212.665 67.9983 212.364 67.747 212.012 67.747C211.71 67.747 211.359 67.948 211.359 68.4002V70.9126H210.153V66.7421H210.957L211.158 67.0436C211.459 66.7421 211.911 66.6416 212.364 66.6416C213.268 66.6416 213.871 67.1943 213.871 68.5007Z" fill="white"/>
<path d="M117.849 60.1599L121.819 56.1904L125.788 60.1599L128.099 57.8485L121.819 51.6179L115.538 57.8988L117.849 60.1599ZM111.618 61.8181L113.93 59.5067L116.241 61.8181L113.93 64.1294L111.618 61.8181ZM117.849 63.426L121.819 67.3955L125.788 63.426L128.099 65.7373L121.819 72.0182L115.538 65.7373L117.849 63.426ZM127.396 61.8181L129.707 59.5067L132.019 61.8181L129.707 64.1294L127.396 61.8181ZM124.13 61.8181L121.768 64.1797L119.457 61.8683L119.859 61.4663L120.06 61.2653L121.768 59.5569L124.13 61.8181Z" fill="#FBB040"/>
<path d="M65.2907 66.6416C65.2405 66.5914 65.2405 66.5914 65.2405 66.5914C64.939 66.5411 64.6878 66.5411 64.3863 66.5914H64.3361C64.3361 66.5914 64.3361 66.5914 64.2858 66.6416L62.6277 71.7668L61.07 66.6919C61.07 66.6919 61.07 66.6416 61.0198 66.6416H60.9695C60.8188 66.5914 60.668 66.5914 60.5173 66.5914C60.3665 66.5914 60.2158 66.5914 60.0651 66.6416H60.0148C60.0148 66.6416 60.0148 66.6416 59.9646 66.6919C59.9646 66.6919 59.9646 66.6919 59.9646 66.7421C59.9646 66.7924 59.9646 66.7924 59.9646 66.7924L60.3665 67.9481L60.6178 68.7018L59.6128 71.8673L58.0552 66.6919C58.0552 66.6919 58.0552 66.6416 58.0049 66.6416H57.9547C57.8542 66.5914 57.7035 66.5914 57.5527 66.5914C57.402 66.5914 57.2512 66.5914 57.1005 66.6416H57.0502C57.0502 66.6416 57.0502 66.6416 57 66.6919C57 66.6919 57 66.6919 57 66.7421V66.7924L57.402 67.9481L59.1104 73.224C59.1104 73.224 59.1104 73.2742 59.1606 73.2742H59.2109C59.3616 73.2742 59.5123 73.3245 59.6128 73.3245C59.7636 73.3245 59.9143 73.3245 60.0148 73.2742H60.0651C60.0651 73.2742 60.0651 73.2742 60.1153 73.224L61.1202 70.1589L62.1252 73.224C62.1252 73.224 62.1252 73.2742 62.1754 73.2742H62.2257C62.3764 73.2742 62.5272 73.3245 62.6277 73.3245C62.7784 73.3245 62.9291 73.3245 63.0296 73.2742H63.0799C63.0799 73.2742 63.0799 73.2742 63.1301 73.224L65.2907 66.7421C65.2907 66.7421 65.2907 66.6919 65.2907 66.6416C65.2907 66.6919 65.2907 66.6919 65.2907 66.6416Z" fill="white"/>
<path d="M68.8078 66.6917C68.8078 66.6414 68.8078 66.6414 68.8078 66.6917C68.7576 66.6414 68.7576 66.6414 68.7576 66.6414C68.5064 66.5912 68.2049 66.5912 67.9536 66.6414H67.9034C67.9034 66.6414 67.9034 66.6414 67.8532 66.6917L65.592 73.1233V73.1735V73.2238C65.592 73.2238 65.592 73.2238 65.6423 73.274C65.6423 73.274 65.6423 73.274 65.6925 73.274C65.9438 73.3243 66.2453 73.3243 66.4965 73.274H66.5467C66.5467 73.274 66.5467 73.274 66.597 73.2238L67.1999 71.4149H69.5616L70.1645 73.2238C70.1645 73.2238 70.1645 73.274 70.2148 73.274H70.265C70.5665 73.3243 70.8177 73.3243 71.1192 73.274H71.1695C71.1695 73.274 71.1695 73.274 71.2197 73.2238C71.2197 73.2238 71.2197 73.2238 71.2197 73.1735V73.1233L68.8078 66.6917ZM69.2601 70.5607H67.4512L68.3556 67.8976L69.2601 70.5607Z" fill="white"/>
<path d="M74.9884 70.5608C75.9431 70.3598 76.4456 69.8071 76.4456 68.9027V68.4002C76.4456 67.1943 75.6416 66.5913 73.9332 66.5913H72.0238C72.0238 66.5913 71.9736 66.5913 71.9736 66.6416L71.9233 66.6918V73.1737V73.2239L71.9736 73.2742C72.2248 73.3244 72.5263 73.3244 72.7775 73.2742C72.7775 73.2742 72.8278 73.2742 72.8278 73.2239V73.1737V70.6613H73.883C74.4357 71.3145 74.9382 72.1687 75.4406 73.2239C75.4406 73.2239 75.4406 73.2239 75.4909 73.2742C75.4909 73.2742 75.4909 73.2742 75.5411 73.2742C75.8426 73.3244 76.0938 73.3244 76.3953 73.2742H76.4456C76.4456 73.2742 76.4456 73.2742 76.4958 73.2239V73.1737V73.1234C75.9933 72.0682 75.4909 71.2643 74.9884 70.5608ZM75.4909 68.5509V68.8022C75.4909 69.6564 74.8879 69.8071 73.9332 69.8071H72.9283V67.4455H73.9332C74.8879 67.4958 75.4909 67.6465 75.4909 68.5509Z" fill="white"/>
<path d="M80.214 66.6416H78.1037C78.1037 66.6416 78.0534 66.6416 78.0534 66.6918L78.0032 66.7421V73.224C78.0032 73.224 78.0032 73.2742 78.0534 73.2742L78.1037 73.3244H80.214C81.018 73.3244 81.6712 73.1737 82.0732 72.9225C82.5254 72.621 82.7766 72.1185 82.7766 71.4653V68.551C82.7766 67.1943 81.9727 66.6416 80.214 66.6416ZM81.8219 68.6012V71.2643C81.8219 72.1688 81.1687 72.3698 80.214 72.3698H78.9579V67.4456H80.214C81.1687 67.4958 81.8219 67.6465 81.8219 68.6012Z" fill="white"/>
<path d="M87.8516 72.4198H85.1383V70.3094H87.3994H87.4496L87.4999 70.2592C87.5501 70.0079 87.5501 69.807 87.4999 69.5557C87.4999 69.5557 87.4999 69.5055 87.4496 69.5055H87.3994H85.1383V67.4956H87.8516H87.9019L87.9521 67.4454C88.0024 67.1941 88.0024 66.9931 87.9521 66.7419C87.9521 66.7419 87.9521 66.6917 87.9019 66.6917H87.8516H84.2841C84.2841 66.6917 84.2338 66.6916 84.2338 66.7419L84.1836 66.7921V73.274C84.1836 73.274 84.1836 73.3242 84.2338 73.3242L84.2841 73.3745H87.8516H87.9019L87.9521 73.3242C88.0024 73.1233 88.0024 72.8218 87.9521 72.6208C87.9521 72.6208 87.9521 72.5705 87.9019 72.5705C87.9019 72.4198 87.9019 72.4198 87.8516 72.4198Z" fill="white"/>
<path d="M94.635 66.6416C94.4842 66.6416 94.3837 66.5913 94.233 66.5913C94.0823 66.5913 93.9818 66.5913 93.831 66.6416C93.831 66.6416 93.7808 66.6416 93.7808 66.6918V66.742V71.7667L90.8665 66.6918C90.8665 66.6918 90.8665 66.6918 90.8162 66.6416C90.8162 66.6416 90.8162 66.6416 90.766 66.6416C90.4645 66.5913 90.163 66.5913 89.8615 66.6416C89.8615 66.6416 89.8113 66.6416 89.8113 66.6918V66.742V73.2239V73.2742L89.8615 73.3244C90.1128 73.3746 90.4142 73.3746 90.6655 73.3244C90.6655 73.3244 90.7157 73.3244 90.7157 73.2742V73.2239V68.2997L93.5798 73.2742C93.5798 73.2742 93.5798 73.2742 93.63 73.3244C93.63 73.3244 93.63 73.3244 93.6803 73.3244C93.831 73.3244 93.9818 73.3746 94.1828 73.3746C94.3335 73.3746 94.4842 73.3746 94.635 73.3244C94.635 73.3244 94.6852 73.3244 94.6852 73.2742V73.2239V66.6918V66.6416C94.6852 66.6416 94.6852 66.6416 94.635 66.6416Z" fill="white"/>
<path d="M83.0781 58.401C82.6258 60.1094 81.1184 61.5163 79.0081 62.27V55.7882C79.0081 52.1704 80.9174 49.2058 83.3293 49.2058L83.1786 57.4966C83.2288 57.798 83.1786 58.0995 83.0781 58.401Z" fill="white"/>
<path d="M67.9539 58.401C68.4061 60.1094 69.9135 61.5163 72.0239 62.27V55.7882C72.0239 52.1704 70.1145 49.2058 67.7026 49.2058L67.8534 57.4966C67.8534 57.798 67.9036 58.0995 67.9539 58.401Z" fill="white"/>
<path d="M75.5914 54.0298C75.5914 54.0298 77.9028 56.9441 77.9028 59.8082C77.9028 62.3205 75.5914 63.1747 75.5914 63.1747C75.5914 63.1747 73.2801 62.3205 73.2801 59.8082C73.2298 56.9944 75.5914 54.0298 75.5914 54.0298Z" fill="white"/>
<path d="M102.524 76.6408C102.373 76.6408 102.272 76.5403 102.272 76.3895V48.2512C102.272 48.1005 102.373 48 102.524 48C102.674 48 102.775 48.1005 102.775 48.2512V76.3393C102.775 76.49 102.674 76.6408 102.524 76.6408Z" fill="white"/>
<path d="M384.27 100.883C383.891 100.714 383.385 100.63 382.752 100.756C381.825 100.967 381.066 101.515 380.265 101.979C379.169 102.654 377.988 103.286 376.723 103.244C375.458 103.202 374.109 102.316 374.025 101.009C373.983 100.461 374.151 99.8709 374.404 99.3649C375.753 96.2871 378.283 93.926 381.108 92.0708C382.879 90.9324 384.734 89.9627 386.631 89.0351C387.517 88.5713 388.655 88.1918 389.456 87.5594C390.004 87.0956 390.426 86.421 390.974 85.9572C393.757 83.554 397.299 82.1626 400.967 82.1626C403.876 82.1626 406.743 83.048 409.188 84.608C409.821 85.0296 410.369 85.5356 410.959 86.0416C411.423 86.4632 412.013 86.7583 412.477 87.1799C413.405 88.0232 413.995 89.4989 414.374 90.6794C415.218 93.2514 415.26 96.0341 415.175 98.7325C415.133 101.094 415.007 103.455 414.459 105.774C414.206 106.912 413.826 108.008 413.32 109.062C413.067 109.526 412.73 109.99 412.561 110.496C412.308 111.213 412.14 112.014 411.887 112.773C411.086 115.26 410.242 117.748 409.441 120.193C409.062 121.289 408.556 122.554 407.418 122.85C406.49 123.102 405.52 122.554 404.972 121.838C404.382 121.079 404.129 120.151 403.834 119.266C403.496 118.127 403.075 116.989 402.274 116.146C401.473 115.302 400.208 114.754 399.112 115.134C398.184 115.471 397.551 116.356 396.961 117.115C395.443 119.097 393.63 120.868 391.564 122.217C389.92 123.271 387.728 124.072 386.125 122.934C384.776 121.964 384.523 119.982 384.987 118.38C385.451 116.778 386.505 115.429 387.348 113.995C387.896 112.983 388.402 111.887 388.487 110.749C388.655 108.725 387.264 107.46 386.547 105.605C385.788 104.214 385.746 101.6 384.27 100.883Z" fill="#A16552"/>
<path d="M387.137 68.3332C386.168 68.9235 384.86 69.3029 383.469 69.05C383.258 69.0078 383.047 68.9656 382.837 68.9235C381.74 68.5862 380.56 67.8273 379.464 66.3937C376.723 62.9364 377.651 57.3709 380.982 56.0639C382.499 55.4736 383.722 55.7266 384.608 56.2325C384.65 56.2325 384.692 56.2747 384.734 56.3169C385.704 56.865 386.252 57.6661 386.252 57.6661L386.673 62.8099L387.095 67.9537L387.137 68.3332Z" fill="#A16552"/>
<path d="M386.041 58.7625C386.041 58.7625 384.523 56.4857 381.909 57.5398C379.295 58.5517 378.536 62.9366 380.686 65.635C382.837 68.3756 385.24 68.0383 386.758 67.1529L386.041 58.7625Z" fill="#F5DCB4"/>
<path d="M418.253 57.6661C418.253 57.6661 420.151 54.799 423.481 56.1061C426.854 57.4131 427.74 62.9786 424.999 66.4359C422.259 69.8932 419.223 69.5138 417.326 68.3754L418.253 57.6661Z" fill="#A16552"/>
<path d="M418.464 58.7625C418.464 58.7625 419.982 56.4857 422.596 57.5398C425.21 58.5517 425.969 62.9366 423.819 65.635C421.668 68.3756 419.265 68.0383 417.747 67.1529L418.464 58.7625Z" fill="#F5DCB4"/>
<path d="M421.964 71.9594C421.964 80.8979 413.109 88.1077 402.232 88.1077C402.147 88.1077 402.105 88.1077 402.021 88.1077C401.093 88.1077 400.208 88.0234 399.322 87.939C397.551 87.7282 395.865 87.3066 394.263 86.7585C387.306 84.2709 382.457 78.5789 382.457 71.9594C382.457 70.9897 382.584 70.0621 382.752 69.1345C382.752 69.0502 382.795 69.008 382.795 68.9237C382.837 68.7972 382.879 68.6286 382.921 68.5021C383.005 68.2069 383.09 67.8696 383.132 67.5745C383.553 65.8037 383.764 64.0328 383.722 62.2198C383.722 62.0933 383.722 61.9247 383.722 61.9247C383.722 61.9247 383.975 58.9733 384.27 57.4976C384.481 57.1182 384.608 56.7387 384.734 56.3171C384.945 55.6846 385.198 55.0522 385.493 54.4198C385.704 53.9981 385.915 53.5343 386.168 53.0706C388.613 48.6013 392.703 44.891 397.425 43.2888C397.551 43.2467 397.636 43.2045 397.762 43.1623C398.31 42.9937 398.859 42.825 399.449 42.7407C399.575 42.6986 399.744 42.6986 399.87 42.6564C400.545 42.5299 401.22 42.4877 401.894 42.3191H402.232C402.442 42.4877 402.864 42.4877 402.864 42.4877C403.075 42.4877 403.286 42.5299 403.539 42.5299C403.665 42.5299 403.792 42.5721 403.918 42.5721C404.846 42.6986 405.773 42.8672 406.701 43.1623C406.827 43.2045 406.954 43.2467 407.038 43.2888C411.76 44.8488 415.85 48.6013 418.295 53.0706C418.548 53.4922 418.759 53.956 418.97 54.4198C419.265 55.0522 419.518 55.6846 419.729 56.3171C419.855 56.6965 419.94 57.0338 420.066 57.4133V57.4555C420.446 58.9312 420.657 60.4068 420.657 61.8825C420.657 62.009 420.657 62.0934 420.657 62.1777C420.657 63.9907 420.867 65.7615 421.247 67.5323C421.331 67.8696 421.373 68.1648 421.458 68.4599C421.5 68.5864 421.542 68.755 421.584 68.8815C421.584 68.9659 421.626 69.008 421.626 69.0923C421.879 70.0199 421.964 70.9897 421.964 71.9594Z" fill="#A16552"/>
<path d="M416.103 66.689C416.525 65.7614 416.778 64.7073 416.778 63.6111C416.778 59.3527 413.194 55.9375 408.725 55.9375C407.207 55.9375 405.815 56.317 404.635 56.9916C403.159 57.8348 401.388 57.8348 399.913 56.9916C398.732 56.317 397.299 55.9375 395.823 55.9375C391.396 55.9375 387.77 59.3948 387.77 63.6111C387.77 64.7073 388.023 65.7614 388.444 66.689C388.571 67.0263 388.74 67.3214 388.95 67.6165C389.709 68.8393 389.92 70.3571 389.498 71.7485C389.161 72.8025 388.824 73.9831 388.824 74.8263C388.824 81.2351 394.853 86.4211 402.274 86.4211C409.694 86.4211 415.724 81.2351 415.724 74.8263C415.724 73.9409 415.386 72.7604 415.049 71.7485C414.585 70.3571 414.796 68.8393 415.597 67.6165C415.766 67.3214 415.934 66.9841 416.103 66.689Z" fill="#F5DCB4"/>
<path d="M395.401 76.26C394.937 76.26 394.558 76.6816 394.642 77.1454C395.106 80.5606 398.352 83.2168 402.274 83.2168C406.195 83.2168 409.441 80.5606 409.905 77.1454C409.989 76.6816 409.61 76.26 409.146 76.26H395.401Z" fill="#4E3F3F"/>
<path d="M397.804 81.952C399.069 82.753 400.587 83.2168 402.232 83.2168C403.876 83.2168 405.394 82.753 406.659 81.952C406.11 80.0125 404.34 80.4763 402.232 80.4763C400.123 80.4763 398.395 79.9703 397.804 81.952Z" fill="#E6646E"/>
<path d="M407.164 44.2584L401.936 45.186L401.051 45.3546L398.732 44.0476L397.509 43.373H397.467C397.467 43.373 397.467 43.373 397.509 43.2887C397.72 42.8671 399.154 40.253 401.978 40C402.105 40 402.274 40 402.4 40L402.527 40.5481L402.948 42.4876L402.99 42.6984L403.117 43.12L403.749 42.7406L404.002 42.5719L407.038 40.7168L407.122 43.2465V43.373L407.164 44.2584Z" fill="#A16552"/>
<path d="M401.557 71.7063C401.431 72.0436 401.009 72.1701 400.672 72.0436L399.154 71.369C398.816 71.2425 398.69 70.8209 398.816 70.4836C398.943 70.1463 399.365 70.0198 399.66 70.1463L401.178 70.8209C401.557 70.9895 401.726 71.369 401.557 71.7063Z" fill="#4E3F3F"/>
<path d="M402.906 71.7063C403.033 72.0436 403.454 72.1701 403.749 72.0436L405.267 71.369C405.604 71.2425 405.731 70.8209 405.604 70.4836C405.478 70.1463 405.056 70.0198 404.719 70.1463L403.201 70.8209C402.906 70.9895 402.78 71.369 402.906 71.7063Z" fill="#4E3F3F"/>
<path d="M395.275 66.6468C394.01 66.6468 392.998 65.6771 392.998 64.4544V63.7376C392.998 62.5149 394.052 61.5452 395.275 61.5452C396.539 61.5452 397.551 62.5149 397.551 63.7376V64.4544C397.551 65.6771 396.539 66.6468 395.275 66.6468Z" fill="#4E3F3F"/>
<path d="M395.275 61.5452V64.1171C395.275 64.7074 395.781 65.2133 396.413 65.2133C397.045 65.2133 397.551 64.7074 397.551 64.1171V63.7376C397.594 62.5571 396.54 61.5452 395.275 61.5452Z" fill="#5D5360"/>
<path d="M395.317 63.7797C395.738 63.7797 396.076 63.4424 396.076 63.063C396.076 62.6835 395.738 62.3462 395.317 62.3462C394.895 62.3462 394.558 62.6835 394.558 63.063C394.558 63.4424 394.895 63.7797 395.317 63.7797Z" fill="white"/>
<path d="M409.23 66.6468C407.966 66.6468 406.954 65.6771 406.954 64.4544V63.7376C406.954 62.5149 408.008 61.5452 409.23 61.5452C410.495 61.5452 411.507 62.5149 411.507 63.7376V64.4544C411.507 65.6771 410.495 66.6468 409.23 66.6468Z" fill="#4E3F3F"/>
<path d="M409.23 61.5452V64.1171C409.23 64.7074 409.736 65.2133 410.369 65.2133C411.001 65.2133 411.507 64.7074 411.507 64.1171V63.7376C411.507 62.5571 410.495 61.5452 409.23 61.5452Z" fill="#5D5360"/>
<path d="M409.188 63.7797C409.61 63.7797 409.947 63.4424 409.947 63.063C409.947 62.6835 409.61 62.3462 409.188 62.3462C408.767 62.3462 408.429 62.6835 408.429 63.063C408.387 63.4424 408.724 63.7797 409.188 63.7797Z" fill="white"/>
<path opacity="0.35" d="M402.442 40.5896C401.936 40.5474 400.798 41.3485 399.449 42.7821C399.111 43.1194 398.774 43.541 398.395 43.9626C395.738 47.0827 392.661 52.0157 391.607 57.0752C389.836 65.5499 389.119 75.4159 392.239 80.8971C394.895 85.5349 399.322 87.9382 399.322 87.9382C397.551 87.7274 395.865 87.3058 394.305 86.7577C387.348 84.2701 382.499 78.5781 382.499 71.9586C382.499 70.9888 382.626 70.0613 382.795 69.1337C382.795 69.0494 382.837 69.0072 382.837 68.9229C381.74 68.5856 380.56 67.8267 379.464 66.3931C376.723 62.9358 377.651 57.4125 380.982 56.1054C382.499 55.5152 383.722 55.7682 384.608 56.2741C384.65 56.2741 384.692 56.3163 384.734 56.3584C384.945 55.726 385.198 55.0935 385.493 54.4611C385.704 54.0395 385.915 53.5757 386.168 53.1119C388.613 48.6427 392.703 44.9324 397.425 43.3302C397.636 42.9086 399.069 40.2945 401.894 40.0415C402.021 40.0415 402.189 40.0415 402.316 40.0415L402.442 40.5896Z" fill="#4E3F3F"/>
<path d="M401.726 109.442C406.755 109.442 410.833 105.1 410.833 99.7443C410.833 94.3885 406.755 90.0469 401.726 90.0469C396.696 90.0469 392.618 94.3885 392.618 99.7443C392.618 105.1 396.696 109.442 401.726 109.442Z" fill="#F5DCB4"/>
<path d="M390.51 148.358C391.522 143.087 394.094 124.958 383.385 117.621C370.736 108.978 356.443 117.115 356.443 117.115C356.443 117.115 347.8 132.758 352.733 146.46C352.859 146.756 352.943 147.051 353.112 147.304C353.112 151.857 353.365 159.194 354.799 164.337C354.166 164.97 353.745 165.771 353.745 166.614C353.745 168.933 356.569 170.83 360.069 170.83C361.292 170.83 362.388 170.62 363.358 170.24C369.893 169.819 367.11 165.265 369.05 161.091C370.399 158.139 371.284 154.218 371.284 154.218C371.284 154.218 372.971 156.453 374.868 159.7C375.964 161.512 376.133 163.536 376.302 165.349C376.049 165.813 375.922 166.277 375.922 166.783C375.922 167.921 376.639 168.975 377.777 169.776C378.03 169.987 378.325 170.156 378.663 170.24C379.675 170.704 380.939 170.999 382.246 170.999C385.746 171.041 388.613 169.186 388.655 166.867C388.655 166.361 388.529 165.855 388.234 165.391C390.51 160.29 390.679 152.701 390.51 148.358Z" fill="white" stroke="#202251" stroke-width="0.511643" stroke-miterlimit="10"/>
<path d="M387.517 129.638C387.517 129.638 402.316 126.602 408.387 121.838C412.688 118.465 409.441 114.839 407.966 113.658C405.394 111.592 395.485 113.616 386.884 118.633" fill="white"/>
<path d="M387.517 129.638C387.517 129.638 402.316 126.602 408.387 121.838C412.688 118.465 409.441 114.839 407.966 113.658C405.394 111.592 395.485 113.616 386.884 118.633" stroke="#202251" stroke-width="0.638342" stroke-miterlimit="10"/>
<path d="M393.335 115.808C393.335 115.808 393.293 124.198 396.455 126.77" stroke="#202251" stroke-width="0.697369" stroke-miterlimit="10"/>
<path d="M397.762 114.164C397.762 114.164 397.594 123.482 401.43 125.337" stroke="#202251" stroke-width="0.697369" stroke-miterlimit="10"/>
<path d="M401.81 113.279C401.81 113.279 401.894 121.542 405.731 123.355" stroke="#202251" stroke-width="0.697369" stroke-miterlimit="10"/>
<path d="M403.454 113.026C403.876 109.695 407.755 108.725 410.242 109.315C414.121 110.201 414.206 111.255 415.091 115.26C415.639 117.706 412.013 119.603 409.863 120.531" fill="white"/>
<path d="M403.454 113.026C403.876 109.695 407.755 108.725 410.242 109.315C414.121 110.201 414.206 111.255 415.091 115.26C415.639 117.706 412.013 119.603 409.863 120.531" stroke="#202251" stroke-width="0.797168" stroke-miterlimit="10" stroke-linecap="round" stroke-linejoin="round"/>
<path d="M355.178 120.489C355.178 120.489 339.662 130.734 335.91 137.733C333.253 142.666 337.807 144.732 339.662 145.238C342.909 146.123 347.715 141.106 353.744 132.884" fill="white"/>
<path d="M355.178 120.489C355.178 120.489 339.662 130.734 335.91 137.733C333.253 142.666 337.807 144.732 339.662 145.238C342.909 146.123 347.715 141.106 353.744 132.884" stroke="#202251" stroke-width="0.654237" stroke-miterlimit="10"/>
<path d="M351.299 135.793C351.299 135.793 349.149 129.3 345.101 128.246" stroke="#202251" stroke-width="0.71474" stroke-miterlimit="10"/>
<path d="M348.896 139.715C348.896 139.715 345.354 131.746 341.011 131.619" stroke="#202251" stroke-width="0.71474" stroke-miterlimit="10"/>
<path d="M345.607 143.088C345.607 143.088 342.15 135.372 337.765 135.246" stroke="#202251" stroke-width="0.71474" stroke-miterlimit="10"/>
<path d="M344.3 143.72C345.27 147.051 342.023 149.496 339.451 150.002C335.446 150.761 334.94 149.791 332.452 146.418C330.935 144.352 333.591 141.064 335.193 139.335" fill="white"/>
<path d="M344.3 143.72C345.27 147.051 342.023 149.496 339.451 150.002C335.446 150.761 334.94 149.791 332.452 146.418C330.935 144.352 333.591 141.064 335.193 139.335" stroke="#202251" stroke-width="0.816985" stroke-miterlimit="10" stroke-linecap="round" stroke-linejoin="round"/>
<path d="M361.039 134.739C360.996 129.511 365.676 127.445 371.368 127.487C377.06 127.53 381.614 129.638 381.572 134.866C381.487 144.1 371.242 146.461 371.242 146.461C371.242 146.461 361.165 144.732 361.039 134.739Z" fill="white" stroke="#202251" stroke-width="0.726925" stroke-miterlimit="10"/>
<path d="M377.313 138.323C377.018 139.63 375.922 140.769 374.32 141.443L374.109 136.468C373.983 133.685 375.374 131.366 377.229 131.282L377.398 137.649C377.398 137.859 377.356 138.112 377.313 138.323Z" fill="#202251"/>
<path d="M365.719 138.787C366.098 140.094 367.321 141.106 368.965 141.654L368.754 136.679C368.628 133.896 367.11 131.704 365.255 131.788L365.634 138.155C365.592 138.366 365.634 138.576 365.719 138.787Z" fill="#202251"/>
<path d="M371.411 135.203C371.411 135.203 373.266 137.396 373.35 139.588C373.434 141.528 371.663 142.245 371.663 142.245C371.663 142.245 369.85 141.654 369.766 139.715C369.724 137.564 371.411 135.203 371.411 135.203Z" fill="#202251"/>
<path d="M358.551 122.006C359.605 122.597 360.954 122.934 362.135 123.229C363.4 123.566 364.707 123.819 366.014 123.988C368.501 124.325 371.031 124.41 373.519 124.157C377.651 123.777 381.993 122.386 384.945 119.308C385.113 119.139 384.861 118.844 384.692 118.971C381.319 121.5 377.356 122.723 373.224 123.06C370.778 123.271 368.333 123.187 365.93 122.85C364.791 122.681 363.653 122.47 362.514 122.175C361.292 121.88 360.111 121.374 358.846 121.121C358.34 121.037 358.087 121.753 358.551 122.006Z" fill="#202251"/>
<path d="M391.143 116.145C391.143 116.145 384.734 121.247 375.838 123.144C368.923 124.62 361.165 123.524 352.353 118.296C334.94 107.966 337.006 98.7745 337.006 98.7745C337.006 98.7745 337.385 95.4858 339.451 92.1549C341.475 88.8241 340.843 85.1138 347.041 79.1689C353.239 73.2661 356.864 72.6758 356.864 72.6758L369.092 69.7666L380.476 71.8747L391.944 79.1689L396.75 86.0835L399.111 89.0349L400.039 91.6912L400.967 99.0274L399.322 103.581L392.45 113.489L391.143 116.145Z" fill="white"/>
<path d="M339.451 92.1129C336.416 94.221 336.163 98.7746 336.669 102.105C337.259 105.774 339.241 109.104 342.403 111.086C342.867 111.381 343.288 110.622 342.782 110.327C339.873 108.514 338.06 105.436 337.512 102.063C337.048 99.0697 337.132 94.7691 339.915 92.8718C340.421 92.5345 339.915 91.8178 339.451 92.1129Z" fill="#202251"/>
<path d="M352.353 117.874C347.252 115.302 342.993 111.381 341.096 105.9C339.156 100.335 339.451 94.4741 341.433 88.993C341.981 87.433 342.824 85.9994 343.541 84.5237C344.258 83.048 345.143 81.6145 346.197 80.3075C347.8 78.368 349.866 76.6393 352.016 75.3323C354.335 73.9831 356.949 73.0133 359.521 72.2123C364.285 70.7366 369.387 70.0198 374.32 70.7366C379.675 71.5377 384.903 74.2782 389.077 77.6512C392.408 80.3496 395.064 83.7648 396.54 87.8124C397.931 91.6492 398.142 95.7811 397.678 99.8288C397.425 102.148 397.003 104.551 396.202 106.743C395.317 109.147 394.01 111.381 392.408 113.363C390.342 115.935 387.812 118.169 384.945 119.856C384.776 119.94 384.65 120.025 384.481 120.109C383.975 120.362 384.481 121.121 384.945 120.826C387.222 119.603 389.288 117.874 391.101 116.061C394.769 112.351 397.172 107.84 398.1 102.696C398.859 98.4796 399.027 94.0946 398.057 89.9205C397.088 85.7886 394.895 82.0361 391.902 79.0426C388.149 75.2901 383.132 72.2966 378.072 70.6944C372.886 69.0922 367.321 69.3452 362.093 70.5679C358.635 71.369 355.262 72.6339 352.142 74.2361C350.667 74.995 349.36 76.0069 348.137 77.061C345.523 79.2956 343.836 81.994 342.318 84.9875C341.517 86.5475 340.801 88.0654 340.253 89.7519C339.747 91.2697 339.367 92.8298 339.156 94.3898C338.735 97.1725 338.819 99.9552 339.367 102.696C339.873 105.268 340.758 107.84 342.15 110.032C343.668 112.435 345.734 114.501 348.01 116.146C349.275 117.031 350.582 117.832 351.932 118.507C352.48 118.928 352.859 118.127 352.353 117.874Z" fill="#202251"/>
<path d="M350.793 112.52C347.884 109.358 345.902 105.394 344.89 101.262C343.878 97.0461 343.499 92.0287 346.239 88.3606C349.107 84.5238 353.787 82.8794 358.214 81.6146C363.02 80.2654 367.911 79.6329 372.928 79.4221C377.904 79.2113 383.3 78.8318 387.306 82.3313C390.552 85.1984 392.155 89.3725 392.618 93.5466C393.166 98.4374 392.829 103.581 390.595 108.051C388.739 111.845 385.493 115.05 381.403 116.314C378.747 117.115 375.88 117.495 373.139 117.832C370.314 118.212 367.447 118.465 364.622 118.296C359.521 118.043 354.335 116.357 350.793 112.52C350.414 112.098 349.823 112.773 350.203 113.152C357.581 120.994 369.429 119.603 378.958 117.79C381.234 117.368 383.427 116.694 385.366 115.429C387.222 114.248 388.782 112.646 390.004 110.833C392.829 106.743 393.841 101.684 393.715 96.7931C393.63 92.2395 392.745 87.7281 390.004 84.0178C388.655 82.2048 386.926 80.6448 384.86 79.7172C382.415 78.5789 379.674 78.368 376.976 78.4102C371.664 78.4945 366.309 78.7897 361.081 79.9281C356.358 80.9821 351.172 82.4156 347.462 85.7043C345.776 87.2222 344.384 89.0773 343.71 91.2698C343.035 93.5044 343.119 95.992 343.415 98.3109C343.921 102.654 345.523 106.954 348.052 110.58C348.685 111.508 349.402 112.351 350.161 113.194C350.582 113.574 351.13 112.941 350.793 112.52Z" fill="#202251"/>
<path d="M397.045 87.8545C398.943 88.1496 399.702 90.0047 399.997 91.6912C400.292 93.2091 400.418 94.8113 400.503 96.3713C400.587 99.4913 399.87 102.907 397.088 104.762C396.624 105.057 397.087 105.816 397.551 105.478C400.671 103.37 401.515 99.5335 401.346 95.9497C401.219 92.9561 401.051 87.6015 397.214 86.969C396.666 86.8847 396.497 87.7701 397.045 87.8545Z" fill="#202251"/>
<path d="M391.311 95.4439C390.848 91.4806 389.288 87.5173 386.168 84.8189C386.083 84.7346 385.999 84.6924 385.957 84.6502C386.336 85.2405 386.505 85.873 386.421 86.4632C386.041 88.4027 382.795 89.3303 379.253 88.6135C375.711 87.8968 373.139 85.7043 373.519 83.807C373.688 82.9637 374.404 82.3313 375.416 81.9097C374.404 81.9097 373.392 81.994 372.38 82.0362C367.574 82.247 362.894 82.7951 358.256 84.06C353.998 85.2405 349.528 86.8005 346.788 90.4265C344.174 93.8839 344.511 98.6061 345.523 102.612C346.493 106.575 348.432 110.285 351.215 113.321C354.672 116.947 359.647 118.591 364.58 118.886C367.321 119.055 370.062 118.844 372.76 118.465C375.374 118.127 378.115 117.79 380.687 117.031C384.608 115.851 387.686 112.815 389.499 109.231C391.564 104.973 391.86 100.082 391.311 95.4439Z" fill="#202251"/>
<path d="M383.005 99.7022C381.741 103.455 371.959 102.485 367.405 104.467C373.35 98.9011 374.236 96.9616 376.681 93.5886C379.126 90.2577 382.415 92.1972 386.884 89.6253C391.354 87.0534 389.33 86.1258 392.155 81.9939C394.432 78.663 401.599 75.9646 404.888 74.9949C403.117 75.9646 399.112 78.4944 397.341 80.6447C395.148 83.3431 396.244 88.1074 391.269 91.4805C386.252 94.8535 384.608 95.0221 383.005 99.7022Z" fill="white" stroke="#202251" stroke-width="0.8013" stroke-linejoin="round"/>
<path d="M351.299 101.895C352.648 105.436 359.268 103.159 362.599 104.509C357.792 99.7865 356.949 97.9735 354.841 95.0221C352.733 92.0286 350.709 94.3897 347.336 92.4923C343.921 90.5529 345.228 89.3723 342.74 85.6198C340.758 82.6263 335.488 80.8976 333.127 80.4338C334.476 81.1506 337.554 83.1322 339.03 85.0296C340.885 87.3907 340.716 92.2815 344.595 94.9378C348.432 97.5518 349.613 97.5097 351.299 101.895Z" fill="white" stroke="#202251" stroke-width="0.8013" stroke-linejoin="round"/>
<path d="M411.802 86.5898C416.736 88.3185 420.657 92.1553 425.337 94.4743C426.391 94.9802 427.529 95.444 428.288 96.3294C429.3 97.4678 429.511 99.1965 428.878 100.546C427.824 100.925 426.686 100.504 425.758 99.9132C424.831 99.323 424.03 98.564 423.06 98.0159C422.048 97.4678 420.867 97.1727 419.771 96.7932C417.747 96.1186 415.808 95.1488 414.079 93.884" fill="#A16552"/>
<path d="M404.803 108.894C403.876 110.876 402.527 112.646 400.882 114.122C399.407 115.429 397.678 116.525 396.708 118.212C396.497 118.591 395.612 118.296 395.232 118.507C393.546 119.35 397.172 122.344 398.184 122.723C400.84 123.735 403.876 121.416 405.815 119.392C407.755 117.369 409.273 115.851 410.833 113.448C411.76 112.014 412.941 110.496 413.531 108.557" fill="#A16552"/>
<path d="M432.293 110.538L433.137 109.273L435.624 110.96C435.877 111.128 435.962 111.466 435.751 111.719L435.54 112.056C435.371 112.309 435.034 112.351 434.781 112.182L432.293 110.538Z" fill="#AC752C"/>
<path d="M432.293 110.538L432.715 109.906L435.666 111.929L435.54 112.098C435.371 112.351 435.034 112.393 434.781 112.224L432.293 110.538Z" fill="#7D551F"/>
<path d="M430.481 110.918C429.258 110.201 428.077 109.273 427.065 108.135C421.289 101.895 421.711 92.1975 427.909 86.4633C429.005 85.4514 430.228 84.6082 431.492 83.9757C431.619 83.9336 432.504 83.5541 433.432 83.5963C433.896 83.5963 434.359 83.7228 434.697 84.0179C434.739 84.0601 434.781 84.0601 434.823 84.1444C434.865 84.1866 434.865 84.2287 434.908 84.2709C435.076 84.6503 434.992 85.1141 434.739 85.7044C434.233 86.9693 432.968 88.4028 432.504 89.1196C432.378 89.2882 432.293 89.4569 432.167 89.6255C432.167 89.6255 432.167 89.6677 432.125 89.6677C431.998 89.8785 431.914 90.0472 431.788 90.2158C431.745 90.258 431.745 90.3423 431.661 90.3845C431.619 90.4266 431.619 90.4688 431.577 90.5109C431.535 90.5531 431.535 90.5953 431.492 90.6374C431.45 90.6796 431.408 90.7639 431.366 90.8483C431.282 90.9747 431.239 91.1012 431.155 91.2277C431.113 91.312 431.071 91.3542 431.029 91.4385C430.944 91.6493 430.818 91.8602 430.733 92.071C430.691 92.1553 430.691 92.1975 430.649 92.2818C430.607 92.3661 430.607 92.4083 430.565 92.4926C430.481 92.7034 430.438 92.9142 430.354 93.0829C430.354 93.0829 430.312 93.125 430.354 93.125L430.312 93.1672C430.228 93.4623 430.101 93.7575 430.017 94.0526C429.932 94.3478 429.89 94.6429 429.806 94.8959C429.806 94.938 429.511 95.0223 429.511 95.0223V95.0645L429.806 95.6548V95.697V95.7813C429.637 96.3294 429.511 97.4678 429.511 97.4678V97.8051V98.1002V98.1424V98.311C429.553 98.4797 429.553 98.6483 429.595 98.817C429.595 98.9013 429.637 98.9856 429.637 99.07C429.637 99.1964 429.679 99.3651 429.679 99.4494C429.679 99.4916 429.722 99.5759 429.722 99.5759C429.764 99.7446 429.764 99.9554 429.806 100.082C429.932 100.841 430.396 102.443 430.396 102.443V102.485C430.396 102.485 430.523 103.075 430.649 103.371C430.691 103.497 430.776 103.624 430.818 103.75C430.86 103.876 430.902 103.961 430.944 104.045C430.944 104.087 430.986 104.087 430.986 104.087C431.113 104.298 431.197 104.551 431.324 104.762C431.914 105.985 432.757 107.165 433.727 108.177C433.854 108.304 433.938 108.388 434.022 108.514C434.022 108.514 434.064 108.557 434.064 108.641C434.064 108.683 434.106 108.683 434.106 108.683C434.106 108.683 434.106 108.725 434.149 108.725C434.149 108.767 434.149 108.767 434.191 108.767C434.317 109.02 434.486 109.442 434.402 109.906C434.359 110.243 434.191 110.623 433.811 111.002C433.432 111.381 432.968 111.466 432.462 111.424C431.788 111.592 430.986 111.171 430.481 110.918Z" fill="#FFB300"/>
<path d="M433.853 111.213C432.631 110.538 431.535 109.695 430.48 108.683C430.354 108.557 430.185 108.388 430.101 108.262C424.367 102.021 424.746 92.3241 430.944 86.59C431.872 85.7467 432.842 85.03 433.938 84.4397C434.106 84.3554 434.233 84.271 434.402 84.1867C434.528 84.1446 434.612 84.0602 434.697 84.0181C434.739 84.0602 434.781 84.0602 434.823 84.1446C434.865 84.1867 434.865 84.2289 434.908 84.271C435.076 84.6505 434.992 85.1143 434.739 85.7046C434.233 86.9694 432.968 88.403 432.504 89.1197C432.378 89.2884 432.293 89.457 432.167 89.6257C432.167 89.6257 432.167 89.6679 432.125 89.6679C431.998 89.8787 431.914 90.0473 431.788 90.216C431.788 90.2581 431.745 90.2581 431.745 90.2581C431.703 90.3003 431.703 90.3425 431.703 90.3846C431.661 90.4268 431.661 90.4689 431.619 90.5111C431.577 90.5533 431.577 90.5954 431.535 90.6376C431.492 90.6798 431.45 90.7641 431.408 90.8484C431.366 90.9749 431.282 91.1014 431.197 91.2279C431.155 91.3122 431.113 91.3544 431.071 91.4387C431.029 91.5652 430.944 91.6917 430.902 91.8181C430.86 91.9025 430.86 91.9868 430.776 92.029C430.733 92.1133 430.733 92.1554 430.691 92.2398C430.649 92.3241 430.649 92.3663 430.607 92.4506C430.523 92.6614 430.48 92.8722 430.396 93.0409C430.396 93.0409 430.354 93.083 430.396 93.083L430.354 93.1252C430.312 93.1674 430.312 93.2517 430.312 93.2938C430.227 93.5468 430.185 93.7998 430.101 94.0528C430.059 94.3057 429.975 94.5587 429.932 94.8117C429.932 94.8539 429.89 94.896 429.89 94.9382C429.89 94.9803 429.848 95.0225 429.848 95.0647V95.1068C429.848 95.1068 429.89 95.3598 429.848 95.4863C429.848 95.5285 430.101 95.6971 430.101 95.6971V95.7393V95.8236C429.806 95.9501 429.764 96.0344 429.764 96.1187C429.764 96.2031 429.553 96.3717 429.553 96.3717V96.4982C429.553 96.4982 429.722 96.709 429.679 96.8355C429.679 96.962 429.637 97.0463 429.679 97.1306C429.679 97.2571 429.806 97.5101 429.806 97.5101V97.8474V98.1425V98.1847V98.3533C429.679 98.522 429.679 98.6907 429.679 98.8593C429.679 98.9436 429.722 99.028 429.722 99.1123C429.722 99.2388 429.764 99.4074 429.764 99.4917C429.764 99.5339 429.806 99.6182 429.806 99.6182C429.806 99.6604 429.848 99.7447 429.848 99.7447C429.89 99.8712 429.89 99.9977 429.89 100.124C429.89 100.251 429.932 100.335 429.932 100.461C429.932 100.588 429.975 100.714 429.975 100.841C430.017 100.883 430.017 100.967 430.017 101.052C430.017 101.094 430.059 101.178 430.059 101.178C430.101 101.305 430.101 101.389 430.143 101.516C430.185 101.642 430.185 101.726 430.227 101.853C430.27 101.937 430.27 102.021 430.312 102.148C430.354 102.274 430.354 102.527 430.354 102.527V102.57C430.396 102.696 430.438 102.823 430.48 102.949C430.523 103.033 430.523 103.118 430.565 103.16C430.607 103.244 430.607 103.371 430.691 103.455C430.733 103.539 430.733 103.624 430.818 103.708C430.86 103.75 430.86 103.834 430.86 103.834C430.902 103.961 430.944 104.045 430.986 104.13C430.986 104.172 431.029 104.172 431.029 104.172C431.071 104.256 431.113 104.34 431.155 104.425C431.197 104.509 431.239 104.551 431.282 104.636C431.324 104.72 431.366 104.762 431.408 104.846C431.45 104.973 431.535 105.057 431.577 105.142C431.619 105.184 431.619 105.268 431.661 105.31C431.703 105.437 431.788 105.563 431.872 105.69C431.914 105.774 431.998 105.858 431.998 105.943C432.083 106.069 432.167 106.196 432.209 106.322C432.251 106.406 432.336 106.491 432.378 106.575C432.462 106.702 432.546 106.828 432.631 106.955C432.673 107.039 432.757 107.123 432.799 107.165C432.926 107.292 433.01 107.418 433.095 107.545C433.137 107.587 433.179 107.671 433.221 107.671C433.221 107.713 433.263 107.713 433.263 107.713C433.39 107.882 433.558 108.093 433.727 108.262C433.853 108.388 433.938 108.472 434.022 108.599C434.022 108.599 434.064 108.641 434.064 108.725C434.064 108.768 434.106 108.768 434.106 108.768C434.106 108.81 434.106 108.81 434.149 108.81C434.149 108.852 434.149 108.852 434.191 108.852C434.317 109.105 434.486 109.526 434.402 109.99C434.402 110.496 434.233 110.876 433.853 111.213Z" fill="#FFD54F"/>
<path d="M434.781 85.7466C434.697 84.819 434.317 84.1022 433.516 83.6384C433.98 83.6384 434.444 83.7649 434.781 84.0601C434.823 84.1022 434.866 84.1022 434.908 84.1865C434.95 84.2287 434.95 84.2709 434.992 84.313C435.119 84.6503 435.034 85.1984 434.781 85.7466Z" fill="#7D551F"/>
<path d="M434.781 85.7466C434.739 85.1985 434.57 84.7347 434.275 84.3131C434.317 84.2709 434.402 84.2709 434.486 84.2288C434.612 84.1866 434.697 84.1023 434.781 84.1023C434.823 84.1445 434.865 84.1445 434.908 84.2288C434.95 84.2709 434.95 84.3131 434.992 84.3553C435.118 84.6504 435.034 85.1985 434.781 85.7466Z" fill="#AC752C"/>
<path d="M67.0593 142.563C66.2173 143.075 65.0825 143.405 63.8745 143.185C63.6915 143.149 63.5085 143.112 63.3254 143.075C62.3737 142.783 61.3487 142.124 60.3969 140.879C58.0175 137.877 58.8228 133.045 61.7147 131.91C63.0326 131.398 64.0942 131.618 64.8629 132.057C64.8995 132.057 64.9361 132.094 64.9727 132.13C65.8147 132.606 66.2905 133.302 66.2905 133.302L66.6566 137.768L67.0227 142.233L67.0593 142.563Z" fill="#202251" stroke="white" stroke-width="0.366064" stroke-miterlimit="10"/>
<path d="M66.1076 134.253C66.1076 134.253 64.7897 132.276 62.5202 133.192C60.2506 134.07 59.5916 137.877 61.4586 140.22C63.3255 142.599 65.4121 142.307 66.7299 141.538L66.1076 134.253Z" fill="white"/>
<path d="M94.0749 133.302C94.0749 133.302 95.7222 130.812 98.6141 131.947C101.543 133.082 102.311 137.914 99.9319 140.916C97.5525 143.917 94.9168 143.588 93.2695 142.6L94.0749 133.302Z" fill="#202251" stroke="white" stroke-width="0.366064" stroke-miterlimit="10"/>
<path d="M94.2578 134.253C94.2578 134.253 95.5756 132.276 97.8452 133.192C100.115 134.07 100.774 137.877 98.9068 140.22C97.0399 142.599 94.9533 142.307 93.6355 141.538L94.2578 134.253Z" fill="white"/>
<path d="M97.0764 143.258C97.0764 143.185 97.0398 143.149 97.0398 143.075C97.0032 142.966 96.9666 142.819 96.93 142.709C96.8568 142.416 96.7836 142.16 96.747 141.904C96.3809 140.367 96.1979 138.829 96.2345 137.255C96.2345 137.182 96.2345 137.072 96.2345 136.999C96.2345 135.717 96.0515 134.436 95.722 133.155V133.118C95.6122 132.789 95.539 132.496 95.4292 132.167C95.2461 131.618 95.0265 131.068 94.7702 130.519C94.5872 130.117 94.4042 129.751 94.1845 129.348C92.0614 125.468 88.5105 122.246 84.4472 120.855V120.819L84.374 118.622L81.7384 120.233L81.6652 120.27C81.5553 120.27 81.4455 120.27 81.3723 120.233C81.1893 120.233 81.0062 120.196 80.8232 120.196V120.16L80.4571 118.476L80.3473 118C80.2375 118 80.0911 118 79.9813 118C77.5286 118.183 76.284 120.453 76.101 120.855C72.0377 122.21 68.4502 125.431 66.3271 129.348C66.1074 129.714 65.9244 130.117 65.7414 130.519C65.4851 131.068 65.2655 131.618 65.0825 132.167C64.9726 132.496 64.8628 132.826 64.6798 133.192C64.4235 134.473 64.2039 137.035 64.2039 137.035C64.2039 137.035 64.2039 137.218 64.2039 137.292C64.2039 138.866 64.0209 140.403 63.6914 141.941C63.6182 142.233 63.5816 142.49 63.5084 142.746C63.4718 142.856 63.4352 142.966 63.3986 143.112C63.3986 143.185 63.362 143.222 63.362 143.295C63.1789 144.1 63.1057 144.906 63.1057 145.748C63.1057 151.495 67.3155 156.437 73.3555 158.596C74.7099 159.072 76.2108 159.438 77.7483 159.621C78.517 159.731 79.2857 159.768 80.0911 159.768C80.1643 159.768 80.2009 159.768 80.2741 159.768C89.7552 159.768 97.4059 153.472 97.4059 145.748C97.2961 144.869 97.1863 144.027 97.0764 143.258Z" fill="#202251" stroke="white" stroke-width="0.366064" stroke-miterlimit="10"/>
<path d="M92.1713 141.135C92.5373 140.33 92.757 139.415 92.757 138.463C92.757 134.766 89.6454 131.801 85.7652 131.801C84.4473 131.801 83.2393 132.13 82.2143 132.716C80.9331 133.448 79.3956 133.448 78.1144 132.716C77.0894 132.13 75.8448 131.801 74.5636 131.801C70.7199 131.801 67.5718 134.802 67.5718 138.463C67.5718 139.415 67.7914 140.33 68.1575 141.135C68.2673 141.428 68.4137 141.684 68.5968 141.941C69.2557 143.002 69.4387 144.32 69.0726 145.528C68.7798 146.443 68.4869 147.468 68.4869 148.2C68.4869 153.764 73.7216 158.267 80.1644 158.267C86.6071 158.267 91.8418 153.764 91.8418 148.2C91.8418 147.431 91.549 146.406 91.2561 145.528C90.8534 144.32 91.0365 143.002 91.732 141.941C91.915 141.684 92.0615 141.391 92.1713 141.135Z" fill="white"/>
<path d="M74.2341 149.445C73.8314 149.445 73.502 149.811 73.5752 150.214C73.9779 153.179 76.7966 155.485 80.2009 155.485C83.6053 155.485 86.424 153.179 86.8267 150.214C86.8999 149.811 86.5705 149.445 86.1678 149.445H74.2341Z" fill="#202251"/>
<path d="M76.3208 154.35C77.419 155.046 78.7368 155.448 80.1645 155.448C81.5921 155.448 82.91 155.046 84.0081 154.35C83.5323 152.666 81.9948 153.069 80.1645 153.069C78.3342 153.069 76.7967 152.666 76.3208 154.35Z" fill="white"/>
<path d="M79.5787 145.491C79.4688 145.784 79.1028 145.894 78.8099 145.784L77.4921 145.199C77.1992 145.089 77.0894 144.723 77.1992 144.43C77.3091 144.137 77.6751 144.027 77.9314 144.137L79.2492 144.723C79.5787 144.869 79.7251 145.199 79.5787 145.491Z" fill="#202251"/>
<path d="M80.7502 145.491C80.86 145.784 81.2261 145.894 81.4823 145.784L82.8001 145.199C83.093 145.089 83.2028 144.723 83.093 144.43C82.9832 144.137 82.6171 144.027 82.3242 144.137L81.0064 144.723C80.7502 144.869 80.6403 145.199 80.7502 145.491Z" fill="#202251"/>
<path d="M74.1242 141.099C73.026 141.099 72.1475 140.257 72.1475 139.195V138.609C72.1475 137.548 73.0626 136.706 74.1242 136.706C75.1858 136.706 76.101 137.548 76.101 138.609V139.232C76.101 140.257 75.2224 141.099 74.1242 141.099Z" fill="#202251"/>
<path d="M74.1609 138.609C74.5269 138.609 74.8198 138.317 74.8198 137.987C74.8198 137.621 74.5269 137.365 74.1609 137.365C73.7948 137.365 73.502 137.658 73.502 137.987C73.502 138.317 73.7948 138.609 74.1609 138.609Z" fill="white"/>
<path d="M86.2412 141.099C85.143 141.099 84.2644 140.257 84.2644 139.195V138.609C84.2644 137.548 85.1796 136.706 86.2412 136.706C87.3027 136.706 88.2179 137.548 88.2179 138.609V139.232C88.2179 140.257 87.3393 141.099 86.2412 141.099Z" fill="#202251"/>
<path d="M86.1677 138.609C86.5338 138.609 86.8266 138.317 86.8266 137.987C86.8266 137.621 86.5338 137.365 86.1677 137.365C85.8016 137.365 85.5088 137.658 85.5088 137.987C85.5088 138.317 85.8016 138.609 86.1677 138.609Z" fill="white"/>
<path d="M121.376 143.293L120.625 141.32H114.233L113.483 143.336C113.189 144.122 112.939 144.655 112.732 144.934C112.525 145.206 112.185 145.341 111.713 145.341C111.313 145.341 110.959 145.195 110.651 144.902C110.344 144.609 110.19 144.276 110.19 143.904C110.19 143.69 110.226 143.468 110.297 143.239C110.369 143.011 110.487 142.692 110.651 142.285L114.673 132.075C114.787 131.782 114.923 131.432 115.081 131.024C115.245 130.609 115.417 130.266 115.595 129.995C115.781 129.723 116.021 129.505 116.314 129.34C116.614 129.169 116.982 129.083 117.419 129.083C117.862 129.083 118.23 129.169 118.523 129.34C118.823 129.505 119.063 129.719 119.242 129.984C119.428 130.248 119.581 130.534 119.703 130.842C119.832 131.142 119.992 131.546 120.185 132.054L124.293 142.199C124.615 142.971 124.776 143.532 124.776 143.883C124.776 144.247 124.622 144.583 124.314 144.891C124.014 145.191 123.649 145.341 123.22 145.341C122.97 145.341 122.756 145.295 122.577 145.202C122.398 145.116 122.248 144.998 122.127 144.848C122.005 144.691 121.873 144.455 121.73 144.14C121.594 143.818 121.476 143.536 121.376 143.293ZM115.07 138.928H119.767L117.397 132.44L115.07 138.928ZM129.623 135.078V135.432C130.174 134.753 130.746 134.256 131.339 133.941C131.932 133.619 132.604 133.459 133.355 133.459C134.256 133.459 135.085 133.691 135.843 134.156C136.601 134.62 137.198 135.3 137.634 136.193C138.078 137.087 138.299 138.145 138.299 139.368C138.299 140.269 138.17 141.098 137.913 141.856C137.663 142.607 137.316 143.239 136.873 143.754C136.43 144.262 135.904 144.655 135.296 144.934C134.696 145.206 134.049 145.341 133.355 145.341C132.519 145.341 131.814 145.173 131.242 144.837C130.678 144.501 130.138 144.008 129.623 143.357V147.754C129.623 149.041 129.155 149.685 128.218 149.685C127.668 149.685 127.303 149.517 127.124 149.181C126.945 148.852 126.856 148.369 126.856 147.733V135.099C126.856 134.542 126.978 134.127 127.221 133.855C127.464 133.577 127.796 133.437 128.218 133.437C128.633 133.437 128.969 133.58 129.226 133.866C129.491 134.145 129.623 134.549 129.623 135.078ZM135.361 139.336C135.361 138.563 135.243 137.902 135.007 137.352C134.771 136.794 134.442 136.368 134.02 136.075C133.605 135.775 133.144 135.625 132.637 135.625C131.829 135.625 131.146 135.943 130.588 136.579C130.038 137.216 129.762 138.152 129.762 139.389C129.762 140.555 130.038 141.463 130.588 142.113C131.139 142.757 131.822 143.078 132.637 143.078C133.123 143.078 133.573 142.939 133.988 142.66C134.403 142.374 134.735 141.949 134.985 141.384C135.236 140.819 135.361 140.136 135.361 139.336ZM148.82 140.108H143.093C143.1 140.773 143.232 141.359 143.49 141.867C143.754 142.374 144.101 142.757 144.53 143.014C144.966 143.272 145.445 143.4 145.967 143.4C146.318 143.4 146.636 143.361 146.922 143.282C147.215 143.196 147.497 143.068 147.769 142.896C148.041 142.717 148.291 142.528 148.52 142.328C148.748 142.128 149.045 141.856 149.41 141.513C149.56 141.384 149.774 141.32 150.053 141.32C150.354 141.32 150.597 141.402 150.783 141.566C150.968 141.731 151.061 141.963 151.061 142.263C151.061 142.528 150.958 142.839 150.75 143.196C150.543 143.547 150.228 143.886 149.807 144.215C149.392 144.537 148.866 144.805 148.23 145.02C147.601 145.234 146.875 145.341 146.053 145.341C144.173 145.341 142.711 144.805 141.667 143.733C140.623 142.66 140.101 141.205 140.101 139.368C140.101 138.503 140.23 137.702 140.487 136.965C140.744 136.222 141.12 135.586 141.613 135.057C142.106 134.527 142.714 134.123 143.436 133.845C144.158 133.559 144.959 133.416 145.839 133.416C146.982 133.416 147.962 133.659 148.777 134.145C149.599 134.624 150.214 135.246 150.622 136.011C151.029 136.776 151.233 137.555 151.233 138.349C151.233 139.085 151.022 139.564 150.6 139.786C150.178 140.001 149.585 140.108 148.82 140.108ZM143.093 138.445H148.402C148.33 137.445 148.059 136.697 147.587 136.204C147.122 135.704 146.507 135.453 145.742 135.453C145.013 135.453 144.412 135.707 143.94 136.215C143.476 136.715 143.193 137.459 143.093 138.445ZM165.861 140.354C165.861 141.305 165.615 142.16 165.121 142.918C164.635 143.675 163.92 144.269 162.976 144.698C162.033 145.127 160.914 145.341 159.62 145.341C158.068 145.341 156.788 145.048 155.78 144.462C155.065 144.04 154.482 143.479 154.032 142.778C153.589 142.07 153.367 141.384 153.367 140.719C153.367 140.333 153.499 140.004 153.764 139.732C154.036 139.454 154.379 139.314 154.794 139.314C155.13 139.314 155.412 139.421 155.641 139.636C155.877 139.85 156.077 140.169 156.241 140.59C156.442 141.091 156.656 141.509 156.885 141.845C157.121 142.181 157.45 142.46 157.871 142.682C158.293 142.896 158.847 143.003 159.534 143.003C160.478 143.003 161.243 142.785 161.829 142.349C162.422 141.906 162.719 141.355 162.719 140.698C162.719 140.176 162.558 139.754 162.236 139.432C161.922 139.103 161.511 138.853 161.003 138.681C160.503 138.51 159.83 138.328 158.987 138.134C157.857 137.87 156.91 137.562 156.145 137.212C155.387 136.855 154.783 136.372 154.332 135.764C153.889 135.149 153.667 134.388 153.667 133.48C153.667 132.615 153.903 131.846 154.375 131.174C154.847 130.502 155.53 129.987 156.424 129.63C157.317 129.265 158.368 129.083 159.577 129.083C160.542 129.083 161.375 129.205 162.075 129.448C162.783 129.684 163.37 130.002 163.834 130.402C164.299 130.795 164.639 131.21 164.853 131.646C165.068 132.082 165.175 132.508 165.175 132.922C165.175 133.301 165.039 133.644 164.767 133.952C164.503 134.252 164.17 134.402 163.77 134.402C163.405 134.402 163.126 134.313 162.933 134.134C162.748 133.948 162.544 133.648 162.322 133.233C162.036 132.64 161.693 132.179 161.293 131.85C160.892 131.514 160.249 131.346 159.362 131.346C158.54 131.346 157.875 131.528 157.367 131.893C156.867 132.25 156.617 132.683 156.617 133.19C156.617 133.505 156.702 133.777 156.874 134.006C157.046 134.234 157.282 134.431 157.582 134.595C157.882 134.76 158.186 134.889 158.493 134.981C158.801 135.074 159.309 135.21 160.016 135.389C160.903 135.596 161.704 135.825 162.419 136.075C163.141 136.326 163.752 136.629 164.253 136.987C164.76 137.344 165.153 137.798 165.432 138.349C165.718 138.892 165.861 139.561 165.861 140.354ZM170.183 135.26L172.092 141.802L173.83 135.721C174.015 135.085 174.151 134.653 174.237 134.424C174.33 134.188 174.498 133.966 174.741 133.759C174.991 133.544 175.331 133.437 175.76 133.437C176.196 133.437 176.536 133.544 176.779 133.759C177.029 133.966 177.204 134.195 177.304 134.445C177.404 134.688 177.544 135.114 177.723 135.721L179.46 141.802L181.39 135.26C181.519 134.788 181.623 134.449 181.701 134.241C181.78 134.027 181.912 133.841 182.098 133.684C182.284 133.519 182.552 133.437 182.902 133.437C183.253 133.437 183.557 133.559 183.814 133.802C184.071 134.045 184.2 134.331 184.2 134.66C184.2 134.96 184.089 135.414 183.868 136.022L181.476 143.036C181.269 143.629 181.108 144.058 180.994 144.323C180.879 144.587 180.697 144.823 180.447 145.03C180.203 145.238 179.867 145.341 179.438 145.341C178.995 145.341 178.645 145.231 178.387 145.009C178.137 144.787 177.951 144.516 177.83 144.194C177.708 143.872 177.576 143.454 177.433 142.939L175.76 137.234L174.141 142.939C173.926 143.733 173.694 144.333 173.443 144.741C173.193 145.141 172.754 145.341 172.124 145.341C171.803 145.341 171.527 145.277 171.299 145.148C171.077 145.027 170.891 144.852 170.741 144.623C170.591 144.387 170.458 144.112 170.344 143.797C170.23 143.475 170.14 143.221 170.076 143.036L167.706 136.022C167.47 135.364 167.352 134.91 167.352 134.66C167.352 134.345 167.477 134.063 167.727 133.812C167.978 133.562 168.285 133.437 168.65 133.437C169.136 133.437 169.465 133.577 169.636 133.855C169.808 134.127 169.99 134.595 170.183 135.26ZM193.327 143.69C192.619 144.24 191.933 144.655 191.268 144.934C190.61 145.206 189.87 145.341 189.048 145.341C188.297 145.341 187.636 145.195 187.064 144.902C186.499 144.601 186.063 144.197 185.755 143.69C185.448 143.182 185.294 142.632 185.294 142.038C185.294 141.237 185.548 140.555 186.056 139.99C186.563 139.425 187.26 139.046 188.147 138.853C188.333 138.81 188.794 138.714 189.53 138.563C190.267 138.413 190.896 138.277 191.418 138.156C191.947 138.027 192.519 137.874 193.134 137.695C193.098 136.923 192.941 136.358 192.662 136C192.39 135.636 191.822 135.453 190.957 135.453C190.213 135.453 189.652 135.557 189.273 135.764C188.901 135.972 188.579 136.283 188.308 136.697C188.043 137.112 187.854 137.387 187.739 137.523C187.632 137.652 187.396 137.716 187.031 137.716C186.703 137.716 186.417 137.613 186.173 137.405C185.938 137.191 185.82 136.919 185.82 136.59C185.82 136.075 186.002 135.575 186.367 135.089C186.731 134.603 187.3 134.202 188.072 133.888C188.844 133.573 189.806 133.416 190.957 133.416C192.244 133.416 193.255 133.569 193.992 133.877C194.728 134.177 195.246 134.656 195.547 135.314C195.854 135.972 196.008 136.844 196.008 137.931C196.008 138.617 196.004 139.2 195.997 139.679C195.997 140.158 195.994 140.69 195.986 141.277C195.986 141.827 196.076 142.403 196.255 143.003C196.44 143.597 196.533 143.979 196.533 144.151C196.533 144.451 196.39 144.726 196.104 144.977C195.826 145.22 195.507 145.341 195.15 145.341C194.85 145.341 194.553 145.202 194.26 144.923C193.967 144.637 193.656 144.226 193.327 143.69ZM193.134 139.454C192.705 139.611 192.079 139.779 191.257 139.958C190.442 140.129 189.877 140.258 189.562 140.344C189.248 140.422 188.948 140.583 188.662 140.826C188.376 141.062 188.233 141.395 188.233 141.824C188.233 142.267 188.401 142.646 188.737 142.961C189.073 143.268 189.512 143.422 190.056 143.422C190.635 143.422 191.168 143.297 191.654 143.046C192.147 142.789 192.508 142.46 192.737 142.06C193.001 141.616 193.134 140.887 193.134 139.872V139.454ZM201.392 135.078V135.432C201.942 134.753 202.514 134.256 203.108 133.941C203.701 133.619 204.373 133.459 205.124 133.459C206.025 133.459 206.854 133.691 207.612 134.156C208.37 134.62 208.967 135.3 209.403 136.193C209.846 137.087 210.068 138.145 210.068 139.368C210.068 140.269 209.939 141.098 209.682 141.856C209.431 142.607 209.085 143.239 208.641 143.754C208.198 144.262 207.673 144.655 207.065 144.934C206.464 145.206 205.817 145.341 205.124 145.341C204.287 145.341 203.583 145.173 203.011 144.837C202.446 144.501 201.906 144.008 201.392 143.357V147.754C201.392 149.041 200.923 149.685 199.987 149.685C199.436 149.685 199.072 149.517 198.893 149.181C198.714 148.852 198.625 148.369 198.625 147.733V135.099C198.625 134.542 198.746 134.127 198.989 133.855C199.232 133.577 199.565 133.437 199.987 133.437C200.401 133.437 200.737 133.58 200.995 133.866C201.259 134.145 201.392 134.549 201.392 135.078ZM207.129 139.336C207.129 138.563 207.011 137.902 206.775 137.352C206.539 136.794 206.21 136.368 205.789 136.075C205.374 135.775 204.913 135.625 204.405 135.625C203.597 135.625 202.914 135.943 202.357 136.579C201.806 137.216 201.531 138.152 201.531 139.389C201.531 140.555 201.806 141.463 202.357 142.113C202.907 142.757 203.59 143.078 204.405 143.078C204.891 143.078 205.342 142.939 205.756 142.66C206.171 142.374 206.504 141.949 206.754 141.384C207.004 140.819 207.129 140.136 207.129 139.336Z" fill="white"/>
</g>
<defs>
<radialGradient id="paint0_radial" cx="0" cy="0" r="1" gradientUnits="userSpaceOnUse" gradientTransform="translate(369.047 223.59) scale(145.517 145.454)">
<stop stop-color="white"/>
<stop offset="0.6719" stop-color="#EDEDED"/>
<stop offset="1" stop-color="#E2E2E2"/>
</radialGradient>
<radialGradient id="paint1_radial" cx="0" cy="0" r="1" gradientUnits="userSpaceOnUse" gradientTransform="translate(381.624 241.745) scale(126.599 126.544)">
<stop stop-color="white"/>
<stop offset="0.6719" stop-color="#EDEDED"/>
<stop offset="1" stop-color="#E2E2E2"/>
</radialGradient>
<radialGradient id="paint2_radial" cx="0" cy="0" r="1" gradientUnits="userSpaceOnUse" gradientTransform="translate(368.406 222.608) rotate(4.57514) scale(93.9378 93.8975)">
<stop stop-color="white"/>
<stop offset="0.6719" stop-color="#EDEDED"/>
<stop offset="1" stop-color="#E2E2E2"/>
</radialGradient>
<radialGradient id="paint3_radial" cx="0" cy="0" r="1" gradientUnits="userSpaceOnUse" gradientTransform="translate(342.742 185.112) scale(60.0329 60.0069)">
<stop stop-color="white"/>
<stop offset="0.6719" stop-color="#EDEDED"/>
<stop offset="1" stop-color="#E2E2E2"/>
</radialGradient>
</defs>
</svg>
