<svg width="510" height="210" viewBox="0 0 510 210" fill="none" xmlns="http://www.w3.org/2000/svg">
<rect width="510" height="210" rx="30" fill="#131234"/>
<mask id="mask0" mask-type="alpha" maskUnits="userSpaceOnUse" x="0" y="0" width="510" height="210">
<rect width="510" height="210" rx="30" fill="#131234"/>
</mask>
<g mask="url(#mask0)">
<path d="M355.295 305.591C410.687 305.591 455.591 260.687 455.591 205.295C455.591 149.904 410.687 105 355.295 105C299.904 105 255 149.904 255 205.295C255 260.687 299.904 305.591 355.295 305.591Z" fill="#EF4343"/>
<g opacity="0.04">
<path opacity="0.04" d="M358.985 180.972C361.778 180.925 364.571 180.882 367.367 180.836C367.222 180.703 367.08 180.566 366.907 180.446C364.63 178.868 361.537 179.898 358.985 180.972Z" fill="#010101"/>
</g>
<path d="M361.268 133.317C358.376 139.324 351.485 141.619 345.36 142.386C342.298 142.386 337.705 140.088 339.236 136.262C340.767 128.606 350.721 124.777 358.642 128.637C360.566 129.803 361.602 131.474 361.268 133.317Z" fill="#E6312F"/>
<path d="M395.409 151.408C391.357 152.482 388.147 150.524 385.978 148.303C385.1 147.047 385.01 144.304 387.503 143.49C392.05 141.238 396.959 143.877 397.163 148.575C397.092 149.8 396.492 150.852 395.409 151.408Z" fill="#E6312F"/>
<path opacity="0.08" d="M405.706 211.571C407.528 204.467 411.651 201.803 415.298 200.947C417.113 200.974 419.795 203.74 418.821 208.271C417.775 217.346 411.809 221.8 407.181 217.148C406.059 215.747 405.474 213.755 405.706 211.571Z" fill="white"/>
<path d="M405.715 210.532C407.234 204.111 410.658 201.698 413.68 200.922C415.186 200.944 417.407 203.443 416.593 207.535C415.718 215.735 410.763 219.768 406.931 215.567C406.003 214.306 405.52 212.505 405.715 210.532Z" fill="#EF3835"/>
<path d="M393.572 215.311C391.311 218.459 388.979 219.019 387.228 218.778C386.452 218.435 385.87 216.594 387.231 214.553C389.566 210.297 393.065 209.196 394.095 212.31C394.286 213.201 394.122 214.284 393.572 215.311Z" fill="#E6312F"/>
<path opacity="0.03" d="M353.053 161.578C359.341 155.179 367.918 155.302 374.865 157.047C378.134 158.408 381.815 163.388 378.141 167.607C372.428 176.722 359.762 177.195 353.362 168.736C351.933 166.388 351.717 163.787 353.053 161.578Z" fill="white"/>
<path d="M353.625 158.17C359.913 151.77 368.49 151.894 375.437 153.638C378.707 154.999 382.387 159.979 378.713 164.198C373 173.313 360.334 173.786 353.934 165.327C352.505 162.976 352.289 160.378 353.625 158.17Z" fill="#EF3835"/>
<path d="M304.879 181.847C308.999 176.202 319.719 174.671 322.781 180.031C325.079 185.392 318.188 189.985 312.828 190.749C309.766 190.749 307.467 189.218 304.9 186.802C303.997 185.234 303.92 183.437 304.879 181.847Z" fill="#EF3835"/>
<path d="M391.883 193.932C394.401 190.409 400.828 189.36 402.607 192.639C403.927 195.924 399.764 198.828 396.55 199.351C394.719 199.382 393.358 198.457 391.846 196.991C391.323 196.032 391.292 194.925 391.883 193.932Z" fill="#EF3835"/>
<path opacity="0.08" d="M330.866 111.944C332.571 111.656 334.284 111.418 336.001 111.236C337.73 111.097 339.459 110.988 341.191 110.939C361.828 110.357 382.499 118.013 396.349 133.178C398.131 134.944 399.851 136.778 401.505 138.668C409.779 148.13 416.414 159.023 420.951 169.719C421.753 172.209 422.476 174.727 423.129 177.26C424.434 182.326 425.464 187.455 426.253 192.568C426.346 194.856 426.34 197.176 426.25 199.496C425.987 206.455 425 213.387 423.203 220.136C422.315 222.598 421.248 225.004 420.048 227.346C418.842 229.687 417.503 231.964 416.033 234.163C414.536 236.504 412.94 238.803 411.273 241.042C404.605 250.002 396.77 258.066 388.975 264.933C386.996 266.408 384.976 267.815 382.919 269.136C362.595 281.858 335.797 277.265 313.326 270.615C310.749 269.715 308.197 268.762 305.676 267.766C303.199 266.618 300.786 265.363 298.445 263.989C291.445 259.872 285.101 254.716 279.781 248.332C278.198 246.399 276.71 244.41 275.324 242.375C262.841 224.061 258.384 201.915 261.947 180.867C253.521 213.013 261.9 248.651 287.096 273.844C291.031 277.778 295.219 281.301 299.608 284.416C301.804 285.972 304.046 287.428 306.338 288.78C308.627 290.132 310.959 291.381 313.329 292.529C315.698 293.676 318.104 294.722 320.542 295.662C347.355 306.03 377.856 304.001 403.225 289.578C405.684 288.174 408.097 286.655 410.451 285.01C423.079 276.501 432.266 265.78 439.578 253.222C440.976 250.763 442.259 248.258 443.422 245.709C453.911 222.774 454.96 196.579 446.568 172.992C445.637 170.372 444.585 167.783 443.422 165.234C440.1 158.439 436.086 152.039 431.437 146.141C429.884 144.174 428.26 142.265 426.544 140.419C414.468 128.489 399.968 119.284 384.314 113.883C382.081 113.123 379.823 112.439 377.55 111.842C366.418 108.829 354.933 108.062 343.078 109.652C341.021 109.896 338.973 110.206 336.929 110.565C334.897 110.957 332.874 111.418 330.866 111.944Z" fill="#010101"/>
<path opacity="0.08" d="M422.442 136.831C414.657 127.966 403.94 121.078 392.755 116.225C390.534 115.3 388.289 114.459 386.019 113.704C370.127 108.43 353.139 107.391 336.814 110.586C350.724 108.43 365.032 109.491 378.546 113.769C381.249 114.626 383.918 115.609 386.548 116.723C413.126 127.202 428.44 154 436.794 180.489C437.404 182.917 437.942 185.358 438.418 187.807C439.822 195.147 440.664 202.577 440.982 209.944C440.824 212.4 440.571 214.85 440.224 217.281C438.455 229.434 434.44 241.166 427.79 251.475C426.29 253.581 424.703 255.626 423.036 257.602C414.707 267.488 404.416 275.712 393.408 281.821C390.906 283.083 388.391 284.252 385.818 285.27C371.426 287.812 356.297 288.83 341.355 287.951C338.865 287.806 336.378 287.605 333.898 287.351C325.741 287.308 317.823 285.557 310.421 282.483C307.953 281.446 305.54 280.265 303.202 278.929C283.734 265.774 270.719 245.103 262.587 224.454C262.037 222.412 261.563 220.349 261.164 218.274C259.163 207.897 258.971 197.238 260.586 186.808C258.409 197.937 258.198 209.378 259.955 220.566C260.308 222.802 260.738 225.026 261.257 227.219C267.657 249.696 280.672 271.131 300.016 284.92C302.268 286.482 304.585 287.939 306.954 289.281C309.323 290.624 311.748 291.848 314.22 292.95C316.193 293.881 318.182 294.737 320.183 295.504C339.626 301.759 360.297 303.29 380.553 298.836C383.052 298.195 385.514 297.431 387.949 296.565C390.568 295.634 393.157 294.583 395.706 293.42C414.462 285.709 428.202 270.89 438.044 253.68C439.275 251.53 440.444 249.337 441.548 247.111C446.859 235.771 450.66 223.402 451.864 210.789C452.105 208.265 452.241 205.732 452.263 203.195C451.833 191.995 448.938 181.034 444.564 170.653C443.67 168.566 442.717 166.502 441.687 164.455C438.387 155.528 431.496 149.404 426.683 141.303C425.331 139.775 423.912 138.285 422.442 136.831Z" fill="#010101"/>
<path opacity="0.03" d="M364.37 132.392C369.557 149.126 360.986 163.898 349.267 175.42C347.593 177.065 345.855 178.646 344.083 180.155C340.393 183.09 337.328 186.156 332.734 187.687C313.595 194.578 298.281 206.827 282.203 211.42C263.063 216.78 270.719 184.625 274.786 169.475C276.132 166.734 277.613 163.92 279.231 161.087C282.463 155.42 286.252 149.673 290.545 144.285C292.157 142.265 293.849 140.298 295.649 138.427C297.699 136.927 299.877 135.532 302.16 134.242C304.439 132.952 306.821 131.767 309.28 130.691C315.494 127.66 322.067 126.302 328.785 125.807C331.024 125.643 333.279 125.572 335.54 125.569C337.903 125.402 340.198 125.516 342.447 125.786C348.815 127.199 355.703 128.733 361.682 128.875C362.734 129.803 363.643 130.982 364.37 132.392Z" fill="white"/>
<path opacity="0.05" d="M314.875 139.503C315.89 152.466 302.874 158.593 292.157 160.888C290.626 160.888 289.095 160.121 287.564 159.357C284.502 157.059 284.502 153.233 286.797 150.171C293.688 143.28 302.874 141.749 311.522 138.705C312.89 138.615 314.043 138.869 314.875 139.503Z" fill="white"/>
<g opacity="0.04">
<path opacity="0.04" d="M428.842 195.416C429.454 191.531 431.462 187.489 435.136 186.084C437.07 185.345 439.207 185.432 441.276 185.528C445.436 185.723 449.593 185.917 453.753 186.112C450.079 167.155 440.899 149.054 426.219 134.375C425.644 133.8 425.059 133.23 424.472 132.671C423.055 132.819 421.641 132.998 420.237 133.181C417.797 133.503 415.165 133.929 413.454 135.699C409.613 139.667 413.265 146.493 411.493 151.724C409.145 158.655 398.675 159.732 395.861 166.487C394.772 164.046 390.93 164.248 389.075 166.171C387.219 168.095 386.746 170.913 386.111 173.508C385.477 176.103 384.37 178.912 381.945 180.028C380.692 180.607 379.27 180.638 377.89 180.659C374.383 180.715 370.875 180.774 367.368 180.829C370.464 183.703 367.204 189.626 363.006 191.287C358.614 193.022 353.294 192.911 349.861 196.152C345.005 200.736 348.642 210.625 355.311 210.971C357.77 211.098 360.204 210.17 362.657 210.393C365.11 210.615 367.726 212.87 366.873 215.181C366.539 216.081 365.762 216.734 364.995 217.312C358.732 222.032 350.971 224.732 343.13 224.921C338.191 225.038 332.985 224.237 328.513 226.331C320.662 230.006 317.823 241.336 309.373 243.263C304.727 244.324 299.989 242.044 295.225 241.979C285.191 241.846 277.852 251.069 272.423 259.51C272.173 259.9 271.919 260.293 271.662 260.686C275.303 266.17 279.54 271.378 284.375 276.213C323.542 315.38 387.046 315.38 426.216 276.213C436.052 266.377 443.416 255.007 448.31 242.873C443.116 226.987 426.157 212.456 428.842 195.416Z" fill="#010101"/>
</g>
<g opacity="0.04">
<path opacity="0.04" d="M448.944 241.255C448.025 239.687 446.782 238.394 445.09 237.615C441.279 235.858 436.84 237.488 432.646 237.389C425.514 237.219 418.978 231.215 418.208 224.123C417.92 221.469 418.344 218.735 417.664 216.155C416.556 211.958 412.662 208.961 408.505 207.711C404.348 206.461 399.916 206.659 395.579 206.87C393.621 206.966 391.184 207.423 390.686 209.319C390.414 210.349 390.868 211.413 391.24 212.409C394.02 219.888 392.458 228.196 390.868 236.013C390.457 238.042 390.002 240.154 388.706 241.766C386.77 244.169 383.461 244.883 380.405 245.332C373.659 246.328 366.535 246.761 360.232 244.157C353.928 241.555 348.747 235.131 349.61 228.366C350.009 225.227 351.627 222.329 351.952 219.18C352.276 216.031 350.51 212.196 347.346 212.091C345.261 212.02 343.532 213.572 341.813 214.754C337.523 217.708 331.581 218.648 327.046 216.087C322.509 213.526 320.316 207.024 323.236 202.71C324.507 200.832 326.623 199.338 326.892 197.086C327.034 195.908 326.613 194.723 325.989 193.718C321.256 186.1 309.172 189.941 301.068 186.1C293.771 182.642 290.907 173.496 284.192 169.014C277.935 164.838 269.383 165.608 262.664 168.992C262.287 169.184 261.916 169.382 261.545 169.586C249.16 202.162 254.357 239.894 277.134 268.146C285.371 268.152 293.774 267.565 301.089 271.026C305.655 273.185 309.373 276.748 313.1 280.153C320.368 286.794 327.99 293.048 335.917 298.882C338.806 301.007 341.748 303.082 344.766 305.028C373.82 308.074 403.946 298.474 426.213 276.21C436.488 265.944 444.06 253.996 448.944 241.255Z" fill="#010101"/>
</g>
</g>
<path d="M100.146 180.573C98.2994 180.973 97.9754 181.299 97.5731 183.146C97.1735 181.299 96.8468 180.975 95 180.573C96.8468 180.173 97.1708 179.847 97.5731 178C97.9754 179.849 98.2994 180.173 100.146 180.573Z" fill="white"/>
<path d="M432.241 31.1205C431.436 31.296 431.293 31.4364 431.121 32.241C430.945 31.4364 430.805 31.2933 430 31.1205C430.805 30.945 430.948 30.8046 431.121 30C431.293 30.8046 431.436 30.9477 432.241 31.1205Z" fill="white"/>
<path d="M183.241 25.1205C182.436 25.296 182.293 25.4364 182.121 26.241C181.945 25.4364 181.805 25.2933 181 25.1205C181.805 24.945 181.948 24.8046 182.121 24C182.296 24.8046 182.436 24.9477 183.241 25.1205Z" fill="white"/>
<path d="M468.241 86.1205C467.436 86.296 467.293 86.4364 467.121 87.241C466.945 86.4364 466.805 86.2933 466 86.1205C466.805 85.945 466.948 85.8046 467.121 85C467.296 85.8019 467.436 85.945 468.241 86.1205Z" fill="white"/>
<path d="M144.241 183.12C143.436 183.296 143.293 183.436 143.121 184.241C142.945 183.436 142.805 183.293 142 183.12C142.805 182.945 142.948 182.805 143.121 182C143.296 182.802 143.436 182.945 144.241 183.12Z" fill="white"/>
<path d="M50.1462 174.573C48.2994 174.973 47.9754 175.299 47.5731 177.146C47.1735 175.299 46.8468 174.975 45 174.573C46.8468 174.173 47.1708 173.847 47.5731 172C47.9727 173.847 48.2994 174.171 50.1462 174.573Z" fill="white"/>
<path d="M482.146 156.573C480.299 156.973 479.975 157.299 479.573 159.146C479.174 157.299 478.847 156.975 477 156.573C478.847 156.173 479.171 155.847 479.573 154C479.975 155.849 480.299 156.173 482.146 156.573Z" fill="white"/>
<path d="M32.1462 106.573C30.2994 106.973 29.9754 107.299 29.5731 109.146C29.1735 107.299 28.8468 106.975 27 106.573C28.8468 106.174 29.1708 105.847 29.5731 104C29.9754 105.85 30.2994 106.174 32.1462 106.573Z" fill="white"/>
<path d="M217.241 178.121C216.436 178.296 216.293 178.436 216.12 179.241C215.945 178.436 215.805 178.293 215 178.121C215.805 177.945 215.948 177.805 216.12 177C216.293 177.805 216.436 177.948 217.241 178.121Z" fill="white"/>
<path d="M59.241 26.1205C58.4364 26.296 58.2933 26.4364 58.1205 27.241C57.945 26.4364 57.8046 26.2933 57 26.1205C57.8046 25.945 57.9477 25.8046 58.1205 25C58.2933 25.8046 58.4364 25.9477 59.241 26.1205Z" fill="white"/>
<path d="M349.241 25.1205C348.436 25.296 348.293 25.4364 348.12 26.241C347.945 25.4364 347.805 25.2933 347 25.1205C347.805 24.945 347.948 24.8046 348.12 24C348.293 24.8046 348.436 24.9477 349.241 25.1205Z" fill="white"/>
<path d="M249.241 115.12C248.436 115.296 248.293 115.436 248.12 116.241C247.945 115.436 247.805 115.293 247 115.12C247.805 114.945 247.948 114.805 248.12 114C248.296 114.805 248.436 114.945 249.241 115.12Z" fill="white"/>
<path d="M270.241 42.1205C269.436 42.296 269.293 42.4364 269.12 43.241C268.945 42.4364 268.805 42.2933 268 42.1205C268.805 41.945 268.948 41.8046 269.12 41C269.296 41.8046 269.436 41.945 270.241 42.1205Z" fill="white"/>
<path d="M76 97.2818C81.855 97.1963 87.71 97.158 93.5679 97.0932L111.136 96.9871C116.991 96.9399 122.846 96.9488 128.701 96.9311L146.269 96.8987L163.836 96.9311C169.694 96.9488 175.549 96.9311 181.404 96.9871L198.972 97.0932C204.827 97.158 210.685 97.1963 216.54 97.2818C210.685 97.3701 204.827 97.4085 198.972 97.4703L181.404 97.5794C175.549 97.6265 169.694 97.6147 163.836 97.6324L146.269 97.6678L128.701 97.6324C122.846 97.6147 116.991 97.6324 111.136 97.5764L93.5679 97.4703C87.7011 97.4055 81.855 97.3701 76 97.2818Z" fill="white"/>
<path d="M164.983 91.6213H122.566V102.942H164.983V91.6213Z" fill="#131234"/>
<path d="M126.832 98.1068L127.342 95.5433C127.393 95.1564 127.587 94.8027 127.886 94.5522C128.185 94.3017 128.567 94.1727 128.957 94.1908C129.15 94.18 129.344 94.215 129.521 94.293C129.699 94.3709 129.855 94.4897 129.978 94.6396C130.101 94.7895 130.187 94.9662 130.228 95.1555C130.27 95.3448 130.267 95.5412 130.218 95.7289L130.106 96.2652H129.249L129.384 95.611C129.409 95.535 129.414 95.4541 129.399 95.3756C129.384 95.2971 129.35 95.2235 129.3 95.1615C129.25 95.0995 129.185 95.051 129.111 95.0204C129.037 94.9898 128.957 94.9781 128.877 94.9863C128.705 94.9803 128.537 95.0399 128.408 95.1532C128.278 95.2665 128.196 95.4249 128.179 95.5963L127.675 98.2335C127.65 98.3092 127.644 98.39 127.658 98.4685C127.672 98.547 127.706 98.6207 127.756 98.6827C127.807 98.7446 127.872 98.7929 127.946 98.8231C128.019 98.8533 128.1 98.8644 128.179 98.8553C128.351 98.8584 128.517 98.7967 128.646 98.6826C128.774 98.5685 128.854 98.4103 128.871 98.2394L128.998 97.5705H129.859L129.717 98.2984C129.663 98.6843 129.468 99.0365 129.169 99.2865C128.87 99.5364 128.489 99.6663 128.099 99.6509C127.905 99.663 127.71 99.6286 127.531 99.5508C127.353 99.4729 127.195 99.3536 127.071 99.2029C126.947 99.0521 126.861 98.8742 126.82 98.6836C126.778 98.4931 126.783 98.2954 126.832 98.1068Z" fill="white"/>
<path d="M130.345 98.2395L130.581 97.0078C130.746 96.1591 131.258 95.6788 132.007 95.6788C132.841 95.6788 133.262 96.2416 133.1 97.0903L132.861 98.322C132.699 99.1618 132.192 99.6509 131.444 99.6509C130.61 99.6509 130.18 99.0881 130.345 98.2395ZM132.036 98.2837L132.299 96.9547C132.372 96.6276 132.222 96.442 131.942 96.442C131.662 96.442 131.488 96.6365 131.406 97.0313L131.152 98.3544C131.087 98.6756 131.229 98.8759 131.503 98.8759C131.777 98.8759 131.963 98.6874 132.036 98.2748V98.2837Z" fill="white"/>
<path d="M136.294 97.0578L135.811 99.5477H134.986L135.484 96.9783C135.549 96.6364 135.425 96.4508 135.133 96.4508C135.009 96.4539 134.89 96.5 134.797 96.5812C134.703 96.6624 134.641 96.7736 134.62 96.8957L134.108 99.5477H133.286L134.019 95.7819H134.511L134.585 95.9734C134.804 95.7806 135.086 95.6756 135.378 95.6788C136.085 95.6788 136.465 96.1738 136.294 97.0578Z" fill="white"/>
<path d="M139.509 97.0578L139.026 99.5478H138.201L138.699 96.9783C138.766 96.6365 138.64 96.4508 138.348 96.4508C138.224 96.4535 138.106 96.4995 138.012 96.5808C137.919 96.6621 137.858 96.7736 137.838 96.8958L137.326 99.5478H136.5L137.234 95.782H137.726L137.8 95.9735C138.019 95.7799 138.303 95.6749 138.596 95.6788C139.3 95.6788 139.68 96.1739 139.509 97.0578Z" fill="white"/>
<path d="M142.656 97.0962L142.5 97.9183H140.808L140.717 98.3721C140.652 98.708 140.785 98.9084 141.053 98.9084C141.321 98.9084 141.507 98.708 141.58 98.2984H142.426C142.264 99.1824 141.742 99.6568 140.994 99.6568C140.16 99.6568 139.73 99.0852 139.901 98.2454L140.139 97.0137C140.302 96.165 140.814 95.6847 141.566 95.6847C142.397 95.6788 142.821 96.2417 142.656 97.0962ZM141.772 97.2582L141.831 96.9636C141.899 96.6218 141.763 96.4361 141.498 96.4361C141.233 96.4361 141.05 96.6365 140.97 97.0461L140.923 97.2612L141.772 97.2582Z" fill="white"/>
<path d="M143.012 98.2336L143.251 97.0078C143.413 96.1591 143.911 95.6788 144.648 95.6788C145.455 95.6788 145.879 96.2269 145.723 97.0431L145.679 97.2818H144.866L144.939 96.9194C145.001 96.6247 144.851 96.442 144.592 96.442C144.332 96.442 144.167 96.6365 144.088 97.0313L143.834 98.3603C143.767 98.6815 143.899 98.8818 144.161 98.8818C144.424 98.8818 144.592 98.6962 144.665 98.3249L144.718 98.0303H145.549L145.482 98.3426C145.325 99.1588 144.822 99.6332 144.094 99.6332C143.272 99.6509 142.85 99.0881 143.012 98.2336Z" fill="white"/>
<path d="M147.179 98.0773C147.076 98.6401 147.179 98.7816 147.559 98.7816H147.774L147.633 99.5477H147.141C146.451 99.5477 146.162 99.1469 146.354 98.1421L146.666 96.548H146.183L146.325 95.7819H146.817L147.032 94.6975H147.854L147.639 95.7819H148.302L148.16 96.548H147.483L147.179 98.0773Z" fill="white"/>
<path d="M154.139 95.782L152.616 99.5478H151.903L151.746 97.5352L150.803 99.5478H150.067L150.008 95.782H150.839L150.765 98.434L151.77 95.782H152.359V98.434L153.282 95.782H154.139Z" fill="white"/>
<path d="M154.59 95.7819H155.412L154.678 99.5477H153.853L154.59 95.7819ZM154.84 94.3705H155.689L155.518 95.2692H154.663L154.84 94.3705Z" fill="white"/>
<path d="M156.714 98.0773C156.611 98.6401 156.714 98.7816 157.091 98.7816H157.309L157.168 99.5477H156.676C155.986 99.5477 155.698 99.1469 155.889 98.1421L156.202 96.548H155.718L155.86 95.7819H156.358L156.573 94.6975H157.398L157.183 95.7819H157.831L157.693 96.548H157.015L156.714 98.0773Z" fill="white"/>
<path d="M160.651 97.0579L160.188 99.5478H159.357L159.861 96.9783C159.929 96.6365 159.802 96.4509 159.505 96.4509C159.388 96.4518 159.275 96.4927 159.185 96.5667C159.095 96.6407 159.033 96.7433 159.01 96.8575L158.482 99.5478H157.657L158.771 93.8284H159.596L159.21 95.8026C159.381 95.7199 159.568 95.6775 159.758 95.6789C160.451 95.6789 160.828 96.1739 160.651 97.0579Z" fill="white"/>
<g clip-path="url(#clip0)">
<path d="M188.9 74.6322L187.774 75.3136C187.694 75.2332 187.613 75.1105 187.49 74.9877L188.506 72.1224C187.66 71.9616 187.258 73.3286 187.016 74.5857C186.407 74.0566 185.721 73.5699 185.285 73.2186C185.285 72.5668 185.12 72.3721 184.473 72.77C184.473 72.2028 184.231 71.678 184.231 71.1913C184.231 70.7046 185.04 70.2305 185.04 69.3375C185.04 66.6753 188.003 59.9289 190.119 56.3821C189.429 56.3017 187.414 57.3979 186.28 57.9947C184.71 56.3821 183.533 52.992 185.67 52.4248C188.578 51.6545 191.443 49.7203 194.432 48.9077C195.264 48.9661 196.081 49.1576 196.852 49.4749C197.233 50.7215 197.477 52.0058 197.58 53.3052C194.076 62.1932 191.278 64.8681 188.9 74.6322Z" fill="white"/>
<path d="M197.784 75.6438L195.566 73.1043L195.968 72.5753C194.956 70.3575 196.616 67.4117 198.186 67.4117C199.485 67.4117 200.852 69.4391 201.457 71.6865C200.722 73.3874 199.425 74.7844 197.784 75.6438Z" fill="white"/>
<path d="M217.371 54.122C216.981 54.4179 216.668 54.8029 216.458 55.2448C216.249 55.6867 216.148 56.1726 216.165 56.6615L216.774 59.5691C217.096 61.351 219.072 61.4737 220.825 62.3541C221.842 63.9296 222.364 65.7738 222.323 67.6488C222.2 70.5861 218.158 73.1509 214.281 74.5053C212.881 74.6105 211.476 74.3796 210.184 73.8318C208.891 73.2841 207.748 72.4354 206.849 71.3564C206.87 71.1679 206.87 70.9777 206.849 70.7892L208.305 71.5172C208.022 70.7892 207.416 70.5057 206.769 70.0316C206.748 69.7612 206.748 69.4895 206.769 69.219L207.861 68.2075L208.987 68.7323C209.998 69.219 209.41 70.2729 210.324 70.2729C210.608 70.2729 216.135 68.4487 216.499 64.703C215.691 62.3541 213.634 61.5541 211.374 60.1363L210.159 55.7812L207.861 56.0647C207.133 54.0374 208.305 52.7931 209.473 51.4556L210.565 51.2102C210.935 50.246 211.359 49.3034 211.835 48.3872C212.444 48.3872 212.766 48.2644 213.05 48.2644C213.333 48.2644 213.82 48.3872 214.7 49.0347L228.748 45.9958C229.415 46.1898 230.021 46.5527 230.508 47.0495C230.994 47.5462 231.344 48.16 231.524 48.8316C231.511 49.1317 231.396 49.4184 231.198 49.6442L231.888 51.2525C227.821 53.7284 220.913 53.4449 217.371 54.122ZM217.794 71.5638C216.833 71.5638 216.673 71.9277 215.771 73.1424L217.794 72.1309V71.5638ZM230.538 49.9193L228.422 50.6853L228.176 51.1086L230.64 50.351L230.538 49.9193Z" fill="white"/>
<path d="M126.188 49.9785C126.176 49.9624 126.162 49.9481 126.146 49.9362H126.083C125.604 49.8728 125.118 49.8728 124.639 49.9362C124.611 49.9418 124.585 49.955 124.563 49.9743C124.542 49.9922 124.526 50.0156 124.517 50.042L121.672 58.7523L118.981 50.042C118.972 50.0156 118.955 49.9922 118.934 49.9743C118.915 49.9488 118.888 49.9296 118.858 49.9193C118.603 49.8847 118.345 49.8691 118.088 49.8727C117.826 49.8712 117.564 49.8868 117.305 49.9193H117.245C117.235 49.9235 117.225 49.9298 117.217 49.9378C117.209 49.9458 117.203 49.9553 117.199 49.9658C117.195 49.9882 117.195 50.0112 117.199 50.0335C117.194 50.0436 117.192 50.0544 117.192 50.0653C117.192 50.0762 117.194 50.087 117.199 50.097L117.914 52.0778L118.337 53.3475L116.564 58.71L113.872 49.9997C113.862 49.9738 113.846 49.9506 113.826 49.932C113.804 49.9126 113.778 49.8995 113.749 49.8939C113.493 49.8593 113.234 49.8437 112.975 49.8473C112.715 49.8459 112.454 49.8615 112.196 49.8939H112.137C112.126 49.8981 112.117 49.9044 112.109 49.9124C112.101 49.9204 112.095 49.9299 112.09 49.9404C112.086 49.9628 112.086 49.9858 112.09 50.0081C112.086 50.0182 112.084 50.029 112.084 50.0399C112.084 50.0508 112.086 50.0616 112.09 50.0716L112.806 52.0524L115.713 61.0632C115.716 61.077 115.722 61.0901 115.73 61.1017C115.738 61.1134 115.748 61.1233 115.76 61.1309C115.783 61.1477 115.809 61.1606 115.836 61.169C116.077 61.2015 116.32 61.217 116.564 61.2155C116.803 61.2169 117.042 61.2013 117.279 61.169C117.307 61.1615 117.333 61.1485 117.355 61.1309C117.377 61.113 117.393 61.0896 117.402 61.0632L119.175 55.87L120.868 61.0632C120.877 61.0896 120.893 61.113 120.915 61.1309C120.94 61.1393 120.966 61.1393 120.991 61.1309C121.232 61.1683 121.475 61.1866 121.719 61.1859C121.958 61.1865 122.198 61.1681 122.434 61.1309C122.456 61.1394 122.48 61.1394 122.502 61.1309C122.526 61.1145 122.544 61.0907 122.553 61.0632L126.265 50.0589V49.9912L126.222 49.9574L126.188 49.9785Z" fill="white"/>
<path d="M132.207 50.0081C132.195 49.9846 132.179 49.9631 132.16 49.9446C132.14 49.9262 132.115 49.9132 132.088 49.9065C131.633 49.843 131.172 49.843 130.717 49.9065C130.69 49.9132 130.665 49.9262 130.645 49.9446C130.623 49.9598 130.606 49.9822 130.598 50.0081L126.683 61.0123C126.679 61.0347 126.679 61.0577 126.683 61.08C126.679 61.0996 126.679 61.1198 126.683 61.1393C126.695 61.1567 126.709 61.1724 126.726 61.1858H126.789C127.251 61.2493 127.72 61.2493 128.182 61.1858C128.207 61.1783 128.23 61.1653 128.249 61.1477C128.273 61.1314 128.291 61.1076 128.3 61.08L129.337 57.9988H133.375L134.433 61.08C134.44 61.1061 134.455 61.1296 134.475 61.1477C134.498 61.1646 134.524 61.1774 134.551 61.1858C135.022 61.2493 135.499 61.2493 135.969 61.1858H136.028C136.048 61.1737 136.065 61.1579 136.079 61.1393V61.0123L132.207 50.0081ZM132.922 56.6276H129.828L131.364 52.0693L132.922 56.6276Z" fill="white"/>
<path d="M142.686 56.6234C144.337 56.2848 145.171 55.3537 145.171 53.8258V52.9793C145.171 50.9096 143.761 49.9023 140.854 49.9023H137.637C137.598 49.9034 137.56 49.9184 137.531 49.9447C137.501 49.9753 137.485 50.0163 137.485 50.0589V61.0632C137.485 61.0985 137.497 61.1327 137.518 61.1605C137.541 61.188 137.573 61.2073 137.607 61.2155C138.062 61.279 138.524 61.279 138.979 61.2155C139.014 61.2094 139.046 61.1897 139.068 61.1605C139.094 61.1346 139.109 61.0998 139.11 61.0632V56.7884H140.947C141.991 58.1273 142.884 59.578 143.609 61.114C143.619 61.135 143.634 61.1537 143.651 61.169H143.715C144.198 61.2325 144.687 61.2325 145.171 61.169H145.234C145.256 61.1569 145.272 61.1374 145.281 61.114C145.285 61.0916 145.285 61.0686 145.281 61.0462C145.289 61.0245 145.289 61.0003 145.281 60.9785C144.57 59.4405 143.7 57.9809 142.686 56.6234ZM143.533 53.1867V53.6692C143.533 55.0913 142.5 55.3621 140.841 55.3621H139.068V51.3583H140.866C142.525 51.3583 143.558 51.6588 143.558 53.1782L143.533 53.1867Z" fill="white"/>
<path d="M151.583 49.9193H148.006C147.987 49.9153 147.967 49.9153 147.947 49.9193L147.901 49.9531C147.887 49.968 147.875 49.9851 147.867 50.0039C147.862 50.0234 147.862 50.0436 147.867 50.0632V61.0674C147.864 61.0871 147.864 61.107 147.867 61.1266C147.875 61.1456 147.888 61.1619 147.905 61.1732C147.917 61.1893 147.933 61.2024 147.951 61.2113C147.971 61.2153 147.991 61.2153 148.011 61.2113H151.591C152.685 61.2879 153.777 61.0469 154.736 60.5172C155.133 60.243 155.451 59.8694 155.659 59.4337C155.865 58.9985 155.955 58.5174 155.921 58.037V53.0766C155.917 50.9139 154.537 49.9193 151.583 49.9193ZM154.292 53.3052V57.8635C154.292 59.421 153.208 59.7342 151.583 59.7342H149.467V51.3667H151.583C153.255 51.3667 154.292 51.6884 154.292 53.2755V53.3052Z" fill="white"/>
<path d="M164.618 59.7807H159.984V56.1747H163.852C163.884 56.1739 163.915 56.1635 163.941 56.1451C163.97 56.1249 163.992 56.0948 164 56.0604C164.089 55.6718 164.089 55.2682 164 54.8796C163.992 54.8452 163.97 54.8151 163.941 54.7949C163.912 54.7863 163.881 54.7863 163.852 54.7949H159.984V51.3032H164.618C164.636 51.3033 164.653 51.3 164.669 51.2934C164.685 51.2869 164.699 51.2773 164.711 51.2651C164.737 51.2438 164.756 51.216 164.767 51.1847C164.851 50.7956 164.851 50.3929 164.767 50.0039C164.753 49.9727 164.735 49.944 164.711 49.9192C164.681 49.9107 164.649 49.9107 164.618 49.9192H158.503C158.463 49.9203 158.426 49.9353 158.397 49.9615C158.382 49.9758 158.37 49.9929 158.362 50.0118C158.354 50.0307 158.35 50.051 158.35 50.0716V61.0758C158.346 61.0953 158.346 61.1155 158.35 61.1351C158.359 61.1522 158.37 61.1679 158.384 61.1816C158.397 61.1981 158.415 61.2099 158.435 61.2155C158.453 61.2194 158.472 61.2194 158.49 61.2155H164.606C164.636 61.224 164.668 61.224 164.699 61.2155C164.722 61.1922 164.74 61.165 164.754 61.1351C164.838 60.746 164.838 60.3433 164.754 59.9542C164.742 59.9226 164.721 59.8949 164.695 59.8738C164.689 59.8512 164.677 59.8307 164.661 59.8146C164.655 59.8048 164.647 59.7964 164.637 59.7898C164.628 59.7833 164.617 59.7787 164.606 59.7765L164.618 59.7807Z" fill="white"/>
<path d="M176.169 49.9192C175.944 49.8888 175.718 49.8733 175.492 49.8727C175.261 49.8734 175.03 49.889 174.802 49.9192C174.765 49.9261 174.732 49.9455 174.708 49.974C174.684 50.0026 174.671 50.0386 174.671 50.0758V58.5999L169.719 49.9954C169.707 49.9767 169.693 49.9596 169.676 49.9446H169.613C169.104 49.8769 168.589 49.8769 168.081 49.9446C168.044 49.9491 168.011 49.9672 167.988 49.9954C167.963 50.0235 167.949 50.0596 167.949 50.097V61.1012C167.949 61.1386 167.963 61.1748 167.988 61.2028C168.011 61.231 168.044 61.2491 168.081 61.2536C168.534 61.3213 168.995 61.3213 169.448 61.2536C169.483 61.2471 169.516 61.2293 169.541 61.2028C169.563 61.1734 169.574 61.1378 169.575 61.1012V52.6915L174.442 61.1563L174.489 61.2028H174.552C174.823 61.238 175.096 61.2564 175.369 61.2578C175.636 61.2564 175.904 61.238 176.169 61.2028C176.204 61.1977 176.237 61.1814 176.262 61.1563C176.284 61.1268 176.295 61.0913 176.296 61.0547V50.0631C176.295 50.0266 176.284 49.991 176.262 49.9616C176.237 49.934 176.205 49.9148 176.169 49.9065V49.9192Z" fill="white"/>
<path d="M95.0503 68.6307C94.1192 72.2832 90.8179 75.3517 86.3442 76.9643V63.0397C86.3442 55.2521 90.4073 48.9331 95.6047 48.9331L95.2958 66.7769C95.287 67.4023 95.2046 68.0245 95.0503 68.6307Z" fill="white"/>
<path d="M62.567 68.6307C63.5066 72.2832 66.7994 75.3517 71.273 76.9643V63.0397C71.273 55.2521 67.2099 48.9331 62.021 48.9331L62.3215 66.7769C62.3289 67.3996 62.4113 68.0192 62.567 68.6222V68.6307Z" fill="white"/>
<path d="M78.8871 59.3152C78.8871 59.3152 83.8729 65.6299 83.8729 71.7373C83.8729 77.142 78.8871 79.0001 78.8871 79.0001C78.8871 79.0001 73.9014 77.142 73.9014 71.7373C73.9014 65.6299 78.8871 59.3152 78.8871 59.3152Z" fill="white"/>
<path d="M119.002 71.1913V71.6696C119.002 72.6473 118.27 73.2821 117.203 73.2821H114.516V66.8997H116.983C118.062 66.8997 118.795 67.416 118.795 68.3598V68.7831C118.802 69.006 118.751 69.227 118.647 69.4239C118.542 69.6208 118.387 69.7866 118.198 69.9047C118.442 70.0184 118.648 70.2005 118.791 70.4288C118.933 70.6572 119.007 70.9221 119.002 71.1913ZM115.311 67.6319V69.6169H117.004C117.61 69.6169 117.999 69.3798 117.999 68.7704V68.381C117.999 67.8477 117.61 67.6276 117.004 67.6276L115.311 67.6319ZM118.206 71.2082C118.206 70.6496 117.847 70.3406 117.22 70.3406H115.311V72.5499H117.212C117.847 72.5499 118.206 72.2325 118.206 71.6696V71.2082Z" fill="white"/>
<path d="M123.793 70.3023V71.225H120.733V71.4366C120.733 72.2831 121.114 72.7063 121.918 72.7063C122.578 72.7063 123.006 72.4101 123.006 71.8599V71.8048H123.776C123.776 72.8206 123.052 73.3835 121.935 73.3835C120.623 73.3835 119.971 72.5963 119.971 71.4197V70.5309C119.971 69.3543 120.644 68.584 121.893 68.584C123.061 68.5924 123.793 69.2823 123.793 70.3023ZM123.014 70.5732V70.3108C123.031 70.1645 123.013 70.0163 122.964 69.8778C122.914 69.7392 122.833 69.614 122.727 69.5117C122.621 69.4095 122.493 69.3329 122.353 69.288C122.212 69.2431 122.064 69.231 121.918 69.2527C121.097 69.2527 120.733 69.7056 120.733 70.5224V70.5563L123.014 70.5732Z" fill="white"/>
<path d="M124.644 71.8684V71.7796H125.405V71.86C125.405 72.3848 125.829 72.7065 126.544 72.7065C127.107 72.7065 127.551 72.4821 127.551 72.0547C127.551 70.9796 124.754 71.6314 124.754 69.9808C124.754 69.1343 125.431 68.5968 126.48 68.5968C127.602 68.5968 128.254 69.1936 128.254 70.0824V70.1713H127.496V70.0824C127.496 69.5914 127.141 69.2867 126.489 69.2867C125.837 69.2867 125.511 69.5576 125.511 69.93C125.511 70.9162 128.309 70.2898 128.309 71.9996C128.309 72.935 127.462 73.3963 126.51 73.3963C125.333 73.3921 124.644 72.7742 124.644 71.8684Z" fill="white"/>
<path d="M131.555 72.5497V73.2819H130.992C129.968 73.2819 129.456 72.791 129.456 71.699V69.4347H128.838V68.7109H129.439V67.3693H130.205V68.7109H131.475V69.4347H130.205V71.5255C130.205 72.2577 130.514 72.5497 131.14 72.5497H131.555Z" fill="white"/>
<path d="M139.038 68.5842V69.2825C139.038 70.3237 138.331 70.9755 137.091 70.9755H135.398V73.2948H134.598V66.8997H137.099C138.327 66.8997 139.038 67.5345 139.038 68.5842ZM138.251 68.5842C138.251 67.9789 137.887 67.653 137.138 67.653H135.364V70.1925H137.108C137.87 70.1925 138.234 69.875 138.234 69.2698L138.251 68.5842Z" fill="white"/>
<path d="M142.432 68.6391V69.3459C142.305 69.3158 142.174 69.3002 142.043 69.2993C141.889 69.2817 141.733 69.2974 141.586 69.3452C141.438 69.3931 141.303 69.4721 141.188 69.5768C141.074 69.6815 140.983 69.8095 140.923 69.9522C140.862 70.0949 140.833 70.249 140.837 70.404V73.282H140.071V68.711H140.604L140.756 69.1808C140.943 68.999 141.164 68.8566 141.407 68.7621C141.65 68.6675 141.91 68.6228 142.17 68.6306C142.25 68.6306 142.339 68.6306 142.432 68.6391Z" fill="white"/>
<path d="M143.338 67.0563H144.151V67.9959H143.338V67.0563ZM143.338 68.7111H144.109V73.2821H143.338V68.7111Z" fill="white"/>
<path d="M145.302 71.5045V70.4887C145.302 69.3121 145.971 68.5968 147.219 68.5968C148.396 68.5968 149.103 69.2867 149.103 70.3913V70.4802H148.332V70.3702C148.332 69.6845 147.935 69.329 147.219 69.329C146.432 69.329 146.072 69.7269 146.072 70.5352V71.4579C146.072 72.2621 146.424 72.6599 147.219 72.6599C147.926 72.6599 148.332 72.3086 148.332 71.6187V71.5045H149.103V71.5933C149.103 72.698 148.404 73.3879 147.219 73.3879C146.034 73.3879 145.302 72.6768 145.302 71.5045Z" fill="white"/>
<path d="M153.902 70.3023V71.225H150.842V71.4366C150.842 72.2831 151.223 72.7063 152.027 72.7063C152.687 72.7063 153.115 72.4101 153.115 71.8599V71.8048H153.881C153.881 72.8206 153.157 73.3835 152.044 73.3835C150.732 73.3835 150.08 72.5963 150.08 71.4197V70.5309C150.08 69.3543 150.749 68.584 152.002 68.584C153.166 68.5924 153.902 69.2823 153.902 70.3023ZM153.123 70.5732V70.3108C153.14 70.1645 153.123 70.0163 153.073 69.8778C153.023 69.7392 152.942 69.614 152.836 69.5117C152.73 69.4095 152.602 69.3329 152.462 69.288C152.322 69.2431 152.173 69.231 152.027 69.2527C151.202 69.2527 150.842 69.7056 150.842 70.5224V70.5563L153.123 70.5732Z" fill="white"/>
<path d="M156.996 71.4621V71.2166H157.796V71.5044C157.796 72.1816 158.41 72.643 159.387 72.643C160.365 72.643 160.898 72.2197 160.898 71.5383C160.898 69.875 157.144 70.7807 157.144 68.5248C157.144 67.5556 157.813 66.7769 159.315 66.7769C160.818 66.7769 161.559 67.5387 161.559 68.6179V68.8973H160.759V68.5883C160.759 67.9746 160.225 67.5387 159.303 67.5387C158.38 67.5387 157.927 67.9196 157.927 68.5079C157.927 69.9554 161.673 69.1682 161.681 71.5044C161.681 72.571 160.894 73.3963 159.358 73.3963C157.821 73.3963 156.996 72.5922 156.996 71.4621Z" fill="white"/>
<path d="M168.123 68.7111L166.955 73.282H166.168L165.19 70.2347L164.212 73.3032H163.425L162.257 68.7322H163.036L163.882 72.461L164.868 68.7322H165.495L166.481 72.4779L167.327 68.7322L168.123 68.7111Z" fill="white"/>
<path d="M172.576 68.7111V73.2821H172.043L171.899 72.8208C171.719 73.0183 171.497 73.1729 171.249 73.2732C171.002 73.3736 170.735 73.4171 170.468 73.4006C169.347 73.4006 168.686 72.8293 168.686 71.4707V70.5226C168.686 69.1555 169.347 68.5926 170.468 68.5926C170.735 68.5762 171.002 68.6197 171.249 68.72C171.497 68.8204 171.719 68.975 171.899 69.1725L172.043 68.7111H172.576ZM171.806 71.5638V70.421C171.809 70.2669 171.779 70.1139 171.719 69.9722C171.658 69.8305 171.568 69.7035 171.454 69.5996C171.34 69.4958 171.205 69.4175 171.058 69.3701C170.912 69.3227 170.757 69.3073 170.604 69.3248C169.833 69.3248 169.452 69.6973 169.452 70.5649V71.4114C169.452 72.2833 169.833 72.6811 170.604 72.6811C170.758 72.6983 170.915 72.6818 171.063 72.633C171.211 72.5841 171.346 72.5039 171.461 72.3978C171.575 72.2918 171.664 72.1624 171.724 72.0184C171.784 71.8745 171.811 71.7194 171.806 71.5638Z" fill="white"/>
<path d="M177.79 70.5224V71.4705C177.79 72.8376 177.121 73.4005 176 73.4005C175.756 73.4146 175.513 73.3791 175.284 73.2961C175.054 73.2132 174.844 73.0845 174.666 72.918V75.3643H173.9V68.711H174.434L174.578 69.1638C174.757 68.9688 174.978 68.8163 175.224 68.7175C175.47 68.6186 175.735 68.5759 176 68.5925C177.121 68.5925 177.79 69.1554 177.79 70.5224ZM177.02 70.5648C177.02 69.6971 176.643 69.3247 175.864 69.3247C175.718 69.3077 175.57 69.3209 175.429 69.3636C175.288 69.4062 175.157 69.4774 175.045 69.5726C174.933 69.6679 174.841 69.7852 174.776 69.9173C174.711 70.0493 174.674 70.1934 174.666 70.3405V71.6525C174.674 71.7994 174.711 71.9433 174.776 72.0752C174.841 72.2071 174.933 72.3241 175.045 72.419C175.158 72.5139 175.288 72.5847 175.429 72.6268C175.57 72.669 175.718 72.6817 175.864 72.664C176.643 72.664 177.02 72.2958 177.02 71.3943V70.5648Z" fill="white"/>
<path d="M102.86 63.4629C103.109 64.9019 102.479 67.6318 103.177 68.4953C103.6 69.0008 103.85 69.6287 103.891 70.2867C103.931 70.9448 103.76 71.5985 103.401 72.152C103.287 72.3467 103.177 72.5499 103.05 72.7446C102.586 73.3958 101.948 73.9032 101.209 74.209C100.411 74.5991 99.5521 74.8496 98.6695 74.9497C98.2886 74.992 97.895 74.9497 97.5183 75.0047C95.7298 75.1571 93.9316 75.1571 92.1432 75.0047C92.0072 75.0139 91.8715 74.9827 91.7532 74.9149C91.6349 74.8471 91.5394 74.7458 91.4787 74.6238C91.3682 74.3377 91.2805 74.0433 91.2163 73.7434C91.157 73.4725 91.1062 73.2017 91.0724 72.9266C91.0617 72.7239 91.0405 72.5218 91.0089 72.3213C90.9827 72.226 90.9671 72.1281 90.9623 72.0293C90.9531 71.6749 90.963 71.3203 90.9919 70.967C91.0173 70.6876 91.1274 70.1205 91.4152 69.9893C91.5321 69.9511 91.6581 69.9511 91.7749 69.9893C91.9636 70.0152 92.1419 70.0912 92.2913 70.2094C92.3757 70.3053 92.4469 70.412 92.5029 70.5268C92.6809 70.863 92.9651 71.1309 93.3113 71.2886C93.4842 71.3644 93.6735 71.395 93.8615 71.3775C94.05 71.3575 94.2304 71.2905 94.3863 71.1828C94.9196 70.7596 94.5979 70.0189 94.5853 69.4645C94.5369 68.3149 94.6379 67.164 94.8858 66.0405C95.1101 65.0755 95.4487 63.8396 96.2824 63.209" fill="white"/>
<path d="M102.86 63.4629C103.109 64.9019 102.479 67.6318 103.177 68.4953C103.6 69.0008 103.85 69.6287 103.891 70.2867C103.931 70.9448 103.76 71.5985 103.401 72.152C103.287 72.3467 103.177 72.5499 103.05 72.7446C102.586 73.3958 101.948 73.9032 101.209 74.209C100.411 74.5991 99.5521 74.8496 98.6695 74.9497C98.2886 74.992 97.895 74.9497 97.5183 75.0047C95.7298 75.1571 93.9316 75.1571 92.1432 75.0047C92.0072 75.0139 91.8715 74.9827 91.7532 74.9149C91.6349 74.8471 91.5394 74.7458 91.4787 74.6238C91.3682 74.3377 91.2805 74.0433 91.2163 73.7434C91.157 73.4725 91.1062 73.2017 91.0724 72.9266C91.0617 72.7239 91.0405 72.5218 91.0089 72.3213C90.9827 72.226 90.9671 72.1281 90.9623 72.0293C90.9531 71.6749 90.963 71.3203 90.9919 70.967C91.0173 70.6876 91.1274 70.1205 91.4152 69.9893C91.5321 69.9511 91.6581 69.9511 91.7749 69.9893C91.9636 70.0152 92.1419 70.0912 92.2913 70.2094C92.3757 70.3053 92.4469 70.412 92.5029 70.5268C92.6809 70.863 92.9651 71.1309 93.3113 71.2886C93.4842 71.3644 93.6735 71.395 93.8615 71.3775C94.05 71.3575 94.2304 71.2905 94.3863 71.1828C94.9196 70.7596 94.5979 70.0189 94.5853 69.4645C94.5369 68.3149 94.6379 67.164 94.8858 66.0405C95.1101 65.0755 95.4487 63.8396 96.2824 63.209" stroke="#202251" stroke-width="0.266641" stroke-miterlimit="10"/>
<path d="M96.24 63.6999C92.689 62.828 93.1969 61.5033 93.2561 59.1458C93.2971 57.5047 93.9883 55.9471 95.1777 54.8156C96.3671 53.6842 97.9573 53.0716 99.5984 53.1125C101.239 53.1535 102.797 53.8447 103.929 55.0341C105.06 56.2235 105.673 57.8137 105.632 59.4548C105.608 60.4485 105.339 61.4209 104.849 62.2856C104.358 63.1503 103.662 63.8804 102.821 64.4109" fill="white"/>
<path d="M96.24 63.6999C92.689 62.828 93.1969 61.5033 93.2561 59.1458C93.2971 57.5047 93.9883 55.9471 95.1777 54.8156C96.3671 53.6842 97.9573 53.0716 99.5984 53.1125C101.239 53.1535 102.797 53.8447 103.929 55.0341C105.06 56.2235 105.673 57.8137 105.632 59.4548C105.608 60.4485 105.339 61.4209 104.849 62.2856C104.358 63.1503 103.662 63.8804 102.821 64.4109" stroke="#202251" stroke-width="0.253944" stroke-linecap="round" stroke-linejoin="round"/>
<path d="M93.1633 59.3193C93.2268 56.9153 94.433 55.7048 96.1641 55.5948C101.988 55.2308 101.937 57.3597 101.285 59.9034C100.689 62.2269 97.5481 63.3274 95.8086 63.1835C92.9094 62.938 93.1041 61.7233 93.1633 59.3193Z" fill="#202251"/>
<path d="M94.3862 55.6413C94.3862 55.6413 96.5743 53.8299 99.9899 55.1546C101.835 55.8656 103.799 58.5024 101.154 61.7275C99.1392 64.1908 94.2253 62.883 94.2253 62.883" stroke="#202251" stroke-width="0.215852" stroke-miterlimit="10"/>
<path d="M98.5891 59.0442C98.0262 59.8907 95.6772 59.0019 94.4329 59.1923C95.5203 58.6362 96.5306 57.9404 97.4379 57.1227C98.2843 56.4582 98.9488 57.1565 100.219 56.8179C101.488 56.4794 101.065 56.1196 102.026 55.2816C102.809 54.6129 104.751 54.4351 105.628 54.4012C104.84 54.584 104.085 54.8851 103.389 55.2943C102.665 55.8149 102.627 57.0634 101.171 57.5671C99.7149 58.0707 99.2959 57.9946 98.5891 59.0442Z" fill="white" stroke="#202251" stroke-width="0.203155" stroke-linejoin="round"/>
<path d="M99.7149 65.5112C99.7149 65.5112 95.8464 63.3061 93.4848 63.577C91.8172 63.7675 92.0881 65.2488 92.2828 65.7863C92.6298 66.7344 95.9099 68.0887 98.9657 68.1565" fill="white"/>
<path d="M99.7149 65.5112C99.7149 65.5112 95.8464 63.3061 93.4848 63.577C91.8172 63.7675 92.0881 65.2488 92.2828 65.7863C92.6298 66.7344 95.9099 68.0887 98.9657 68.1565" stroke="#202251" stroke-width="0.19469" stroke-miterlimit="10"/>
<path d="M97.3914 67.9872C97.3914 67.9872 99.3552 66.0869 98.6315 64.9865" stroke="#202251" stroke-width="0.215852" stroke-miterlimit="10"/>
<path d="M95.7236 67.6275C95.7236 67.6275 97.8398 65.4055 97.1161 64.3093" stroke="#202251" stroke-width="0.215852" stroke-miterlimit="10"/>
<path d="M93.9631 67.0097C93.9631 67.0097 96.1513 64.83 95.436 63.7296" stroke="#202251" stroke-width="0.215852" stroke-miterlimit="10"/>
<path d="M93.0108 65.7738C91.8935 66.7176 90.92 65.8796 90.8269 65.4479C90.5645 64.2459 89.5233 64.2543 90.0355 63.1412C90.5476 62.0281 91.538 61.5921 92.6553 62.1043C92.9834 62.2627 93.2667 62.5005 93.4795 62.7961C93.6924 63.0918 93.8281 63.4359 93.8742 63.7972" fill="white"/>
<path d="M93.0108 65.7738C91.8935 66.7176 90.92 65.8796 90.8269 65.4479C90.5645 64.2459 89.5233 64.2543 90.0355 63.1412C90.5476 62.0281 91.538 61.5921 92.6553 62.1043C92.9834 62.2627 93.2667 62.5005 93.4795 62.7961C93.6924 63.0918 93.8281 63.4359 93.8742 63.7972" stroke="#202251" stroke-width="0.245479" stroke-linecap="round" stroke-linejoin="round"/>
<path d="M106.389 59.3996C106.389 58.532 106.25 57.8252 104.857 57.7913C103.587 57.7617 103.27 58.4558 103.249 59.3234C103.228 60.1911 103.52 60.8598 104.781 60.936C106.161 61.0079 106.368 60.2673 106.389 59.3996Z" fill="white" stroke="#202251" stroke-width="0.304733" stroke-miterlimit="10"/>
<path d="M93.4255 75.0765L93.0234 70.933" stroke="#202251" stroke-width="0.177761" stroke-miterlimit="10"/>
</g>
<g clip-path="url(#clip1)">
<path d="M107.268 121.192C107.172 121.173 107.075 121.161 106.978 121.156C101.524 121.156 96.0693 121.156 90.615 121.156C90.098 121.156 90.098 121.461 90.0205 121.745C89.7103 123.167 89.4311 124.594 89.1312 126.021C87.8904 131.997 86.6479 137.975 85.4037 143.955C85.3054 144.431 85.1245 144.653 84.5403 144.669C78.3363 144.803 72.1064 144.762 65.8921 144.741C65.1942 144.741 65.0442 145.015 64.9615 145.61C64.6823 147.569 64.3825 149.529 64.0258 151.473C63.9275 152.015 64.0981 152.17 64.5686 152.191C65.6026 152.238 66.6107 152.315 67.6344 152.315C75.255 152.315 82.8773 152.324 90.5013 152.341C90.8942 152.341 91.0596 152.258 91.1527 151.824C91.8351 148.489 92.5744 145.165 93.2775 141.836C93.3913 141.319 93.5671 141.029 94.2237 141.045C96.2917 141.107 98.3183 141.071 100.366 141.045C100.619 141.045 100.914 141.164 101.007 140.703C101.456 138.449 101.942 136.206 102.428 133.9H94.994C95.3662 132.168 95.7488 130.503 96.0642 128.823C96.1521 128.347 96.3485 128.306 96.7466 128.306C99.5591 128.306 102.372 128.306 105.179 128.306C105.592 128.306 105.784 128.239 105.877 127.753C106.301 125.566 106.792 123.389 107.268 121.192ZM79.241 142.311V142.234H82.3844C82.6842 142.234 82.8083 142.151 82.8704 141.805C83.1134 140.491 83.4339 139.189 83.6924 137.875C84.7677 132.509 85.8173 127.132 86.9133 121.771C87.0063 121.321 86.8719 121.3 86.5411 121.254C84.3593 121.071 82.1657 121.08 79.9855 121.28C79.6081 121.311 79.6081 121.569 79.5564 121.797C78.8671 125.299 78.1777 128.8 77.4884 132.302C76.8887 135.368 76.3252 138.444 75.6944 141.51C75.5497 142.218 75.9064 142.275 76.4027 142.275C77.3333 142.316 78.2897 142.311 79.241 142.311ZM69.4956 142.311V142.234H72.7837C73.0836 142.234 73.2128 142.151 73.3007 141.805C74.2261 137.152 75.1774 132.499 76.1235 127.846C76.2011 127.458 76.1235 127.303 75.6737 127.329C73.554 127.329 71.4343 127.329 69.3147 127.329C68.9993 127.329 68.8752 127.391 68.7977 127.727C68.5753 128.854 68.2807 129.971 68.0428 131.092C67.3035 134.582 66.4918 138.056 65.8094 141.567C65.6853 142.213 65.9387 142.332 66.435 142.342C67.4483 142.322 68.4719 142.311 69.4956 142.311ZM99.3988 114.006C96.9637 114.006 94.5856 114.006 92.2074 114.006C91.9282 114.006 91.7576 114.068 91.6904 114.373C91.4112 115.924 91.1217 117.521 90.8425 119.098C90.7856 119.419 90.8425 119.615 91.2613 119.615C93.5016 119.594 95.7419 119.594 97.9822 119.615C98.3286 119.615 98.3855 119.496 98.4372 119.176C98.7371 117.454 99.0731 115.753 99.3988 114.006Z" fill="white"/>
<path d="M107.268 121.191C106.792 123.389 106.301 125.565 105.877 127.752C105.784 128.238 105.592 128.311 105.179 128.305C102.372 128.305 99.5591 128.305 96.7466 128.305C96.3485 128.305 96.1521 128.352 96.0642 128.822C95.7488 130.503 95.3662 132.167 94.994 133.899H102.428C101.942 136.205 101.456 138.449 101.007 140.703C100.914 141.163 100.619 141.044 100.366 141.044C98.2976 141.044 96.271 141.086 94.2237 141.044C93.5671 141.044 93.3913 141.303 93.2775 141.835C92.5744 145.165 91.8351 148.489 91.1527 151.824C91.0596 152.263 90.8942 152.341 90.5013 152.341C82.8807 152.341 75.2584 152.332 67.6344 152.315C66.6004 152.315 65.5923 152.237 64.5686 152.191C64.0981 152.191 63.9275 152.015 64.0258 151.472C64.3825 149.528 64.6823 147.569 64.9615 145.609C65.0442 145.015 65.1942 144.741 65.8921 144.741C72.0961 144.741 78.3001 144.803 84.5403 144.668C85.1245 144.668 85.3054 144.431 85.4037 143.955C86.6445 137.978 87.887 132 89.1312 126.02C89.4311 124.593 89.7103 123.166 90.0205 121.745C90.0877 121.46 90.1083 121.155 90.615 121.155C96.0693 121.186 101.524 121.155 106.978 121.155C107.075 121.161 107.172 121.173 107.268 121.191Z" fill="white"/>
<path d="M79.2412 142.311C78.2899 142.311 77.3335 142.311 76.3822 142.311C75.8652 142.311 75.5292 142.254 75.6739 141.546C76.3047 138.48 76.8682 135.404 77.4679 132.338C78.1572 128.833 78.8466 125.331 79.5359 121.833C79.5876 121.584 79.5876 121.316 79.965 121.316C82.1453 121.116 84.3388 121.107 86.5206 121.29C86.8514 121.321 86.9859 121.341 86.8928 121.807C85.7968 127.168 84.7473 132.545 83.6719 137.911C83.4134 139.224 83.0929 140.527 82.8499 141.84C82.7878 142.187 82.6638 142.269 82.3639 142.269H79.2205L79.2412 142.311Z" fill="white"/>
<path d="M69.4957 142.311C68.4617 142.311 67.4277 142.311 66.4247 142.311C65.9077 142.311 65.675 142.182 65.7991 141.535C66.4609 138.025 67.2932 134.551 68.0326 131.061C68.2755 129.939 68.5496 128.822 68.7874 127.695C68.8546 127.359 68.9787 127.297 69.3044 127.297C71.4241 127.297 73.5438 127.297 75.6635 127.297C76.1029 127.297 76.1805 127.447 76.1132 127.814C75.1671 132.467 74.2159 137.12 73.2904 141.773C73.2232 142.12 73.094 142.207 72.7734 142.202H69.4853L69.4957 142.311Z" fill="white"/>
<path d="M99.3989 114.005C99.0732 115.753 98.7371 117.454 98.4476 119.175C98.3959 119.496 98.339 119.615 97.9927 119.615C95.7523 119.594 93.512 119.594 91.2717 119.615C90.8374 119.615 90.796 119.428 90.8529 119.098C91.1321 117.521 91.4216 115.949 91.7008 114.372C91.7525 114.067 91.9231 114.005 92.2178 114.005C94.5753 114.01 96.9638 114.005 99.3989 114.005Z" fill="white"/>
<path d="M108.203 138.614H109.568C111.636 138.614 113.032 137.399 113.446 135.202L115.514 124.521H119.05L116.879 135.616C116.124 139.591 113.394 141.82 109.299 141.82H107.614L108.203 138.614Z" fill="white"/>
<path d="M124.737 127.711L123.93 131.785H132.202L131.561 134.995H123.289L122.581 138.614H131.846L131.236 141.809H118.445L121.811 124.521H134.586L133.976 127.716L124.737 127.711Z" fill="white"/>
<path d="M149.703 127.711H144.171L141.415 141.804H137.879L140.635 127.711H135.051L135.661 124.516H150.313L149.703 127.711Z" fill="white"/>
<path d="M149.067 136.029L149.165 135.642H152.701L152.603 135.983C152.086 137.911 153.482 139.126 156.434 139.126C158.435 139.126 160.162 138.444 160.162 136.763C160.162 133.424 150.799 135.729 150.799 129.743C150.799 125.741 154.19 124.159 158.264 124.159C163.822 124.159 165.921 127.204 165.114 130.229L164.99 130.694H161.48L161.552 130.353C161.992 128.352 160.772 127.158 158.094 127.158C156.191 127.158 154.263 127.768 154.263 129.303C154.263 132.328 163.626 130.425 163.626 136.469C163.626 140.517 160.41 142.156 156.212 142.156C150.535 142.171 148.24 139.369 149.067 136.029Z" fill="white"/>
<path d="M191.399 124.495L183.768 141.784H178.624L178.107 131.247L173.278 141.784H167.891L166.991 124.495H170.455L171.158 138.516L177.362 124.495H180.852L181.607 138.454L187.557 124.495H191.399Z" fill="white"/>
<path d="M199.785 138.516H192.547L190.789 141.804H187.206L195.995 124.516H201.434L203.502 141.804H200.209L199.785 138.516ZM194.18 135.342H199.35L198.316 127.127L194.18 135.342Z" fill="white"/>
<path d="M221.876 129.417L221.416 131.687C220.78 134.757 218.707 136.076 214.219 136.076H209.866L208.744 141.804H205.213L208.579 124.516H216.38C220.537 124.516 222.538 126.206 221.876 129.417ZM215.853 127.711H211.49L210.456 132.881H214.7C216.82 132.881 217.673 132.54 217.988 131.03L218.283 129.567C218.588 128.052 217.756 127.711 215.853 127.711Z" fill="white"/>
</g>
<g clip-path="url(#clip2)">
<path d="M335.932 73.1036L313.5 76.3469L291.064 73.1036V67.9743C291.068 66.7997 291.492 65.6653 292.262 64.7777C293.031 63.8901 294.093 63.3083 295.256 63.1383L313.494 59.1084L331.515 63.1093C332.743 63.2876 333.864 63.9018 334.675 64.8397C335.487 65.7775 335.933 66.9761 335.932 68.2161V73.1036Z" fill="white" stroke="#1F2250" stroke-width="0.132182" stroke-miterlimit="10"/>
<path d="M321.121 84.2715C321.129 84.0324 321.074 83.7954 320.96 83.5848C322.095 81.3538 322.305 77.917 322.324 75.9536C322.882 73.5937 324.394 65.4468 319.677 61.9294C314.132 57.7931 307.523 61.1879 307.523 61.1879C307.523 61.1879 303.332 68.1001 305.285 74.3804C305.328 74.513 305.377 74.6433 305.434 74.7705C305.343 76.8306 305.314 80.1545 305.875 82.508C305.727 82.6324 305.605 82.7852 305.517 82.9574C305.428 83.1295 305.375 83.3176 305.36 83.5106C305.308 84.5552 306.552 85.4611 308.142 85.5417C308.649 85.5684 309.156 85.4995 309.638 85.3386C312.607 85.2677 311.427 83.1689 312.378 81.3054C312.848 80.3172 313.229 79.2889 313.516 78.233C313.516 78.233 314.229 79.284 315.038 80.7767C315.492 81.6149 315.538 82.5402 315.583 83.3558C315.459 83.5492 315.386 83.7713 315.373 84.0006C315.377 84.2784 315.451 84.5507 315.588 84.7925C315.725 85.0342 315.92 85.2375 316.157 85.3837C316.272 85.483 316.402 85.5625 316.543 85.6191C317.046 85.8692 317.595 86.0098 318.155 86.0317C319.742 86.0962 321.07 85.3128 321.121 84.2715Z" fill="white" stroke="#1F2250" stroke-width="0.32562" stroke-miterlimit="10"/>
<path d="M309.074 69.525C309.148 67.1554 311.311 66.3268 313.874 66.4526C316.437 66.5783 318.465 67.6132 318.349 69.9796C318.146 74.1482 313.455 75.0251 313.455 75.0251C313.455 75.0251 308.919 74.0256 309.074 69.525Z" fill="white" stroke="#1F2250" stroke-width="0.328844" stroke-miterlimit="10"/>
<path d="M316.166 71.0853C316.084 71.4333 315.919 71.7563 315.685 72.0273C315.452 72.2982 315.157 72.5092 314.825 72.6425L314.596 70.2729C314.467 68.9511 315.051 67.813 315.934 67.726L316.176 70.7597C316.186 70.8682 316.182 70.9775 316.166 71.0853Z" fill="#1F2250"/>
<path d="M310.637 71.6206C310.785 71.9459 311.008 72.2311 311.288 72.4521C311.569 72.6731 311.898 72.8236 312.249 72.8909L312.02 70.5245C311.891 69.1994 311.098 68.1968 310.215 68.2677L310.56 71.2918C310.574 71.4039 310.599 71.5141 310.637 71.6206Z" fill="#1F2250"/>
<path d="M313.265 69.7636C313.265 69.7636 314.216 70.7534 314.316 71.7915C314.336 72.0575 314.278 72.3238 314.149 72.5571C314.019 72.7904 313.824 72.9805 313.587 73.1036C313.331 73.0277 313.102 72.8781 312.93 72.6734C312.759 72.4688 312.651 72.2182 312.62 71.9527C312.52 70.9145 313.265 69.7604 313.265 69.7604" fill="#1F2250"/>
<path d="M308.367 63.4478C308.869 63.721 309.403 63.93 309.957 64.07C310.53 64.2468 311.113 64.3868 311.704 64.4891C312.824 64.6926 313.963 64.7662 315.099 64.7084C316.979 64.6084 318.968 64.0636 320.348 62.7353C320.425 62.6612 320.319 62.5258 320.228 62.587C318.665 63.6227 316.839 64.1908 314.964 64.2248C313.862 64.2712 312.759 64.1911 311.675 63.9862C311.16 63.8901 310.649 63.7663 310.147 63.6155C309.602 63.451 309.07 63.2092 308.519 63.0674C308.47 63.0547 308.419 63.0602 308.374 63.0829C308.329 63.1056 308.294 63.144 308.275 63.1907C308.257 63.2374 308.256 63.2893 308.273 63.3367C308.29 63.384 308.323 63.4235 308.367 63.4478Z" fill="#202251"/>
<path d="M323.22 61.4231C321.094 62.8579 318.691 63.834 316.166 64.2892C313.01 64.8244 309.535 64.1828 305.65 61.652C297.983 56.6613 299.079 52.5346 299.079 52.5346C299.294 51.4808 299.71 50.4782 300.304 49.5815C301.291 48.1081 301.062 46.4188 303.973 43.8654C306.885 41.312 308.538 41.1122 308.538 41.1122L314.129 40.0225L319.239 41.1863L324.275 44.7036L326.306 47.9276L327.312 49.3139L327.686 50.539L327.963 53.8661L327.128 55.8811L323.833 60.2238L323.22 61.4231Z" fill="white"/>
<path d="M300.317 49.5687C298.912 50.4617 298.705 52.5154 298.876 54.0242C298.958 54.8514 299.216 55.6514 299.634 56.37C300.052 57.0887 300.619 57.7092 301.297 58.1896C301.507 58.3346 301.7 57.9865 301.491 57.8446C300.869 57.4015 300.35 56.8304 299.967 56.1698C299.584 55.5091 299.348 54.7743 299.273 54.0145C299.111 52.6605 299.244 50.7164 300.524 49.9104C300.736 49.7879 300.533 49.4462 300.317 49.5687Z" fill="#202251"/>
<path d="M305.659 61.4684C303.403 60.2078 301.558 58.354 300.801 55.8458C300.067 53.3227 300.237 50.6227 301.281 48.2114C301.591 47.5358 301.936 46.8772 302.316 46.2384C302.673 45.5738 303.106 44.9528 303.606 44.3878C304.386 43.5262 305.308 42.8054 306.333 42.2568C307.429 41.7067 308.585 41.2827 309.776 40.993C311.957 40.3617 314.251 40.2328 316.489 40.6158C318.881 41.0833 321.202 42.4212 323.024 44.0235C324.495 45.2786 325.591 46.9151 326.193 48.7531C326.703 50.5235 326.802 52.387 326.483 54.2016C326.338 55.2647 326.067 56.3068 325.677 57.3062C325.229 58.374 324.607 59.36 323.836 60.2239C322.849 61.3507 321.672 62.2947 320.357 63.0126L320.148 63.1223C319.916 63.2286 320.122 63.5672 320.351 63.4446C321.405 62.9108 322.374 62.2242 323.227 61.4071C324.943 59.8373 326.132 57.7756 326.631 55.504C327.099 53.6135 327.173 51.6469 326.847 49.7267C326.468 47.8415 325.576 46.0976 324.268 44.6877C322.581 42.8817 320.491 41.4998 318.168 40.6545C315.863 39.8259 313.332 39.8356 310.96 40.2966C309.381 40.5986 307.846 41.0934 306.388 41.77C305.72 42.1003 305.091 42.5059 304.515 42.979C303.358 43.9335 302.411 45.1181 301.736 46.4576C301.337 47.134 300.993 47.8413 300.707 48.5725C300.455 49.246 300.26 49.9394 300.124 50.6455C299.887 51.8856 299.865 53.1572 300.059 54.4047C300.216 55.6386 300.621 56.828 301.251 57.9008C301.88 58.9736 302.721 59.9076 303.722 60.6462C304.271 61.073 304.852 61.4577 305.459 61.7972C305.502 61.8122 305.548 61.812 305.591 61.7968C305.633 61.7817 305.669 61.7524 305.693 61.7138C305.716 61.6753 305.726 61.6299 305.72 61.5852C305.713 61.5405 305.692 61.4992 305.659 61.4684Z" fill="#202251"/>
<path d="M305.04 59.0117C303.8 57.5102 302.957 55.7208 302.59 53.8082C302.206 51.8738 302.145 49.6171 303.451 48.0051C304.824 46.3254 306.962 45.6677 308.993 45.1841C311.187 44.6893 313.431 44.4503 315.679 44.4716C317.936 44.4716 320.377 44.3942 322.127 46.0643C323.539 47.4151 324.191 49.3269 324.32 51.2226C324.468 53.4439 324.223 55.7684 323.14 57.7479C322.221 59.4243 320.706 60.8106 318.829 61.2942C317.595 61.5754 316.34 61.7555 315.076 61.8326C313.791 61.9738 312.496 61.9889 311.208 61.8778C308.896 61.6521 306.585 60.7816 305.04 58.9762C304.873 58.7828 304.599 59.0697 304.763 59.2599C307.942 62.9481 313.319 62.5387 317.659 61.91C318.675 61.8147 319.659 61.503 320.545 60.9958C321.431 60.4887 322.198 59.7979 322.795 58.9698C324.152 57.1772 324.694 54.914 324.729 52.6927C324.771 50.6391 324.471 48.5886 323.304 46.8509C322.743 45.9926 321.975 45.2896 321.07 44.8069C319.958 44.2971 318.746 44.0437 317.523 44.0654C315.112 43.9542 312.696 44.086 310.311 44.4587C308.151 44.8488 305.798 45.3969 304.044 46.8058C303.229 47.4394 302.607 48.288 302.248 49.256C301.945 50.2832 301.852 51.3611 301.974 52.4251C302.127 54.4228 302.766 56.3529 303.835 58.0477C304.105 58.4718 304.405 58.8768 304.731 59.2599C304.927 59.4888 305.205 59.2051 305.04 59.0117Z" fill="#202251"/>
<path d="M326.418 48.7401C327.266 48.9174 327.582 49.7685 327.685 50.5358C327.782 51.2376 327.827 51.9456 327.821 52.654C327.821 54.0693 327.402 55.6007 326.125 56.3873C326.08 56.4142 326.048 56.4579 326.035 56.5087C326.022 56.5595 326.03 56.6132 326.057 56.6581C326.084 56.703 326.128 56.7354 326.179 56.7481C326.229 56.7608 326.283 56.7528 326.328 56.7258C327.776 55.836 328.221 54.1047 328.214 52.5024C328.214 51.1419 328.246 48.7207 326.515 48.3597C326.267 48.3081 326.16 48.6885 326.418 48.7401Z" fill="#202251"/>
<path d="M323.685 52.0672C323.552 50.2586 322.924 48.4435 321.563 47.1603L321.466 47.0733C321.548 47.1944 321.605 47.3307 321.633 47.4741C321.662 47.6176 321.661 47.7652 321.631 47.9083C321.415 48.7691 319.948 49.1431 318.355 48.7433C316.763 48.3435 315.644 47.3215 315.863 46.4575C315.931 46.2589 316.047 46.0803 316.202 45.9379C316.356 45.7955 316.543 45.6938 316.747 45.6419C316.289 45.6419 315.828 45.6419 315.376 45.6419C313.22 45.6107 311.068 45.827 308.961 46.2867C307.026 46.7348 304.963 47.3538 303.654 48.9367C302.406 50.4488 302.471 52.5992 302.848 54.4175C303.205 56.2371 304.016 57.9371 305.205 59.3598C306.694 61.0653 308.919 61.8971 311.137 62.1195C312.371 62.2243 313.612 62.2146 314.844 62.0905C316.055 62.021 317.258 61.855 318.442 61.594C319.321 61.3434 320.139 60.9169 320.848 60.3406C321.557 59.7642 322.141 59.05 322.566 58.2411C323.61 56.368 323.836 54.1692 323.685 52.0672Z" fill="#202251"/>
<path d="M319.851 53.8276C319.206 55.4943 314.799 54.8786 312.717 55.691C315.505 53.2795 315.941 52.4219 317.108 50.955C318.275 49.4881 319.735 50.4263 321.802 49.343C323.868 48.2598 322.969 47.8117 324.332 45.9901C325.422 44.5297 328.707 43.4335 330.213 43.0692C329.391 43.4819 327.531 44.5393 326.689 45.484C325.638 46.6639 326.061 48.8336 323.733 50.2619C321.405 51.6901 320.68 51.7449 319.851 53.8276Z" fill="white" stroke="#202251" stroke-width="0.361083" stroke-linejoin="round"/>
<path d="M305.476 54.2305C306.024 55.8425 309.044 54.9527 310.537 55.6265C308.461 53.402 308.109 52.5734 307.213 51.1871C306.317 49.8008 305.359 50.8292 303.864 49.8975C302.368 48.9658 302.964 48.4435 301.913 46.7123C301.072 45.3292 298.728 44.4555 297.661 44.1782C298.257 44.5361 299.595 45.4678 300.24 46.3608C301.039 47.4699 300.885 49.6622 302.568 50.9389C304.25 52.2155 304.792 52.2059 305.476 54.2305Z" fill="white" stroke="#202251" stroke-width="0.361083" stroke-linejoin="round"/>
<path d="M320.725 62.9159C321.64 62.9159 322.853 63.9379 323.304 64.6181C324.146 65.8884 325.016 67.2618 324.861 68.7158C324.787 69.4251 323.936 69.957 323.114 70.0441C322.292 70.1311 321.476 69.87 320.699 69.6153" fill="white"/>
<path d="M320.725 62.9159C321.64 62.9159 322.853 63.9379 323.304 64.6181C324.146 65.8884 325.016 67.2618 324.861 68.7158C324.787 69.4251 323.936 69.957 323.114 70.0441C322.292 70.1311 321.476 69.87 320.699 69.6153" stroke="#1F2250" stroke-width="0.274036" stroke-miterlimit="10"/>
<path d="M306.433 63.4318C305.514 63.4318 304.305 64.4538 303.854 65.134C303.013 66.4043 302.142 67.7777 302.297 69.2317C302.371 69.9409 303.222 70.4729 304.044 70.5599C304.866 70.647 305.682 70.3858 306.456 70.1311" fill="white"/>
<path d="M306.433 63.4318C305.514 63.4318 304.305 64.4538 303.854 65.134C303.013 66.4043 302.142 67.7777 302.297 69.2317C302.371 69.9409 303.222 70.4729 304.044 70.5599C304.866 70.647 305.682 70.3858 306.456 70.1311" stroke="#1F2250" stroke-width="0.274036" stroke-miterlimit="10"/>
<path d="M314.39 79.2774H312.965C312.936 79.229 312.891 79.2484 312.852 79.2452C310.707 79.0532 308.69 78.1396 307.13 76.6535C305.571 75.1674 304.562 73.1966 304.267 71.0628C304.262 70.8707 304.232 70.6801 304.18 70.4954V69.0381C304.228 69.0091 304.209 68.964 304.215 68.9253C304.254 68.4993 304.32 68.0761 304.412 67.6583C304.796 65.9645 305.636 64.4082 306.841 63.1578C308.046 61.9073 309.571 61.0105 311.249 60.5645C312.928 60.1184 314.696 60.1402 316.363 60.6273C318.03 61.1145 319.532 62.0485 320.706 63.3281C321.88 64.6078 322.682 66.1843 323.024 67.887C323.366 69.5896 323.236 71.3534 322.647 72.9874C322.059 74.6213 321.035 76.0631 319.685 77.1565C318.336 78.2499 316.713 78.9532 314.993 79.1904C314.79 79.1997 314.588 79.2288 314.39 79.2774ZM320.254 69.3025C320.198 69.2805 320.137 69.2738 320.077 69.2831H317.669C317.598 69.2831 317.582 69.2509 317.582 69.1864C317.582 69.1219 317.598 69.0865 317.669 69.0897H320.615C320.93 69.0694 321.228 68.9369 321.454 68.7164C321.68 68.4958 321.819 68.2017 321.847 67.8872C321.847 67.6325 321.782 67.5648 321.525 67.5648H317.011C316.688 67.5638 316.368 67.6274 316.07 67.7518C315.658 67.9122 315.306 68.194 315.059 68.5597C314.812 68.9254 314.682 69.3577 314.687 69.799C314.7 70.1045 314.775 70.4043 314.906 70.6806C315.037 70.957 315.222 71.2045 315.45 71.4086C315.678 71.6127 315.944 71.7693 316.233 71.8694C316.522 71.9694 316.828 72.0109 317.134 71.9913C317.453 71.9945 317.765 71.8973 318.026 71.7133C318.287 71.5293 318.483 71.2679 318.588 70.966C318.633 70.8403 318.607 70.8177 318.481 70.821C318.207 70.821 317.933 70.821 317.656 70.821C317.582 70.821 317.527 70.821 317.53 70.7178C317.533 70.6146 317.591 70.6308 317.656 70.6308C318.049 70.6308 318.446 70.6308 318.842 70.6308C319.125 70.6387 319.4 70.5449 319.619 70.3664C319.955 70.1025 320.181 69.7234 320.254 69.3025ZM308.751 70.7823C308.804 71.0176 308.914 71.2362 309.072 71.419C309.229 71.6017 309.429 71.7429 309.654 71.8301C310.068 71.9811 310.517 72.0024 310.944 71.8913C311.232 71.8329 311.505 71.7175 311.748 71.5518C311.99 71.3861 312.197 71.1735 312.357 70.9265C312.516 70.6795 312.624 70.4032 312.675 70.1138C312.726 69.8243 312.718 69.5277 312.652 69.2412C312.526 68.7638 312.247 68.3411 311.857 68.0377C311.468 67.7343 310.989 67.567 310.495 67.5615C308.945 67.5358 307.391 67.5615 305.837 67.5615C305.608 67.5615 305.537 67.655 305.566 67.8839C305.566 67.9259 305.566 67.9678 305.566 68.0097C305.618 68.2994 305.768 68.5626 305.99 68.7555C306.212 68.9484 306.494 69.0595 306.788 69.0704H309.718C309.793 69.0704 309.851 69.0704 309.847 69.1735C309.844 69.2767 309.786 69.2638 309.722 69.2638H307.252C307.155 69.2638 307.136 69.2831 307.162 69.3799C307.224 69.6592 307.354 69.9185 307.542 70.1343C307.667 70.2857 307.824 70.4068 308.002 70.4884C308.18 70.5699 308.375 70.6098 308.571 70.605C308.948 70.5856 309.332 70.605 309.712 70.605C309.776 70.605 309.847 70.5824 309.847 70.6985C309.847 70.8145 309.786 70.7952 309.715 70.7952L308.751 70.7823Z" fill="#FDC70F"/>
<path d="M320.254 69.3025C320.177 69.7226 319.948 70.0993 319.609 70.36C319.391 70.5385 319.115 70.6323 318.832 70.6243C318.436 70.6082 318.039 70.6243 317.646 70.6243C317.582 70.6243 317.52 70.6082 317.52 70.7114C317.52 70.8146 317.572 70.8146 317.646 70.8146C317.923 70.8146 318.197 70.8146 318.471 70.8146C318.597 70.8146 318.623 70.8339 318.578 70.9596C318.474 71.2615 318.277 71.5229 318.016 71.7069C317.755 71.8909 317.443 71.9881 317.124 71.9849C316.818 72.0045 316.512 71.963 316.223 71.863C315.934 71.7629 315.668 71.6063 315.44 71.4021C315.212 71.198 315.028 70.9506 314.896 70.6742C314.765 70.3978 314.691 70.0981 314.677 69.7926C314.672 69.3513 314.802 68.919 315.049 68.5533C315.296 68.1876 315.649 67.9058 316.06 67.7454C316.358 67.621 316.678 67.5574 317.001 67.5584H321.515C321.773 67.5584 321.837 67.6357 321.837 67.8808C321.809 68.1952 321.67 68.4894 321.444 68.71C321.218 68.9305 320.921 69.063 320.606 69.0833H317.659C317.588 69.0833 317.569 69.1155 317.572 69.18C317.575 69.2445 317.588 69.28 317.659 69.2767H320.067C320.131 69.2676 320.196 69.2765 320.254 69.3025Z" fill="#383837"/>
<path d="M308.751 70.7823H309.718C309.789 70.7823 309.854 70.7823 309.85 70.6856C309.847 70.5888 309.779 70.5921 309.715 70.5921C309.335 70.5921 308.951 70.5921 308.574 70.5921C308.378 70.5969 308.183 70.557 308.005 70.4755C307.827 70.3939 307.67 70.2728 307.545 70.1214C307.357 69.9056 307.227 69.6463 307.165 69.367C307.139 69.2702 307.165 69.2509 307.255 69.2509H309.718C309.783 69.2509 309.844 69.2509 309.844 69.1606C309.844 69.0703 309.789 69.0575 309.715 69.0575H306.784C306.49 69.0466 306.209 68.9355 305.986 68.7426C305.764 68.5496 305.615 68.2865 305.563 67.9968C305.563 67.9549 305.563 67.9129 305.563 67.871C305.534 67.6421 305.604 67.5486 305.833 67.5486C307.387 67.5486 308.941 67.5293 310.492 67.5486C310.986 67.5541 311.464 67.7213 311.854 68.0247C312.243 68.3281 312.523 68.7509 312.649 69.2283C312.714 69.5147 312.722 69.8114 312.671 70.1009C312.621 70.3903 312.512 70.6666 312.353 70.9136C312.194 71.1606 311.987 71.3732 311.744 71.5389C311.502 71.7046 311.228 71.82 310.94 71.8784C310.514 71.9895 310.064 71.9682 309.651 71.8172C309.428 71.7307 309.229 71.5913 309.073 71.411C308.916 71.2307 308.806 71.0149 308.751 70.7823Z" fill="#383837"/>
<path d="M303.915 71.6044C303.802 71.5883 303.689 71.5722 303.573 71.5625C303.272 71.4998 303.001 71.3374 302.803 71.1015C302.582 70.8656 302.417 70.5825 302.322 70.2736C302.226 69.9648 302.202 69.6382 302.252 69.3187C302.328 68.9352 302.482 68.5714 302.704 68.2494C302.925 67.9273 303.21 67.6538 303.541 67.4455C303.74 67.3005 303.981 67.2246 304.228 67.2295C304.489 67.2163 304.75 67.2457 305.002 67.3166C305.127 67.3517 305.243 67.4154 305.341 67.5026C305.438 67.5898 305.514 67.6983 305.563 67.8195C305.63 68.0323 305.595 68.287 305.75 68.4482C305.804 68.5062 305.882 68.5449 305.924 68.6158C305.961 68.6918 305.974 68.7772 305.962 68.8609L305.914 70.3665C305.948 70.7403 305.839 71.1132 305.611 71.411C305.361 71.6143 305.043 71.7146 304.721 71.6915C304.451 71.682 304.181 71.6529 303.915 71.6044Z" fill="white" stroke="#1F2250" stroke-width="0.125734" stroke-miterlimit="10"/>
<path d="M322.988 71.3272C323.104 71.3272 323.217 71.3272 323.333 71.3272C323.639 71.2969 323.926 71.1626 324.146 70.9468C324.389 70.7354 324.58 70.4713 324.706 70.1747C324.832 69.878 324.888 69.5566 324.871 69.2349C324.836 68.846 324.721 68.4685 324.535 68.1253C324.349 67.7822 324.095 67.4807 323.788 67.2392C323.61 67.0743 323.384 66.9724 323.143 66.9491C322.884 66.9087 322.621 66.9087 322.363 66.9491C322.234 66.9723 322.112 67.0244 322.006 67.1014C321.899 67.1785 321.812 67.2785 321.75 67.394C321.66 67.5971 321.67 67.855 321.502 67.9969C321.441 68.0517 321.357 68.0807 321.308 68.1452C321.264 68.2179 321.242 68.3018 321.244 68.387L321.134 69.8893C321.061 70.2577 321.13 70.6401 321.328 70.9597C321.553 71.1881 321.858 71.3209 322.179 71.3304C322.448 71.3487 322.719 71.3476 322.988 71.3272Z" fill="white" stroke="#1F2250" stroke-width="0.125734" stroke-miterlimit="10"/>
<path d="M329.272 65.4692H333.04V73.9482C333.04 74.4476 332.842 74.9265 332.489 75.2796C332.136 75.6327 331.657 75.831 331.158 75.831C330.658 75.831 330.179 75.6327 329.826 75.2796C329.473 74.9265 329.275 74.4476 329.275 73.9482V65.4692H329.272Z" fill="white" stroke="#1F2250" stroke-width="0.361083" stroke-miterlimit="10"/>
<path d="M330.236 61.7036L331.154 60.7203L332.244 61.8842C332.738 62.3805 333.022 63.0477 333.037 63.7476V65.3596H329.272V63.9669C329.291 63.1167 329.636 62.3065 330.236 61.7036Z" fill="white" stroke="#1F2250" stroke-width="0.270812" stroke-miterlimit="10"/>
<path d="M329.272 71.6302V72.8554V74.4738H327.124L329.272 71.6302Z" fill="white" stroke="#1F2250" stroke-width="0.361083" stroke-miterlimit="10"/>
<path d="M333.04 71.8462V73.0745V74.6929H335.188L333.04 71.8462Z" fill="white" stroke="#1F2250" stroke-width="0.361083" stroke-miterlimit="10"/>
<path d="M294.021 65.4692H297.787V73.9482C297.787 74.4476 297.588 74.9265 297.235 75.2796C296.882 75.6327 296.403 75.831 295.904 75.831C295.404 75.831 294.926 75.6327 294.572 75.2796C294.219 74.9265 294.021 74.4476 294.021 73.9482V65.4692Z" fill="white" stroke="#1F2250" stroke-width="0.361083" stroke-miterlimit="10"/>
<path d="M294.985 61.7036L295.904 60.7203L296.993 61.8842C297.489 62.3824 297.774 63.0518 297.79 63.7541V65.3661H294.018V63.9733C294.035 63.1203 294.381 62.307 294.985 61.7036Z" fill="white" stroke="#1F2250" stroke-width="0.270812" stroke-miterlimit="10"/>
<path d="M294.021 71.6302V72.8554V74.4738H291.874L294.021 71.6302Z" fill="white" stroke="#1F2250" stroke-width="0.361083" stroke-miterlimit="10"/>
<path d="M297.786 71.8462V73.0745V74.6929H299.937L297.786 71.8462Z" fill="white" stroke="#1F2250" stroke-width="0.361083" stroke-miterlimit="10"/>
<path d="M309.66 86.7763C310.14 86.9396 310.554 87.2555 310.837 87.6758C311.159 88.1318 311.432 88.6202 311.653 89.133C311.469 89.0492 310.921 88.7107 310.921 88.7107L311.124 90.0003L311.001 91.5381L310.502 90.8933L310.015 93.3564L309.515 92.3151L308.342 94.9652L307.297 92.5279L306.697 93.8175L306.104 91.4801L305.666 92.0539V89.5812L304.892 90.0357C304.892 90.0357 305.044 88.2658 305.327 87.9498C305.541 87.666 305.798 87.4169 306.088 87.2116C306.611 86.88 307.216 86.6993 307.836 86.6893C308.106 86.6699 308.712 86.7183 308.983 86.6893C309.2 86.6677 309.418 86.6851 309.628 86.7409" fill="url(#paint0_linear)"/>
<path d="M308.98 87.2536C309.262 87.3709 309.496 87.5784 309.647 87.8436C309.831 88.151 309.985 88.4748 310.108 88.8108C310.002 88.7592 309.692 88.5335 309.692 88.5335L309.805 89.3878L309.738 90.3969L309.457 89.9843L309.18 91.5962L308.896 90.9128L308.232 92.6473L307.642 91.0514L307.32 91.8896L306.997 90.3518L306.749 90.729V89.117L306.311 89.4136C306.311 89.4136 306.398 88.253 306.556 88.0467C306.675 87.8652 306.821 87.7023 306.988 87.5631C307.274 87.3488 307.62 87.2293 307.977 87.2213C308.129 87.2213 308.474 87.2407 308.622 87.2213C308.746 87.2076 308.871 87.2185 308.99 87.2536" fill="white"/>
<path d="M319.658 86.7763C320.138 86.9396 320.551 87.2556 320.834 87.6758C321.155 88.1326 321.429 88.6208 321.65 89.1331C321.466 89.0492 320.918 88.7107 320.918 88.7107L321.118 90.0003L320.999 91.5381L320.499 90.8933L320.012 93.3564L319.513 92.3151L318.339 94.9652L317.295 92.5279L316.695 93.8175L316.102 91.4801L315.663 92.054V89.5812L314.877 90.0422C314.877 90.0422 315.031 88.2723 315.312 87.9563C315.528 87.6739 315.784 87.4251 316.073 87.218C316.596 86.8874 317.201 86.7067 317.82 86.6957C318.091 86.6764 318.697 86.7248 318.971 86.6957C319.187 86.6743 319.406 86.6918 319.616 86.7473" fill="url(#paint1_linear)"/>
<path d="M318.978 87.2535C319.259 87.3701 319.493 87.5779 319.642 87.8435C319.826 88.1502 319.981 88.4741 320.103 88.8106C320 88.7591 319.69 88.5334 319.69 88.5334L319.803 89.3877L319.735 90.3968L319.451 89.9842L319.177 91.5961L318.894 90.9127L318.23 92.6472L317.64 91.0513L317.301 91.8895L316.979 90.3517L316.73 90.7289V89.1169L316.292 89.4135C316.292 89.4135 316.379 88.2529 316.537 88.0466C316.657 87.8651 316.802 87.7022 316.969 87.563C317.255 87.3487 317.601 87.2292 317.959 87.2212C318.11 87.2212 318.452 87.2406 318.604 87.2212C318.727 87.2076 318.852 87.2186 318.971 87.2535" fill="white"/>
</g>
<g clip-path="url(#clip3)">
<path d="M414.919 71.2073L387.002 75.2552L359.081 71.2073V64.8162C359.081 63.3499 359.609 61.9327 360.569 60.8242C361.529 59.7157 362.856 58.9901 364.307 58.7804L387.002 53.7655L409.418 58.7399C410.946 58.9615 412.342 59.7257 413.353 60.8927C414.363 62.0598 414.919 63.5516 414.919 65.095V71.2073Z" fill="white" stroke="#1F2250" stroke-width="0.166412" stroke-miterlimit="10"/>
<path d="M396.483 85.0915C396.494 84.7956 396.426 84.5022 396.285 84.2415C397.698 81.4619 397.959 77.1892 397.981 74.7425C398.678 71.8055 400.558 61.6679 394.689 57.2917C387.789 52.1419 379.563 56.3697 379.563 56.3697C379.563 56.3697 374.328 64.9691 376.779 72.7815C376.833 72.9524 376.896 73.1143 376.964 73.2718C376.851 75.8354 376.815 79.9687 377.512 82.8832C377.328 83.0381 377.176 83.2287 377.066 83.4435C376.956 83.6583 376.891 83.8929 376.874 84.1335C376.806 85.4288 378.358 86.5623 380.332 86.6567C380.963 86.6894 381.594 86.6055 382.194 86.4093C385.887 86.3194 384.443 83.7108 385.608 81.3855C386.192 80.1553 386.666 78.876 387.025 77.5625C387.025 77.5625 387.924 78.8713 388.918 80.7108C389.382 81.72 389.613 82.8207 389.593 83.9311C389.439 84.1697 389.349 84.4439 389.332 84.7272C389.338 85.0724 389.431 85.4105 389.601 85.7106C389.772 86.0108 390.015 86.2634 390.308 86.4453C390.453 86.5667 390.615 86.6653 390.789 86.7377C391.414 87.0481 392.098 87.2229 392.795 87.2504C394.77 87.3628 396.407 86.3913 396.483 85.0915Z" fill="white" stroke="#1F2250" stroke-width="0.404787" stroke-miterlimit="10"/>
<path d="M381.475 66.7457C381.565 63.7953 384.259 62.7608 387.448 62.9182C390.636 63.0756 393.16 64.362 393.016 67.3079C392.764 72.4982 386.926 73.6046 386.926 73.6046C386.926 73.6046 381.304 72.3452 381.475 66.7457Z" fill="white" stroke="#1F2250" stroke-width="0.409284" stroke-miterlimit="10"/>
<path d="M390.308 68.6841C390.205 69.1171 390 69.5191 389.709 69.8563C389.419 70.1936 389.052 70.4564 388.639 70.6226L388.352 67.6767C388.194 66.0305 388.923 64.6093 390.016 64.5283L390.321 68.3018C390.329 68.4294 390.325 68.5574 390.308 68.6841Z" fill="#1F2250"/>
<path d="M383.44 69.3498C383.623 69.7561 383.901 70.1122 384.251 70.3879C384.601 70.6635 385.013 70.8505 385.45 70.933L385.163 68.0005C385.001 66.3544 384.016 65.0996 382.914 65.2075L383.364 68.972C383.374 69.1005 383.4 69.2273 383.44 69.3498Z" fill="#1F2250"/>
<path d="M386.701 67.0425C386.701 67.0425 387.884 68.2748 388.01 69.5657C388.035 69.8964 387.963 70.2273 387.803 70.518C387.644 70.8087 387.403 71.0466 387.11 71.2028C386.791 71.1078 386.507 70.9212 386.294 70.666C386.08 70.4109 385.947 70.0986 385.909 69.768C385.783 68.4772 386.705 67.0425 386.705 67.0425" fill="#1F2250"/>
<path d="M380.616 59.1807C381.24 59.5188 381.903 59.78 382.59 59.9588C383.305 60.1741 384.032 60.3468 384.767 60.476C386.16 60.7269 387.577 60.8189 388.99 60.7504C391.334 60.6244 393.789 59.9453 395.521 58.2947C395.62 58.2002 395.489 58.0293 395.377 58.1103C393.43 59.3977 391.157 60.1044 388.824 60.1477C387.453 60.2044 386.08 60.1048 384.731 59.8508C384.09 59.7328 383.455 59.5827 382.829 59.4011C382.149 59.1942 381.479 58.8928 380.805 58.7174C380.747 58.7078 380.688 58.718 380.637 58.7463C380.586 58.7747 380.547 58.8195 380.525 58.8735C380.503 58.9274 380.5 58.9872 380.516 59.043C380.533 59.0989 380.568 59.1474 380.616 59.1807Z" fill="#202251"/>
<path d="M399.105 56.6575C396.459 58.4454 393.469 59.6616 390.326 60.2286C386.4 60.8943 382.077 60.0982 377.242 56.9453C367.698 50.7251 369.079 45.6023 369.079 45.6023C369.347 44.2903 369.866 43.0425 370.608 41.9277C371.832 40.0927 371.548 37.9878 375.169 34.808C378.79 31.6282 380.854 31.3853 380.854 31.3853L387.807 30.036L394.158 31.4797L400.423 35.8559L402.951 39.8633L404.201 41.5859L404.651 43.1106L404.993 47.2529L403.963 49.7671L399.861 55.1643L399.105 56.6575Z" fill="white"/>
<path d="M370.599 41.9143C368.845 43.0207 368.584 45.5799 368.8 47.4554C368.9 48.4845 369.221 49.48 369.74 50.3741C370.259 51.2682 370.965 52.0399 371.809 52.6366C372.07 52.8166 372.313 52.3893 372.052 52.2094C371.279 51.6584 370.632 50.9483 370.156 50.1268C369.679 49.3053 369.384 48.3913 369.291 47.4464C369.093 45.7598 369.259 43.34 370.847 42.3371C371.117 42.1797 370.865 41.7569 370.599 41.9143Z" fill="#202251"/>
<path d="M377.242 56.7205C374.445 55.1463 372.142 52.8435 371.198 49.7222C370.285 46.5813 370.496 43.2203 371.796 40.2187C372.181 39.3779 372.61 38.5581 373.082 37.763C373.524 36.9379 374.06 36.1667 374.679 35.4647C375.648 34.3912 376.795 33.4935 378.07 32.8111C379.435 32.1264 380.873 31.5983 382.356 31.2369C385.071 30.452 387.927 30.2906 390.713 30.7647C393.69 31.3494 396.56 33.0135 398.845 35.0104C400.677 36.57 402.042 38.6061 402.789 40.8933C403.423 43.0975 403.546 45.417 403.149 47.6758C402.972 48.997 402.638 50.2924 402.155 51.5347C401.599 52.8647 400.825 54.0929 399.865 55.1688C398.636 56.5729 397.166 57.747 395.525 58.6365C395.441 58.6859 395.354 58.7309 395.264 58.7714C394.977 58.9109 395.233 59.3291 395.516 59.1942C396.835 58.5326 398.048 57.6776 399.114 56.6575C401.253 54.7059 402.734 52.1403 403.356 49.3129C403.937 46.9578 404.027 44.5082 403.621 42.1167C403.155 39.7724 402.05 37.6025 400.428 35.847C398.321 33.5972 395.709 31.8799 392.809 30.8366C389.944 29.8022 386.8 29.8202 383.84 30.3869C381.875 30.7648 379.963 31.381 378.146 32.2219C377.316 32.6351 376.534 33.1405 375.817 33.7286C374.38 34.919 373.203 36.3917 372.358 38.0553C371.865 38.8981 371.438 39.7778 371.081 40.6864C370.771 41.5241 370.532 42.3862 370.366 43.2636C370.069 44.8064 370.041 46.389 370.285 47.9411C370.478 49.4775 370.982 50.9583 371.766 52.2937C372.55 53.629 373.598 54.7909 374.845 55.7085C375.527 56.2411 376.249 56.7208 377.004 57.1433C377.06 57.1718 377.125 57.1777 377.185 57.1597C377.245 57.1416 377.295 57.101 377.326 57.0464C377.357 56.9917 377.366 56.9273 377.35 56.8666C377.334 56.8058 377.296 56.7535 377.242 56.7205Z" fill="#202251"/>
<path d="M376.473 53.6621C374.93 51.7927 373.882 49.5657 373.424 47.1855C372.947 44.7837 372.871 41.9592 374.499 39.9668C376.203 37.8754 378.866 37.0568 381.394 36.4586C384.123 35.8358 386.915 35.5339 389.714 35.5591C392.521 35.5591 395.561 35.4601 397.729 37.5381C399.488 39.2202 400.297 41.5859 400.455 43.9742C400.644 46.7402 400.338 49.6277 398.988 52.0924C398.439 53.1538 397.681 54.0933 396.76 54.8546C395.839 55.6158 394.773 56.1832 393.627 56.5226C392.09 56.8703 390.527 57.0929 388.954 57.1882C387.359 57.3628 385.75 57.3824 384.151 57.2467C381.272 56.9633 378.394 55.8974 376.473 53.6486C376.266 53.4057 375.925 53.761 376.127 53.9994C380.085 58.5915 386.777 58.0787 392.179 57.2962C393.47 57.1501 394.72 56.7479 395.854 56.1133C396.903 55.4688 397.819 54.629 398.552 53.6396C400.243 51.3908 400.918 48.5887 400.976 45.8272C401.03 43.2725 400.657 40.7179 399.204 38.559C398.506 37.4891 397.548 36.6134 396.42 36.0134C395.045 35.3805 393.544 35.0654 392.031 35.0913C389.023 34.9495 386.009 35.1137 383.035 35.5816C380.337 36.0628 377.404 36.751 375.236 38.5006C374.217 39.2874 373.438 40.3436 372.988 41.5499C372.607 42.8279 372.49 44.17 372.646 45.4944C372.836 47.9804 373.629 50.3826 374.958 52.4927C375.297 53.0182 375.669 53.5215 376.073 53.9994C376.334 54.2557 376.676 53.9004 376.473 53.6621Z" fill="#202251"/>
<path d="M403.077 40.8798C404.129 41.1002 404.525 42.1571 404.655 43.1286C404.774 44.0036 404.829 44.8859 404.822 45.7687C404.822 47.5273 404.305 49.4343 402.712 50.4103C402.663 50.4469 402.63 50.5003 402.618 50.5603C402.606 50.6204 402.616 50.6827 402.648 50.7353C402.679 50.7878 402.729 50.8269 402.787 50.845C402.846 50.8631 402.909 50.8588 402.964 50.8331C404.763 49.7266 405.321 47.5723 405.312 45.5753C405.312 43.8842 405.352 40.8708 403.198 40.421C402.892 40.3401 402.766 40.8123 403.077 40.8798Z" fill="#202251"/>
<path d="M399.677 45.0176C399.515 42.7688 398.728 40.52 397.037 38.9098L396.915 38.8019C397.018 38.9527 397.09 39.123 397.126 39.3024C397.161 39.4817 397.16 39.6665 397.122 39.8453C396.852 40.9158 395.026 41.379 393.043 40.8798C391.059 40.3806 389.669 39.1122 389.939 38.0373C390.025 37.79 390.17 37.5677 390.362 37.3904C390.555 37.213 390.788 37.086 391.041 37.0208C390.47 37.0208 389.899 37.0208 389.337 37.0208C386.653 36.9872 383.975 37.2603 381.353 37.8349C378.934 38.3926 376.379 39.1842 374.751 41.1317C373.195 43.0117 373.276 45.6878 373.743 47.9636C374.195 50.2268 375.21 52.3397 376.694 54.1073C378.547 56.2257 381.313 57.2557 384.074 57.539C385.609 57.671 387.152 57.6589 388.684 57.503C390.198 57.4186 391.702 57.2126 393.182 56.8869C394.272 56.5717 395.288 56.039 396.166 55.3209C397.045 54.6028 397.77 53.7142 398.296 52.7086C399.582 50.3698 399.866 47.6352 399.677 45.0176Z" fill="#202251"/>
<path d="M394.905 47.208C394.095 49.2814 388.608 48.5168 386.026 49.5288C389.498 46.5244 390.038 45.4584 391.491 43.6369C392.944 41.8153 394.761 42.9757 397.338 41.6444C399.915 40.3131 398.791 39.7374 400.486 37.4706C401.835 35.6716 405.933 34.2908 407.804 33.8365C406.778 34.3493 404.467 35.6671 403.419 36.841C402.114 38.3072 402.636 41.0103 399.74 42.7868C396.843 44.5634 395.917 44.6129 394.905 47.208Z" fill="white" stroke="#202251" stroke-width="0.449763" stroke-linejoin="round"/>
<path d="M377.017 47.7072C377.701 49.7266 381.457 48.6067 383.314 49.4477C380.732 46.6772 380.296 45.6472 379.181 43.9201C378.065 42.1931 376.874 43.4704 375.007 42.3145C373.14 41.1586 373.892 40.5154 372.583 38.3521C371.535 36.6295 368.616 35.5321 367.289 35.2037C368.031 35.6535 369.713 36.8139 370.509 37.9023C371.503 39.2831 371.292 42.0132 373.406 43.6008C375.52 45.1885 376.167 45.1885 377.017 47.7072Z" fill="white" stroke="#202251" stroke-width="0.449763" stroke-linejoin="round"/>
<path d="M395.993 58.515C397.131 58.515 398.642 59.7878 399.204 60.6379C400.252 62.2166 401.336 63.9257 401.143 65.7382C401.053 66.6377 399.991 67.2809 398.966 67.3888C397.939 67.4227 396.917 67.2403 395.966 66.8536" fill="white"/>
<path d="M395.993 58.515C397.131 58.515 398.642 59.7878 399.204 60.6379C400.252 62.2166 401.336 63.9257 401.143 65.7382C401.053 66.6377 399.991 67.2809 398.966 67.3888C397.939 67.4227 396.917 67.2403 395.966 66.8536" stroke="#1F2250" stroke-width="0.34182" stroke-miterlimit="10"/>
<path d="M378.205 59.1447C377.067 59.1447 375.556 60.4175 374.994 61.263C373.946 62.8462 372.862 64.5553 373.055 66.3633C373.145 67.2629 374.207 67.906 375.232 68.014C376.259 68.0501 377.281 67.8677 378.232 67.4788" fill="white"/>
<path d="M378.205 59.1447C377.067 59.1447 375.556 60.4175 374.994 61.263C373.946 62.8462 372.862 64.5553 373.055 66.3633C373.145 67.2629 374.207 67.906 375.232 68.014C376.259 68.0501 377.281 67.8677 378.232 67.4788" stroke="#1F2250" stroke-width="0.34182" stroke-miterlimit="10"/>
<path d="M388.109 78.8803H386.332C386.301 78.8219 386.242 78.8444 386.193 78.8399C385.611 78.786 385.034 78.6913 384.466 78.5565C382.152 77.9978 380.06 76.7549 378.462 74.99C376.865 73.225 375.836 71.0198 375.511 68.6617C375.506 68.4226 375.47 68.1851 375.403 67.9556V66.1565C375.466 66.1251 375.439 66.0666 375.443 66.0171C375.499 65.4734 375.591 64.934 375.718 64.4025C376.203 62.2978 377.254 60.3658 378.758 58.8156C380.262 57.2654 382.161 56.156 384.25 55.6075C386.339 55.059 388.538 55.0922 390.61 55.7036C392.681 56.315 394.546 57.4813 396.003 59.0762C397.459 60.6712 398.451 62.634 398.873 64.7524C399.294 66.8708 399.127 69.064 398.392 71.0947C397.656 73.1254 396.379 74.9163 394.699 76.2735C393.019 77.6308 391 78.5027 388.86 78.7949C388.607 78.7985 388.356 78.8271 388.109 78.8803ZM395.408 66.4669C395.336 66.4472 395.26 66.4472 395.188 66.4669H392.998C392.728 66.4669 392.458 66.4669 392.192 66.4669C392.103 66.4669 392.08 66.4219 392.08 66.3454C392.08 66.269 392.08 66.2195 392.188 66.224H395.858C396.25 66.1985 396.62 66.0334 396.9 65.7586C397.181 65.4838 397.354 65.1176 397.387 64.7263C397.387 64.4115 397.311 64.3125 396.987 64.3125H391.365C390.964 64.3117 390.567 64.3896 390.196 64.5419C389.683 64.7408 389.243 65.0916 388.935 65.5473C388.627 66.0031 388.466 66.5421 388.473 67.092C388.491 67.472 388.584 67.8447 388.747 68.1883C388.911 68.5318 389.141 68.8395 389.424 69.0932C389.707 69.3469 390.039 69.5416 390.398 69.666C390.758 69.7904 391.138 69.8419 391.518 69.8176C391.913 69.8184 392.298 69.6963 392.62 69.4682C392.943 69.2401 393.186 68.9174 393.317 68.5448C393.371 68.3874 393.339 68.3604 393.182 68.3649C392.84 68.3649 392.498 68.3649 392.157 68.3649C392.067 68.3649 391.995 68.3649 391.999 68.2344C392.004 68.104 392.076 68.122 392.152 68.122C392.647 68.122 393.142 68.122 393.632 68.122C393.982 68.1277 394.324 68.0117 394.599 67.7937C395.022 67.4655 395.31 66.9934 395.408 66.4669ZM381.115 68.3064C381.178 68.6005 381.314 68.874 381.511 69.1018C381.707 69.3297 381.958 69.5047 382.239 69.6107C382.749 69.795 383.302 69.8217 383.827 69.6872C384.185 69.6147 384.526 69.4713 384.828 69.2653C385.13 69.0593 385.389 68.795 385.587 68.4878C385.786 68.1806 385.921 67.8368 385.985 67.4766C386.049 67.1165 386.04 66.7471 385.959 66.3904C385.798 65.7955 385.448 65.2692 384.961 64.8917C384.473 64.5142 383.876 64.3061 383.26 64.299C381.326 64.2675 379.397 64.299 377.463 64.299C377.175 64.299 377.089 64.416 377.121 64.6993C377.121 64.7533 377.121 64.8073 377.121 64.8567C377.186 65.2172 377.372 65.5446 377.649 65.785C377.925 66.0254 378.275 66.1644 378.641 66.179H382.289C382.379 66.179 382.455 66.179 382.451 66.305C382.446 66.4309 382.374 66.4174 382.298 66.4174H381.07C380.458 66.4174 379.846 66.4174 379.235 66.4174C379.118 66.4174 379.091 66.4399 379.127 66.5568C379.197 66.9024 379.352 67.2253 379.577 67.4968C379.731 67.685 379.927 67.8358 380.148 67.9378C380.369 68.0399 380.61 68.0905 380.854 68.086C381.304 68.059 381.803 68.086 382.275 68.086C382.356 68.086 382.446 68.0545 382.446 68.1985C382.446 68.3424 382.37 68.3244 382.284 68.3244L381.115 68.3064Z" fill="#735AA6"/>
<path d="M395.408 66.4668C395.312 66.9881 395.029 67.4564 394.612 67.7846C394.338 68.0026 393.996 68.1187 393.645 68.113C393.155 68.0905 392.66 68.113 392.166 68.113C392.089 68.113 392.013 68.113 392.013 68.2254C392.013 68.3378 392.08 68.3558 392.17 68.3558C392.512 68.3558 392.854 68.3558 393.196 68.3558C393.353 68.3558 393.384 68.3783 393.33 68.5357C393.2 68.9084 392.956 69.2311 392.634 69.4592C392.312 69.6872 391.926 69.8094 391.531 69.8086C391.152 69.8329 390.771 69.7813 390.412 69.657C390.052 69.5326 389.721 69.3378 389.438 69.0841C389.154 68.8304 388.924 68.5228 388.761 68.1792C388.597 67.8356 388.504 67.463 388.487 67.083C388.48 66.533 388.641 65.9941 388.949 65.5383C389.257 65.0825 389.696 64.7317 390.209 64.5329C390.58 64.3806 390.977 64.3026 391.379 64.3035H397.001C397.324 64.3035 397.41 64.4024 397.401 64.7173C397.367 65.1085 397.194 65.4748 396.914 65.7496C396.633 66.0244 396.264 66.1895 395.872 66.215H392.202C392.116 66.215 392.094 66.2554 392.094 66.3364C392.094 66.4174 392.094 66.4578 392.206 66.4578C392.471 66.4578 392.741 66.4578 393.011 66.4578H395.202C395.27 66.4435 395.341 66.4465 395.408 66.4668Z" fill="white"/>
<path d="M381.115 68.3064H382.325C382.41 68.3064 382.491 68.3064 382.487 68.1804C382.482 68.0545 382.397 68.068 382.316 68.068C381.866 68.068 381.367 68.0455 380.894 68.068C380.651 68.0725 380.409 68.0218 380.188 67.9198C379.967 67.8178 379.772 67.667 379.617 67.4788C379.392 67.2073 379.238 66.8844 379.167 66.5388C379.131 66.4219 379.167 66.3949 379.275 66.3994C379.887 66.3994 380.499 66.3994 381.11 66.3994H382.356C382.433 66.3994 382.505 66.3994 382.509 66.2869C382.514 66.1745 382.437 66.161 382.347 66.161H378.7C378.334 66.1464 377.983 66.0074 377.707 65.767C377.431 65.5266 377.245 65.1991 377.179 64.8387C377.179 64.7892 377.179 64.7352 377.179 64.6813C377.148 64.3979 377.233 64.2855 377.521 64.281C379.455 64.281 381.385 64.2585 383.319 64.281C383.935 64.2881 384.532 64.4962 385.019 64.8737C385.506 65.2512 385.857 65.7774 386.017 66.3724C386.098 66.7291 386.107 67.0984 386.043 67.4586C385.979 67.8188 385.844 68.1626 385.646 68.4698C385.447 68.7769 385.189 69.0413 384.887 69.2473C384.584 69.4532 384.244 69.5967 383.885 69.6691C383.36 69.8036 382.807 69.777 382.298 69.5927C382.007 69.4965 381.747 69.3279 381.54 69.1028C381.333 68.8777 381.186 68.6036 381.115 68.3064Z" fill="white"/>
<path d="M375.057 69.3498C374.917 69.3498 374.773 69.3093 374.634 69.3003C374.258 69.22 373.921 69.0156 373.676 68.7201C373.4 68.4274 373.194 68.0754 373.075 67.6911C372.956 67.3068 372.926 66.9004 372.988 66.5028C373.083 66.0265 373.275 65.5745 373.55 65.174C373.825 64.7736 374.178 64.4331 374.589 64.173C374.838 63.9944 375.137 63.8999 375.443 63.9031C375.768 63.8893 376.093 63.9257 376.406 64.0111C376.563 64.0549 376.708 64.1345 376.829 64.2438C376.95 64.3531 377.044 64.489 377.103 64.6407C377.188 64.9016 377.143 65.2209 377.337 65.4188C377.404 65.4953 377.499 65.5448 377.553 65.6302C377.599 65.7252 377.616 65.8315 377.602 65.9361L377.544 67.8116C377.582 68.2759 377.446 68.7378 377.161 69.1069C376.853 69.3615 376.458 69.4858 376.06 69.4532C375.723 69.446 375.388 69.4114 375.057 69.3498Z" fill="white" stroke="#1F2250" stroke-width="0.157417" stroke-miterlimit="10"/>
<path d="M398.808 68.9855C398.952 68.9855 399.096 68.9855 399.258 68.9855C399.641 68.946 399.999 68.7779 400.275 68.5088C400.575 68.2438 400.812 67.9146 400.968 67.5455C401.123 67.1764 401.194 66.777 401.174 66.3769C401.129 65.8935 400.985 65.4243 400.754 64.9976C400.522 64.5709 400.206 64.1956 399.825 63.8942C399.601 63.6847 399.312 63.5578 399.006 63.5344C398.684 63.4849 398.357 63.4849 398.035 63.5344C397.874 63.5611 397.721 63.625 397.589 63.721C397.457 63.8171 397.35 63.9426 397.275 64.0876C397.162 64.3395 397.171 64.6588 396.964 64.8387C396.888 64.9062 396.785 64.9422 396.722 65.0231C396.667 65.1124 396.639 65.2154 396.641 65.32L396.506 67.191C396.411 67.6547 396.496 68.137 396.744 68.5403C397.027 68.821 397.407 68.982 397.806 68.99C398.14 69.0131 398.475 69.0116 398.808 68.9855Z" fill="white" stroke="#1F2250" stroke-width="0.157417" stroke-miterlimit="10"/>
<path d="M406.63 61.7084H411.321V72.2463C411.321 72.8678 411.074 73.4638 410.635 73.9033C410.195 74.3427 409.599 74.5896 408.978 74.5896C408.356 74.5896 407.76 74.3427 407.321 73.9033C406.881 73.4638 406.634 72.8678 406.634 72.2463V61.7084H406.63Z" fill="white" stroke="#1F2250" stroke-width="0.449763" stroke-miterlimit="10"/>
<path d="M407.831 57.0083L408.973 55.7849L410.322 57.2377C410.939 57.8533 411.293 58.6831 411.312 59.5539V61.5599H406.621V59.8238C406.647 58.7645 407.08 57.756 407.831 57.0083Z" fill="white" stroke="#1F2250" stroke-width="0.337322" stroke-miterlimit="10"/>
<path d="M406.625 69.3588V70.888V72.9029H403.954L406.625 69.3588Z" fill="white" stroke="#1F2250" stroke-width="0.449763" stroke-miterlimit="10"/>
<path d="M411.316 69.6332V71.1579V73.1728H413.988L411.316 69.6332Z" fill="white" stroke="#1F2250" stroke-width="0.449763" stroke-miterlimit="10"/>
<path d="M362.76 61.7084H367.447V72.2463C367.447 72.8678 367.2 73.4638 366.76 73.9033C366.321 74.3427 365.725 74.5896 365.103 74.5896C364.482 74.5896 363.886 74.3427 363.446 73.9033C363.007 73.4638 362.76 72.8678 362.76 72.2463V61.7084Z" fill="white" stroke="#1F2250" stroke-width="0.449763" stroke-miterlimit="10"/>
<path d="M363.961 57.0083L365.103 55.7849L366.453 57.2377C367.069 57.8533 367.423 58.6831 367.442 59.5539V61.5599H362.76V59.8238C362.782 58.7656 363.213 57.7569 363.961 57.0083Z" fill="white" stroke="#1F2250" stroke-width="0.337322" stroke-miterlimit="10"/>
<path d="M362.76 69.3588V70.888V72.9029H360.084L362.76 69.3588Z" fill="white" stroke="#1F2250" stroke-width="0.449763" stroke-miterlimit="10"/>
<path d="M367.447 69.6332V71.1579V73.1728H370.118L367.447 69.6332Z" fill="white" stroke="#1F2250" stroke-width="0.449763" stroke-miterlimit="10"/>
<path d="M382.226 88.2128C382.821 88.4172 383.333 88.8085 383.687 89.3283C384.085 89.8925 384.426 90.4952 384.704 91.1273C384.475 91.0239 383.804 90.6011 383.804 90.6011L384.056 92.2202L383.908 94.1362L383.283 93.3491L382.68 96.4165L382.055 95.1212L380.598 98.4135L379.298 95.3821L378.551 96.9697L377.8 94.0867L377.251 94.8019V91.721L376.275 92.2877C376.275 92.2877 376.469 90.0839 376.82 89.6926C377.087 89.347 377.406 89.0437 377.764 88.793C378.417 88.3813 379.169 88.1557 379.941 88.1409C380.278 88.1409 381.029 88.1768 381.367 88.1634C381.638 88.1343 381.913 88.1557 382.176 88.2263" fill="url(#paint2_linear)"/>
<path d="M381.376 88.8066C381.727 88.9505 382.018 89.2089 382.203 89.5397C382.433 89.9162 382.626 90.3138 382.779 90.7271C382.649 90.6596 382.262 90.3853 382.262 90.3853L382.406 91.4467L382.32 92.7016L381.969 92.1888L381.628 94.1948L381.272 93.3492L380.449 95.5081L379.712 93.5201L379.289 94.5591L378.866 92.6476L378.56 93.0973V91.0824L378.016 91.4512C378.016 91.4512 378.124 90.0075 378.322 89.7511C378.47 89.525 378.65 89.3219 378.857 89.1484C379.214 88.8831 379.645 88.734 380.089 88.7212C380.278 88.7212 380.706 88.7481 380.894 88.7212C381.046 88.704 381.199 88.7177 381.344 88.7616" fill="url(#paint3_linear)"/>
<path d="M394.666 88.2128C395.261 88.4172 395.774 88.8085 396.128 89.3283C396.526 89.8925 396.866 90.4952 397.144 91.1273C396.915 91.0239 396.245 90.6011 396.245 90.6011L396.497 92.2202L396.348 94.1362L395.723 93.3491L395.12 96.4165L394.495 95.1212L393.038 98.4135L391.738 95.3821L390.992 96.9697L390.254 94.0553L389.705 94.7704V91.6895L388.716 92.2877C388.716 92.2877 388.909 90.0839 389.26 89.6926C389.528 89.347 389.846 89.0437 390.205 88.793C390.857 88.3813 391.61 88.1557 392.381 88.1409C392.719 88.1409 393.47 88.1768 393.807 88.1634C394.079 88.1343 394.353 88.1557 394.617 88.2263" fill="url(#paint4_linear)"/>
<path d="M393.816 88.8066C394.167 88.9504 394.459 89.2088 394.644 89.5397C394.873 89.9161 395.066 90.3137 395.219 90.727C395.089 90.6596 394.702 90.3852 394.702 90.3852L394.846 91.4467L394.761 92.7015L394.41 92.1888L394.068 94.1947L393.713 93.3492L392.89 95.508L392.152 93.5201L391.729 94.559L391.311 92.6475L391.005 93.0973V91.0824L390.461 91.4512C390.461 91.4512 390.569 90.0074 390.767 89.7511C390.915 89.5249 391.095 89.3219 391.302 89.1484C391.659 88.8831 392.089 88.7339 392.534 88.7211C392.723 88.7211 393.151 88.7481 393.344 88.7211C393.495 88.7034 393.648 88.7172 393.794 88.7616" fill="white"/>
</g>
<defs>
<linearGradient id="paint0_linear" x1="317.457" y1="90.3602" x2="317.457" y2="98.6864" gradientUnits="userSpaceOnUse">
<stop offset="0.07" stop-color="#BE202E" stop-opacity="0.96"/>
<stop offset="0.14" stop-color="#CA382B" stop-opacity="0.97"/>
<stop offset="0.31" stop-color="#E36A26" stop-opacity="0.99"/>
<stop offset="0.43" stop-color="#F28922"/>
<stop offset="0.5" stop-color="#F89521"/>
<stop offset="0.64" stop-color="#FAB822"/>
<stop offset="0.78" stop-color="#FBD522"/>
<stop offset="0.91" stop-color="#FCE823"/>
<stop offset="1" stop-color="#FCEE23"/>
</linearGradient>
<linearGradient id="paint1_linear" x1="-75603.4" y1="-29706.2" x2="-75603.4" y2="-29936.1" gradientUnits="userSpaceOnUse">
<stop offset="0.07" stop-color="#BE202E" stop-opacity="0.96"/>
<stop offset="0.14" stop-color="#CA382B" stop-opacity="0.97"/>
<stop offset="0.31" stop-color="#E36A26" stop-opacity="0.99"/>
<stop offset="0.43" stop-color="#F28922"/>
<stop offset="0.5" stop-color="#F89521"/>
<stop offset="0.64" stop-color="#FAB822"/>
<stop offset="0.78" stop-color="#FBD522"/>
<stop offset="0.91" stop-color="#FCE823"/>
<stop offset="1" stop-color="#FCEE23"/>
</linearGradient>
<linearGradient id="paint2_linear" x1="393.744" y1="93.3225" x2="393.744" y2="103.683" gradientUnits="userSpaceOnUse">
<stop offset="0.07" stop-color="#BE202E" stop-opacity="0.96"/>
<stop offset="0.14" stop-color="#CA382B" stop-opacity="0.97"/>
<stop offset="0.31" stop-color="#E36A26" stop-opacity="0.99"/>
<stop offset="0.43" stop-color="#F28922"/>
<stop offset="0.5" stop-color="#F89521"/>
<stop offset="0.64" stop-color="#FAB822"/>
<stop offset="0.78" stop-color="#FBD522"/>
<stop offset="0.91" stop-color="#FCE823"/>
<stop offset="1" stop-color="#FCEE23"/>
</linearGradient>
<linearGradient id="paint3_linear" x1="378.154" y1="85.8389" x2="378.132" y2="92.6063" gradientUnits="userSpaceOnUse">
<stop offset="0.12" stop-color="white" stop-opacity="0"/>
<stop offset="0.18" stop-color="white" stop-opacity="0.07"/>
<stop offset="0.75" stop-color="white" stop-opacity="0.73"/>
<stop offset="0.99" stop-color="white"/>
</linearGradient>
<linearGradient id="paint4_linear" x1="-97192.7" y1="-37597.5" x2="-97192.7" y2="-37851.9" gradientUnits="userSpaceOnUse">
<stop offset="0.07" stop-color="#BE202E" stop-opacity="0.96"/>
<stop offset="0.14" stop-color="#CA382B" stop-opacity="0.97"/>
<stop offset="0.31" stop-color="#E36A26" stop-opacity="0.99"/>
<stop offset="0.43" stop-color="#F28922"/>
<stop offset="0.5" stop-color="#F89521"/>
<stop offset="0.64" stop-color="#FAB822"/>
<stop offset="0.78" stop-color="#FBD522"/>
<stop offset="0.91" stop-color="#FCE823"/>
<stop offset="1" stop-color="#FCEE23"/>
</linearGradient>
<clipPath id="clip0">
<rect width="169.914" height="33" fill="white" transform="translate(62 46)"/>
</clipPath>
<clipPath id="clip1">
<rect width="158" height="38.32" fill="white" transform="translate(64 114)"/>
</clipPath>
<clipPath id="clip2">
<rect width="45" height="54.991" fill="white" transform="translate(291 40)"/>
</clipPath>
<clipPath id="clip3">
<rect width="56" height="68.4314" fill="white" transform="translate(359 30)"/>
</clipPath>
</defs>
</svg>
