<svg width="510" height="211" viewBox="0 0 510 211" fill="none" xmlns="http://www.w3.org/2000/svg">
<rect width="510" height="210" rx="30" fill="#202251"/>
<rect width="510" height="210" rx="30" fill="#131234"/>
<g clip-path="url(#clip0)">
<path d="M388.103 105.769H360.075L358.621 109.367H389.558L388.103 105.769Z" fill="white" stroke="#1F2250" stroke-width="0.408647" stroke-miterlimit="10"/>
<path d="M423.587 147.231C423.587 144.05 422.717 140.93 421.07 138.209C419.423 135.488 417.062 133.269 414.245 131.794C414.545 130.099 414.469 128.358 414.023 126.695C413.577 125.032 412.772 123.487 411.664 122.169C410.556 120.851 409.173 119.792 407.611 119.067C406.05 118.342 404.348 117.968 402.626 117.972C402.015 117.978 401.406 118.03 400.803 118.129C399.433 115.947 397.595 114.097 395.422 112.713C393.249 111.328 390.796 110.444 388.24 110.123C385.683 109.803 383.088 110.054 380.641 110.859C378.193 111.665 375.955 113.003 374.089 114.779C372.222 113.007 369.984 111.672 367.538 110.87C365.093 110.067 362.499 109.818 359.945 110.139C357.391 110.46 354.94 111.344 352.769 112.727C350.598 114.11 348.761 115.958 347.391 118.137C345.705 117.861 343.979 117.957 342.335 118.418C340.69 118.879 339.166 119.693 337.869 120.804C336.571 121.915 335.532 123.296 334.824 124.85C334.116 126.405 333.756 128.095 333.769 129.803C333.772 130.475 333.832 131.145 333.949 131.806C331.131 133.281 328.771 135.5 327.124 138.221C325.477 140.942 324.606 144.062 324.606 147.243C324.606 150.423 325.477 153.543 327.124 156.264C328.771 158.986 331.131 161.204 333.949 162.679C333.832 163.34 333.772 164.011 333.769 164.682C333.756 166.39 334.116 168.08 334.824 169.635C335.532 171.189 336.571 172.57 337.869 173.681C339.166 174.792 340.69 175.607 342.335 176.067C343.979 176.528 345.705 176.624 347.391 176.349C349.11 179.079 351.554 181.277 354.45 182.699C357.346 184.121 360.58 184.71 363.792 184.401C367.003 184.092 370.065 182.896 372.637 180.948C375.209 179 377.189 176.376 378.356 173.368C379.512 174.441 380.871 175.27 382.354 175.807C383.837 176.344 385.412 176.578 386.987 176.494C388.562 176.41 390.104 176.011 391.521 175.32C392.939 174.629 394.203 173.66 395.238 172.471C396.758 173.913 398.668 174.879 400.731 175.247C402.794 175.616 404.92 175.371 406.845 174.543C408.77 173.715 410.411 172.341 411.563 170.591C412.715 168.84 413.328 166.79 413.327 164.694C413.323 164.191 413.284 163.689 413.211 163.192C416.302 161.825 418.929 159.588 420.772 156.754C422.614 153.92 423.592 150.611 423.587 147.231Z" fill="white" stroke="#1F2250" stroke-width="0.821301" stroke-miterlimit="10"/>
<path d="M362.667 113.477H360.135V120.901H362.667V113.477Z" fill="#92278F"/>
<path d="M367.735 113.477H365.203V120.901H367.735V113.477Z" fill="#92278F"/>
<path d="M372.827 113.477H370.295V120.901H372.827V113.477Z" fill="#92278F"/>
<path d="M377.895 113.477H375.363V120.901H377.895V113.477Z" fill="#92278F"/>
<path d="M382.975 113.477H380.443V120.901H382.975V113.477Z" fill="#92278F"/>
<path d="M388.043 113.477H385.511V120.901H388.043V113.477Z" fill="#92278F"/>
<path d="M369.922 140.368C369.543 140.372 369.176 140.229 368.901 139.967L362.07 133.277H333.913C333.54 133.257 333.189 133.095 332.932 132.824C332.675 132.553 332.531 132.194 332.531 131.82C332.531 131.447 332.675 131.087 332.932 130.816C333.189 130.545 333.54 130.383 333.913 130.364H362.651C363.029 130.359 363.395 130.503 363.668 130.765L370.924 137.868C371.061 138.002 371.17 138.161 371.245 138.337C371.32 138.513 371.359 138.702 371.361 138.893C371.363 139.085 371.327 139.274 371.256 139.452C371.184 139.629 371.078 139.791 370.944 139.927C370.811 140.064 370.653 140.174 370.477 140.25C370.302 140.326 370.113 140.366 369.922 140.368Z" fill="#1F2250" stroke="white" stroke-width="0.408647" stroke-miterlimit="10"/>
<path d="M345.68 150.223H324.659C324.286 150.204 323.934 150.042 323.677 149.771C323.42 149.5 323.277 149.141 323.277 148.767C323.277 148.394 323.42 148.034 323.677 147.763C323.934 147.492 324.286 147.33 324.659 147.311H345.68C345.878 147.3 346.075 147.33 346.261 147.399C346.447 147.467 346.616 147.573 346.76 147.709C346.904 147.846 347.018 148.01 347.096 148.191C347.174 148.373 347.215 148.569 347.215 148.767C347.215 148.965 347.174 149.161 347.096 149.343C347.018 149.525 346.904 149.689 346.76 149.825C346.616 149.961 346.447 150.067 346.261 150.135C346.075 150.204 345.878 150.234 345.68 150.223Z" fill="#1F2250" stroke="white" stroke-width="0.408647" stroke-miterlimit="10"/>
<path d="M347.935 164.137H333.913C333.54 164.118 333.189 163.956 332.932 163.685C332.675 163.414 332.531 163.055 332.531 162.681C332.531 162.308 332.675 161.948 332.932 161.677C333.189 161.406 333.54 161.244 333.913 161.225H347.427L356.241 154.19C356.39 154.07 356.561 153.982 356.745 153.929C356.929 153.876 357.121 153.86 357.311 153.881C357.501 153.903 357.685 153.961 357.852 154.054C358.019 154.146 358.167 154.271 358.286 154.42C358.405 154.569 358.494 154.741 358.547 154.924C358.599 155.108 358.616 155.3 358.594 155.49C358.573 155.68 358.514 155.864 358.422 156.031C358.329 156.199 358.205 156.346 358.055 156.465L348.841 163.821C348.583 164.025 348.264 164.137 347.935 164.137Z" fill="#1F2250" stroke="white" stroke-width="0.408647" stroke-miterlimit="10"/>
<path d="M400.787 130.268H391.008C390.81 130.278 390.612 130.248 390.427 130.18C390.241 130.111 390.071 130.006 389.928 129.869C389.784 129.733 389.67 129.569 389.592 129.387C389.513 129.205 389.473 129.01 389.473 128.812C389.473 128.614 389.513 128.418 389.592 128.236C389.67 128.054 389.784 127.89 389.928 127.754C390.071 127.617 390.241 127.512 390.427 127.443C390.612 127.375 390.81 127.345 391.008 127.355H399.329V118.141C399.319 117.943 399.349 117.745 399.417 117.56C399.486 117.374 399.591 117.204 399.727 117.06C399.864 116.917 400.028 116.803 400.21 116.724C400.392 116.646 400.587 116.606 400.785 116.606C400.983 116.606 401.179 116.646 401.361 116.724C401.543 116.803 401.707 116.917 401.843 117.06C401.979 117.204 402.085 117.374 402.154 117.56C402.222 117.745 402.252 117.943 402.242 118.141V128.802C402.243 128.993 402.206 129.184 402.133 129.361C402.061 129.539 401.954 129.7 401.819 129.837C401.684 129.973 401.523 130.081 401.346 130.155C401.169 130.229 400.979 130.267 400.787 130.268Z" fill="#1F2250" stroke="white" stroke-width="0.408647" stroke-miterlimit="10"/>
<path d="M399.469 150.223H386.845C386.472 150.204 386.121 150.042 385.864 149.771C385.607 149.5 385.463 149.141 385.463 148.767C385.463 148.394 385.607 148.034 385.864 147.763C386.121 147.492 386.472 147.33 386.845 147.311H398.696L404.197 139.194C404.33 138.998 404.509 138.837 404.718 138.726C404.928 138.615 405.161 138.557 405.398 138.557H422.013C422.386 138.576 422.737 138.738 422.994 139.009C423.251 139.28 423.395 139.64 423.395 140.013C423.395 140.387 423.251 140.746 422.994 141.017C422.737 141.288 422.386 141.45 422.013 141.469H406.172L400.675 149.586C400.541 149.782 400.361 149.943 400.151 150.054C399.941 150.165 399.707 150.223 399.469 150.223Z" fill="#1F2250" stroke="white" stroke-width="0.408647" stroke-miterlimit="10"/>
<path d="M395.238 173.913C395.047 173.914 394.858 173.876 394.681 173.803C394.505 173.731 394.344 173.623 394.209 173.488C394.074 173.353 393.967 173.193 393.894 173.016C393.821 172.839 393.784 172.65 393.784 172.459V161.137C393.784 160.946 393.821 160.756 393.894 160.579C393.967 160.402 394.074 160.241 394.209 160.106C394.344 159.97 394.504 159.863 394.681 159.79C394.858 159.716 395.047 159.679 395.238 159.679H402.246C402.443 159.668 402.641 159.698 402.827 159.767C403.012 159.835 403.182 159.941 403.326 160.077C403.469 160.213 403.584 160.377 403.662 160.559C403.74 160.741 403.78 160.937 403.78 161.135C403.78 161.333 403.74 161.529 403.662 161.71C403.584 161.892 403.469 162.056 403.326 162.193C403.182 162.329 403.012 162.435 402.827 162.503C402.641 162.572 402.443 162.601 402.246 162.591H396.697V172.471C396.694 172.855 396.538 173.223 396.265 173.493C395.992 173.763 395.623 173.914 395.238 173.913Z" fill="#1F2250" stroke="white" stroke-width="0.408647" stroke-miterlimit="10"/>
<path d="M362.118 185.94C361.927 185.94 361.737 185.902 361.56 185.829C361.384 185.756 361.223 185.648 361.088 185.513C360.953 185.377 360.846 185.216 360.773 185.039C360.7 184.863 360.663 184.673 360.664 184.482V174.518C360.683 174.145 360.845 173.794 361.116 173.536C361.387 173.279 361.746 173.136 362.12 173.136C362.493 173.136 362.853 173.279 363.124 173.536C363.395 173.794 363.557 174.145 363.576 174.518V184.49C363.574 184.875 363.42 185.244 363.146 185.516C362.873 185.787 362.503 185.94 362.118 185.94Z" fill="#1F2250" stroke="white" stroke-width="0.408647" stroke-miterlimit="10"/>
<path d="M378.356 174.826C377.978 174.831 377.615 174.687 377.342 174.426L370.531 167.855C370.373 167.73 370.242 167.572 370.148 167.393C370.054 167.214 369.998 167.017 369.984 166.815C369.97 166.613 369.999 166.41 370.068 166.22C370.137 166.03 370.245 165.856 370.385 165.71C370.525 165.564 370.694 165.448 370.881 165.371C371.068 165.294 371.269 165.257 371.472 165.262C371.674 165.267 371.873 165.314 372.056 165.401C372.239 165.487 372.402 165.611 372.534 165.764L379.345 172.334C379.553 172.536 379.696 172.795 379.756 173.079C379.815 173.362 379.79 173.657 379.681 173.925C379.573 174.194 379.387 174.424 379.148 174.587C378.908 174.749 378.625 174.837 378.336 174.838L378.356 174.826Z" fill="#1F2250" stroke="white" stroke-width="0.408647" stroke-miterlimit="10"/>
<path d="M348.456 148.769C348.456 149.344 348.286 149.907 347.966 150.385C347.647 150.863 347.192 151.236 346.661 151.456C346.129 151.677 345.544 151.734 344.98 151.622C344.416 151.51 343.898 151.233 343.491 150.826C343.084 150.419 342.807 149.901 342.695 149.337C342.583 148.772 342.64 148.188 342.861 147.656C343.081 147.125 343.453 146.67 343.932 146.351C344.41 146.031 344.972 145.861 345.548 145.861C346.319 145.861 347.059 146.167 347.604 146.713C348.15 147.258 348.456 147.998 348.456 148.769Z" fill="#92278F" stroke="#1F2250" stroke-width="0.408647" stroke-miterlimit="10"/>
<path d="M369.922 141.818C371.526 141.818 372.827 140.518 372.827 138.914C372.827 137.309 371.526 136.009 369.922 136.009C368.318 136.009 367.018 137.309 367.018 138.914C367.018 140.518 368.318 141.818 369.922 141.818Z" fill="#92278F" stroke="#1F2250" stroke-width="0.408647" stroke-miterlimit="10"/>
<path d="M390.122 148.769C390.122 149.344 389.951 149.905 389.631 150.382C389.311 150.859 388.857 151.231 388.327 151.45C387.796 151.669 387.212 151.726 386.649 151.614C386.086 151.501 385.568 151.224 385.163 150.818C384.757 150.411 384.481 149.894 384.369 149.33C384.257 148.767 384.315 148.183 384.535 147.653C384.755 147.122 385.127 146.669 385.605 146.35C386.082 146.031 386.644 145.861 387.218 145.861C387.6 145.861 387.978 145.936 388.33 146.082C388.683 146.228 389.003 146.443 389.273 146.713C389.543 146.983 389.757 147.304 389.903 147.656C390.048 148.009 390.123 148.387 390.122 148.769Z" fill="#92278F" stroke="#1F2250" stroke-width="0.408647" stroke-miterlimit="10"/>
<path d="M402.25 164.041C403.854 164.041 405.154 162.741 405.154 161.137C405.154 159.532 403.854 158.232 402.25 158.232C400.646 158.232 399.345 159.532 399.345 161.137C399.345 162.741 400.646 164.041 402.25 164.041Z" fill="#92278F" stroke="#1F2250" stroke-width="0.408647" stroke-miterlimit="10"/>
<path d="M390.126 131.718C391.73 131.718 393.031 130.418 393.031 128.814C393.031 127.209 391.73 125.909 390.126 125.909C388.522 125.909 387.222 127.209 387.222 128.814C387.222 130.418 388.522 131.718 390.126 131.718Z" fill="#92278F" stroke="#1F2250" stroke-width="0.408647" stroke-miterlimit="10"/>
<path d="M374.466 166.798C374.466 167.373 374.295 167.936 373.975 168.414C373.655 168.893 373.201 169.265 372.669 169.485C372.137 169.705 371.552 169.763 370.988 169.65C370.424 169.538 369.906 169.26 369.499 168.853C369.092 168.446 368.816 167.927 368.704 167.363C368.592 166.798 368.65 166.213 368.871 165.682C369.092 165.151 369.465 164.697 369.944 164.377C370.423 164.058 370.986 163.888 371.561 163.889C372.332 163.89 373.07 164.197 373.615 164.742C374.16 165.288 374.466 166.027 374.466 166.798Z" fill="#92278F" stroke="#1F2250" stroke-width="0.408647" stroke-miterlimit="10"/>
<path d="M360.074 155.328C360.078 155.903 359.912 156.467 359.595 156.947C359.279 157.428 358.827 157.804 358.297 158.027C357.766 158.251 357.182 158.313 356.617 158.204C356.052 158.095 355.531 157.821 355.122 157.417C354.713 157.013 354.432 156.496 354.317 155.932C354.201 155.369 354.255 154.783 354.472 154.25C354.689 153.717 355.06 153.261 355.536 152.938C356.013 152.616 356.574 152.442 357.15 152.439C357.921 152.435 358.661 152.737 359.21 153.278C359.758 153.82 360.069 154.557 360.074 155.328Z" fill="#92278F" stroke="#1F2250" stroke-width="0.408647" stroke-miterlimit="10"/>
<path d="M391.008 108.862H357.17V115.933H391.008V108.862Z" fill="white" stroke="#1F2250" stroke-width="0.408647" stroke-miterlimit="10"/>
<path d="M416.62 185.964H331.225V210.05H416.62V185.964Z" fill="white" stroke="#1F2250" stroke-width="0.276438" stroke-miterlimit="10"/>
<path d="M411.148 191.437H336.702V201.709H411.148V191.437Z" fill="#1F2250" stroke="#1F2250" stroke-width="0.304482" stroke-miterlimit="10"/>
<path d="M403.976 207.494C405.085 207.494 405.983 206.595 405.983 205.487C405.983 204.378 405.085 203.48 403.976 203.48C402.868 203.48 401.969 204.378 401.969 205.487C401.969 206.595 402.868 207.494 403.976 207.494Z" fill="white" stroke="#1F2250" stroke-width="0.364578" stroke-miterlimit="10"/>
<path d="M396.312 207.494C397.421 207.494 398.319 206.595 398.319 205.487C398.319 204.378 397.421 203.48 396.312 203.48C395.204 203.48 394.305 204.378 394.305 205.487C394.305 206.595 395.204 207.494 396.312 207.494Z" fill="white" stroke="#1F2250" stroke-width="0.364578" stroke-miterlimit="10"/>
<path d="M414.068 173.348H333.781V186.485H414.068V173.348Z" fill="white" stroke="#202251" stroke-width="1.08973" stroke-linejoin="round"/>
<path d="M419.998 181.377H327.852V187.947H419.998V181.377Z" fill="white" stroke="#202251" stroke-width="0.825307" stroke-linejoin="round"/>
<path d="M374.217 178.248C379.961 178.248 384.618 173.591 384.618 167.847C384.618 162.103 379.961 157.447 374.217 157.447C368.473 157.447 363.817 162.103 363.817 167.847C363.817 173.591 368.473 178.248 374.217 178.248Z" fill="#1F2250" stroke="#1F2250" stroke-width="1.09373" stroke-miterlimit="10"/>
<path d="M344.254 88.8301L359.786 107.696H387.951L402.886 88.9663" fill="url(#paint0_linear)"/>
<path d="M369.61 80.2926C369.129 79.5274 369.117 78.5699 369.117 77.6684V72.7486C369.117 72.6284 369.025 72.5123 369.025 72.3921C369.025 72.1637 368.857 72.0555 368.769 71.8472C368.408 70.9778 368.709 69.6958 369.197 68.8905C369.722 68.1098 370.355 67.4071 371.076 66.8032C371.926 66.026 372.939 65.2007 374.077 65.3449C374.878 65.4531 375.523 66.03 376.116 66.5789L377.943 68.2816C378.717 68.9987 379.546 69.9883 379.197 70.9778C379.093 71.2663 378.889 71.5107 378.773 71.7791C378.635 72.204 378.592 72.654 378.648 73.0972L378.857 76.9873C378.939 77.8023 378.908 78.6247 378.765 79.4312C378.691 79.8343 378.535 80.2181 378.308 80.5591C378.081 80.9001 377.786 81.1911 377.443 81.4144C376.973 81.6481 376.466 81.7973 375.944 81.8551C375.143 81.9873 374.342 82.1115 373.54 82.2317C372.575 82.3799 371.561 82.5081 370.656 82.1475C369.75 81.7869 369.27 81.206 369.61 80.2926Z" fill="white" stroke="#202251" stroke-width="0.100159" stroke-linejoin="round"/>
<path d="M377.823 79.4633C377.719 79.228 377.565 79.0186 377.37 78.8504L377.162 76.9433L374.113 75.0884L370.932 76.9433C370.932 76.9433 371.02 78.7262 370.784 79.0787C370.035 80.2045 370.039 80.5971 370.039 82.5402C370.022 83.6208 370.299 84.6857 370.84 85.6211H370.796C371.013 86.3326 371.193 87.0547 371.337 87.7845C371.417 88.5257 371.185 89.3871 370.536 89.7276C370.107 89.9203 369.622 89.9488 369.173 89.8077C367.507 89.3791 366.369 87.8046 365.756 86.202C364.746 83.6504 364.579 80.8427 365.279 78.1893C365.464 77.4086 365.789 76.6676 366.237 76.0019C367.551 74.167 369.253 72.8168 367.883 70.3649C367.254 69.2391 364.879 67.1158 364.879 67.1158L366.421 64.4155C366.421 64.4155 361.738 59.2073 361.425 59.2353C359.883 59.3475 357.659 59.5358 355.816 59.68L355.904 55.7658L351.269 52.4365L344.106 54.0391L345.508 60.8499L349.915 64.0028L354.166 62.188C353.993 64.3113 353.821 66.8514 353.821 66.8514L358.444 71.1061L360.9 70.0685C360.9 70.0685 363.605 70.9098 363.524 72.1197C363.422 72.8361 363.213 73.5329 362.903 74.187C361.556 77.6723 361.391 81.5041 362.435 85.0923C362.691 86.0026 363.051 86.8805 363.508 87.7084C364.355 89.1767 365.56 90.4072 367.01 91.2855C368.46 92.1638 370.108 92.6615 371.802 92.7324C373.188 92.7764 374.702 92.4559 375.592 91.3902C376.854 89.8758 376.393 87.5241 377.358 85.8094H377.182C377.794 84.8402 378.113 83.7146 378.099 82.5683C378.087 80.7253 378.124 80.7253 377.823 79.4633ZM354.406 59.7962C354.382 60.0005 354.358 60.2649 354.33 60.5654L350.119 62.3683L346.79 59.9925L345.78 55.1088L350.969 53.9549L354.486 56.4789L354.406 59.7962ZM362.335 67.9691L358.653 69.0468L355.756 66.3025L355.94 61.7353L360.592 61.1904L363.833 64.6118L362.335 67.9691Z" fill="url(#paint1_radial)"/>
<g style="mix-blend-mode:screen" opacity="0.75">
<g style="mix-blend-mode:screen" opacity="0.75">
<path d="M377.823 79.4633C377.719 79.228 377.565 79.0186 377.37 78.8504L377.162 76.9433L374.113 75.0884L370.932 76.9433C370.932 76.9433 371.02 78.7262 370.784 79.0787C370.035 80.2045 370.039 80.5971 370.039 82.5402C370.022 83.6208 370.299 84.6857 370.84 85.6211H370.796C371.013 86.3326 371.193 87.0547 371.337 87.7845C371.417 88.5257 371.185 89.3871 370.536 89.7276C370.107 89.9203 369.622 89.9488 369.173 89.8077C367.507 89.3791 366.369 87.8046 365.756 86.202C364.746 83.6504 364.579 80.8427 365.279 78.1893C365.464 77.4086 365.789 76.6676 366.237 76.0019C367.551 74.167 369.253 72.8168 367.883 70.3649C367.254 69.2391 364.879 67.1158 364.879 67.1158L366.421 64.4155C366.421 64.4155 361.738 59.2073 361.425 59.2353C359.883 59.3475 357.659 59.5358 355.816 59.68L355.904 55.7658L351.269 52.4365L344.106 54.0391L345.508 60.8499L349.915 64.0028L354.166 62.188C353.993 64.3113 353.821 66.8514 353.821 66.8514L358.444 71.1061L360.9 70.0685C360.9 70.0685 363.605 70.9098 363.524 72.1197C363.422 72.8361 363.213 73.5329 362.903 74.187C361.556 77.6723 361.391 81.5041 362.435 85.0923C362.691 86.0026 363.051 86.8805 363.508 87.7084C364.355 89.1767 365.56 90.4072 367.01 91.2855C368.46 92.1638 370.108 92.6615 371.802 92.7324C373.188 92.7764 374.702 92.4559 375.592 91.3902C376.854 89.8758 376.393 87.5241 377.358 85.8094H377.182C377.794 84.8402 378.113 83.7146 378.099 82.5683C378.087 80.7253 378.124 80.7253 377.823 79.4633ZM354.406 59.7962C354.382 60.0005 354.358 60.2649 354.33 60.5654L350.119 62.3683L346.79 59.9925L345.78 55.1088L350.969 53.9549L354.486 56.4789L354.406 59.7962ZM362.335 67.9691L358.653 69.0468L355.756 66.3025L355.94 61.7353L360.592 61.1904L363.833 64.6118L362.335 67.9691Z" fill="#9951A0"/>
</g>
</g>
<path d="M369.514 78.0211C369.101 77.8451 368.656 77.7538 368.207 77.7527C365.828 77.7527 363.901 80.2967 363.901 83.4297C363.889 84.9995 364.423 86.5247 365.411 87.7445C366.26 88.8022 367.538 89.5394 368.488 90.5249C369.501 91.512 370.264 92.726 370.715 94.0665C370.815 94.3449 370.848 94.6426 370.812 94.9359C370.719 95.253 370.584 95.5562 370.411 95.8373C370.325 95.9795 370.276 96.1416 370.271 96.3079C370.265 96.4742 370.302 96.6391 370.379 96.7868C370.475 96.9004 370.601 96.9849 370.743 97.0309C370.884 97.0769 371.036 97.0825 371.18 97.0472C371.473 96.9597 371.745 96.8154 371.981 96.6226C372.55 96.2219 373.183 95.7412 373.256 95.0521C373.324 94.4952 373.019 93.9704 372.787 93.4496C372.154 92.0634 371.985 90.5129 371.857 88.9945C371.685 87.1716 372.342 85.1083 371.457 83.4337C371.196 82.9369 370.84 82.5002 370.559 82.0154C370.248 81.5421 370.107 80.977 370.159 80.4129" fill="white"/>
<path d="M369.514 78.0211C369.101 77.8451 368.656 77.7538 368.207 77.7527C365.828 77.7527 363.901 80.2967 363.901 83.4297C363.889 84.9995 364.423 86.5247 365.411 87.7445C366.26 88.8022 367.538 89.5394 368.488 90.5249C369.501 91.512 370.264 92.726 370.715 94.0665C370.815 94.3449 370.848 94.6426 370.812 94.9359C370.719 95.253 370.584 95.5562 370.411 95.8373C370.325 95.9796 370.276 96.1416 370.271 96.3079C370.265 96.4742 370.302 96.6391 370.379 96.7868C370.475 96.9004 370.601 96.9849 370.743 97.0309C370.884 97.0769 371.036 97.0825 371.18 97.0472C371.473 96.9597 371.745 96.8154 371.981 96.6226C372.55 96.2219 373.183 95.7412 373.256 95.0521C373.324 94.4952 373.019 93.9704 372.787 93.4496C372.154 92.0634 371.985 90.5129 371.857 88.9945C371.685 87.1716 372.342 85.1083 371.457 83.4337C371.196 82.9369 370.84 82.5002 370.559 82.0154C370.248 81.5421 370.107 80.977 370.159 80.4129" stroke="#202251" stroke-width="0.100159" stroke-linejoin="round"/>
<path d="M378.784 78.2454C379.198 78.0715 379.642 77.9816 380.091 77.981C382.47 77.981 384.401 80.521 384.401 83.6539C384.41 85.2251 383.875 86.751 382.887 87.9728C382.042 89.0305 380.76 89.7636 379.81 90.7492C378.799 91.7372 378.037 92.951 377.587 94.2908C377.485 94.5701 377.452 94.8696 377.49 95.1642C377.584 95.4808 377.719 95.7838 377.891 96.0656C377.978 96.2067 378.027 96.3679 378.033 96.5336C378.04 96.6993 378.003 96.8638 377.927 97.0111C377.829 97.129 377.699 97.2162 377.553 97.2623C377.406 97.3085 377.25 97.3117 377.102 97.2715C376.809 97.1861 376.537 97.0431 376.301 96.8509C375.732 96.4502 375.099 95.9695 375.031 95.2764C374.962 94.7235 375.263 94.1987 375.495 93.6738C376.128 92.2876 376.297 90.7372 376.425 89.2228C376.553 87.7084 376.264 86.242 376.565 84.6836C376.852 83.4009 377.241 82.143 377.727 80.9216L378.031 80.0963" fill="white"/>
<path d="M378.784 78.2454C379.198 78.0715 379.642 77.9816 380.091 77.981C382.47 77.981 384.401 80.521 384.401 83.6539C384.41 85.2251 383.875 86.751 382.887 87.9728C382.042 89.0305 380.76 89.7636 379.81 90.7492C378.799 91.7372 378.037 92.951 377.587 94.2908C377.485 94.5701 377.452 94.8696 377.49 95.1642C377.584 95.4808 377.719 95.7838 377.891 96.0656C377.978 96.2067 378.027 96.3679 378.033 96.5336C378.04 96.6993 378.003 96.8638 377.927 97.0111C377.829 97.129 377.699 97.2162 377.553 97.2623C377.406 97.3085 377.25 97.3117 377.102 97.2715C376.809 97.1861 376.537 97.0431 376.301 96.8509C375.732 96.4502 375.099 95.9695 375.031 95.2764C374.962 94.7235 375.263 94.1987 375.495 93.6738C376.128 92.2876 376.297 90.7372 376.425 89.2228C376.553 87.7084 376.264 86.242 376.565 84.6836C376.852 83.4009 377.241 82.143 377.727 80.9216L378.031 80.0963" stroke="#202251" stroke-width="0.100159" stroke-linejoin="round"/>
<path d="M372.278 77.7485L374.057 76.7229L375.836 77.7485V79.8038L374.057 80.8334L372.278 79.8038V77.7485Z" fill="url(#paint2_radial)"/>
<path d="M375.05 79.391L374.53 79.6554V78.778C374.53 78.5697 374.53 78.2011 374.53 78.2011L375.099 77.8926L375.05 79.391Z" fill="white"/>
<path d="M373.048 79.391C373.048 79.391 373.448 79.5993 373.584 79.6554V78.778C373.584 78.5416 373.584 78.2011 373.584 78.2011C373.584 78.2011 373.14 77.9607 372.995 77.8926L373.048 79.391Z" fill="white"/>
<path d="M374.061 78.5459L374.373 79.3271L374.061 79.7839L373.748 79.3271L374.061 78.5459Z" fill="white"/>
<path d="M370.868 66.8552C368.493 68.0352 366.524 69.8976 365.215 72.2037C364.43 73.7097 363.792 75.2874 363.308 76.9152C363.183 77.2109 363.135 77.5333 363.167 77.8526C363.24 78.0814 363.366 78.2892 363.536 78.4582C363.707 78.6271 363.916 78.752 364.145 78.8222C365.006 79.1587 366.248 78.9183 366.441 78.0209C366.477 77.6851 366.46 77.3456 366.389 77.0153C366.331 75.9542 366.677 74.9106 367.358 74.0947C368.038 73.2916 368.818 72.5781 369.678 71.9713" fill="white"/>
<path d="M370.868 66.8552C368.493 68.0352 366.524 69.8976 365.215 72.2037C364.43 73.7097 363.792 75.2874 363.308 76.9152C363.183 77.2109 363.135 77.5333 363.167 77.8526C363.24 78.0814 363.366 78.2892 363.536 78.4582C363.707 78.6271 363.916 78.752 364.145 78.8222C365.006 79.1587 366.248 78.9183 366.441 78.0209C366.477 77.6851 366.46 77.3456 366.389 77.0153C366.331 75.9542 366.677 74.9106 367.358 74.0947C368.038 73.2916 368.818 72.5781 369.678 71.9713" stroke="#202251" stroke-width="0.216343" stroke-linejoin="round"/>
<path d="M376.697 66.9395C379.074 68.1265 381.041 69.9976 382.346 72.312C383.132 73.8179 383.772 75.3956 384.257 77.0234C384.382 77.3189 384.429 77.6419 384.393 77.9609C384.322 78.19 384.195 78.3982 384.025 78.5672C383.854 78.7362 383.645 78.8609 383.416 78.9305C382.558 79.267 381.316 79.0266 381.12 78.1292C381.087 77.7931 381.106 77.4539 381.176 77.1236C381.232 76.062 380.884 75.0185 380.202 74.203C379.524 73.3988 378.745 72.684 377.887 72.0756" fill="white"/>
<path d="M376.697 66.9395C379.074 68.1265 381.041 69.9976 382.346 72.312C383.132 73.8179 383.772 75.3956 384.257 77.0234C384.382 77.3189 384.429 77.6419 384.393 77.9609C384.322 78.19 384.195 78.3982 384.025 78.5672C383.854 78.7362 383.645 78.8609 383.416 78.9305C382.558 79.267 381.316 79.0266 381.12 78.1292C381.087 77.7931 381.106 77.4539 381.176 77.1236C381.232 76.062 380.884 75.0185 380.202 74.203C379.524 73.3988 378.745 72.684 377.887 72.0756" stroke="#202251" stroke-width="0.216343" stroke-linejoin="round"/>
<path d="M385.195 42.3445C382.106 40.165 377.983 39.1394 374.345 39.1394C371.281 39.1394 367.314 40.125 364.49 41.3068C363.003 41.9944 361.792 43.1632 361.052 44.6241C359.786 47.1048 359.13 49.8516 359.137 52.6368C359.137 55.8419 359.49 60.4011 361.597 62.7168C363.019 64.2792 365.74 64.7199 367.803 66.3585C368.092 66.5581 368.343 66.8077 368.544 67.0957C368.925 67.8902 369.471 68.5937 370.147 69.159C370.363 69.3352 370.547 69.5596 370.76 69.7158C373.436 72.0195 377.306 70.9458 378.925 68.1534C379.121 67.8494 379.379 67.5901 379.682 67.3922C379.978 67.2039 380.271 66.9915 380.563 66.7952C383.167 64.9162 386.284 64.2392 387.867 62.1639C389.505 60.0085 389.562 55.4292 389.562 52.6368C389.562 49.2835 389.774 47.104 387.49 44.4158C386.815 43.6314 386.044 42.9354 385.195 42.3445Z" fill="white" stroke="#202251" stroke-width="0.216343" stroke-linejoin="round"/>
<path d="M360.992 47.7891C360.508 45.4261 360.161 43.0369 359.954 40.6338C359.841 39.8085 359.944 38.9681 360.251 38.1939C360.619 37.4527 361.493 36.8918 362.278 37.1603C362.951 37.3886 363.312 38.1017 363.608 38.7628L366.12 44.3036" fill="white"/>
<path d="M360.992 47.7891C360.508 45.4261 360.161 43.0369 359.954 40.6338C359.841 39.8085 359.944 38.9681 360.251 38.1939C360.619 37.4527 361.493 36.8918 362.278 37.1603C362.951 37.3886 363.312 38.1017 363.608 38.7628L366.12 44.3036" stroke="#202251" stroke-width="0.184292" stroke-linejoin="round"/>
<path d="M387.077 46.8917C387.488 44.8338 387.777 42.7536 387.943 40.6618C388.052 39.8362 387.949 38.9963 387.642 38.222C387.274 37.4808 386.4 36.9199 385.615 37.1883C384.942 37.4167 384.582 38.1298 384.285 38.7909L381.777 44.3316" fill="white"/>
<path d="M387.077 46.8917C387.488 44.8338 387.777 42.7536 387.943 40.6618C388.052 39.8362 387.949 38.9963 387.642 38.222C387.274 37.4808 386.4 36.9199 385.615 37.1883C384.942 37.4167 384.582 38.1298 384.285 38.7909L381.777 44.3316" stroke="#202251" stroke-width="0.184292" stroke-linejoin="round"/>
<path d="M373.025 68.6723C373.08 68.6442 373.046 68.4663 372.949 68.275C372.852 68.0837 372.728 67.9513 372.673 67.9794C372.618 68.0075 372.652 68.1854 372.749 68.3767C372.846 68.568 372.97 68.7003 373.025 68.6723Z" fill="#D2D3D4"/>
<path d="M375.678 68.4003C375.776 68.209 375.81 68.0311 375.754 68.003C375.699 67.975 375.576 68.1073 375.478 68.2986C375.381 68.4899 375.347 68.6678 375.402 68.6959C375.457 68.7239 375.581 68.5916 375.678 68.4003Z" fill="#D2D3D4"/>
<path d="M365.135 62.2561C365.333 62.7469 365.675 63.1661 366.116 63.458C366.608 63.7246 367.159 63.8624 367.719 63.8587C368.154 63.8899 368.592 63.8214 368.997 63.6584C369.198 63.5747 369.376 63.4435 369.516 63.2761C369.655 63.1086 369.752 62.9099 369.798 62.6968C369.986 61.539 368.732 60.4252 368.155 59.5639C367.086 57.9613 365.523 58.8027 363.504 57.5327C361.485 56.2626 362.442 55.87 361.208 53.8989C360.219 52.3204 356.962 50.9222 355.455 50.4214C356.257 50.9102 358.067 52.1481 358.845 53.1818C359.818 54.4758 359.205 56.6513 361.457 58.3059C362.368 58.841 363.22 59.4722 363.997 60.1889C364.554 60.7257 364.798 61.543 365.135 62.2561Z" fill="#1F2250" stroke="white" stroke-width="0.184292" stroke-linejoin="round"/>
<path d="M371.356 58.7545C371.654 59.1795 371.9 59.638 372.09 60.1206C372.29 60.6214 372.41 61.2384 372.09 61.6631C371.962 61.8156 371.802 61.9374 371.621 62.0196C369.75 62.9531 367.342 61.1182 366.104 59.8322C364.678 58.3538 363.7 56.5229 362.715 54.7161" fill="white"/>
<path d="M371.356 58.7545C371.569 59.0195 371.757 59.3039 371.917 59.6038C372.085 59.9049 372.219 60.2233 372.318 60.5533C372.428 60.9037 372.402 61.2827 372.246 61.615C372.043 61.9267 371.737 62.1567 371.381 62.264C370.7 62.491 369.962 62.4782 369.289 62.228C368.634 61.9959 368.016 61.6707 367.454 61.2624C366.352 60.4419 365.403 59.4344 364.65 58.2857C363.911 57.1469 363.26 55.9535 362.703 54.7161C363.063 55.289 363.4 55.8779 363.764 56.4468C364.129 57.0157 364.482 57.5846 364.882 58.1255C365.655 59.2185 366.602 60.1768 367.687 60.962C368.215 61.3571 368.796 61.6755 369.413 61.9075C370.016 62.1398 370.678 62.1707 371.3 61.9956C371.604 61.925 371.872 61.7489 372.058 61.4988C372.202 61.2199 372.238 60.8972 372.158 60.5934C371.993 59.9407 371.722 59.3195 371.356 58.7545Z" fill="#1F2250"/>
<path d="M366.212 60.4973C366.014 60.9275 365.977 61.4146 366.108 61.8698C366.239 62.3251 366.529 62.7181 366.925 62.9772C367.118 63.0847 367.331 63.1492 367.551 63.1664C367.77 63.1837 367.991 63.1532 368.197 63.077C368.404 63.0009 368.592 62.881 368.748 62.7254C368.904 62.5699 369.024 62.3825 369.101 62.176" fill="url(#paint3_radial)"/>
<path d="M366.212 60.4973C366.014 60.9275 365.977 61.4146 366.108 61.8698C366.239 62.3251 366.529 62.7181 366.925 62.9772C367.118 63.0847 367.331 63.1492 367.551 63.1664C367.77 63.1837 367.991 63.1532 368.197 63.077C368.404 63.0009 368.592 62.881 368.748 62.7254C368.904 62.5699 369.024 62.3825 369.101 62.176" stroke="#1F2250" stroke-width="0.132209" stroke-miterlimit="10"/>
<path d="M367.106 60.6135C366.81 61.2746 366.93 62.0238 367.374 62.2802C367.819 62.5366 368.42 62.208 368.717 61.543" fill="#1F2250"/>
<path d="M367.106 60.6135C366.81 61.2746 366.93 62.0238 367.374 62.2802C367.819 62.5366 368.42 62.208 368.717 61.543" stroke="#202251" stroke-width="0.116184" stroke-linejoin="round"/>
<path d="M366.653 61.4509C366.786 61.4509 366.894 61.3289 366.894 61.1784C366.894 61.028 366.786 60.906 366.653 60.906C366.521 60.906 366.413 61.028 366.413 61.1784C366.413 61.3289 366.521 61.4509 366.653 61.4509Z" fill="white"/>
<path d="M383.536 62.2642C383.338 62.7551 382.996 63.1743 382.554 63.4661C382.062 63.7313 381.511 63.8691 380.952 63.8667C380.516 63.8941 380.079 63.8243 379.674 63.6624C379.473 63.5784 379.295 63.4472 379.155 63.2798C379.016 63.1124 378.919 62.9138 378.873 62.7009C378.688 61.5471 379.938 60.4333 380.519 59.5719C381.585 57.9694 383.151 58.8067 385.171 57.5407C387.19 56.2747 386.232 55.8781 387.466 53.9029C388.456 52.3244 391.713 50.9302 393.219 50.4294C392.418 50.9182 390.607 52.1562 389.83 53.1898C388.856 54.4799 389.469 56.6593 387.218 58.3139C386.306 58.848 385.454 59.4794 384.678 60.1969C384.117 60.7298 383.876 61.5471 383.536 62.2642Z" fill="#1F2250" stroke="white" stroke-width="0.184292" stroke-linejoin="round"/>
<path d="M377.314 58.7585C377.018 59.1858 376.772 59.6455 376.581 60.1287C376.384 60.6295 376.264 61.2424 376.581 61.6711C376.709 61.8224 376.869 61.9429 377.05 62.0237C378.921 62.9572 381.324 61.1263 382.566 59.8402C383.989 58.3619 384.97 56.531 385.952 54.7241" fill="white"/>
<path d="M377.314 58.7585C376.95 59.3247 376.68 59.9456 376.513 60.5974C376.43 60.9024 376.466 61.2271 376.613 61.5069C376.799 61.7557 377.067 61.9304 377.37 61.9996C377.992 62.176 378.654 62.1465 379.257 61.9155C379.874 61.6826 380.455 61.3644 380.984 60.97C382.067 60.1824 383.014 59.2229 383.788 58.1295C384.189 57.5927 384.553 57.0278 384.906 56.4509C385.259 55.8739 385.607 55.297 385.964 54.7241C385.408 55.9619 384.758 57.1552 384.021 58.2938C383.266 59.4416 382.317 60.4489 381.216 61.2705C380.653 61.6764 380.035 62.0015 379.381 62.236C378.709 62.4869 377.97 62.4982 377.29 62.2681C376.933 62.164 376.626 61.935 376.425 61.6231C376.268 61.2893 376.242 60.9091 376.352 60.5574C376.45 60.2282 376.585 59.9111 376.753 59.6119C376.915 59.312 377.103 59.0265 377.314 58.7585Z" fill="#1F2250"/>
<path d="M382.458 60.5051C382.658 60.9347 382.696 61.4218 382.565 61.8772C382.435 62.3326 382.145 62.7259 381.749 62.9851C381.557 63.0918 381.343 63.1558 381.124 63.1726C380.905 63.1895 380.684 63.1589 380.478 63.0828C380.271 63.0068 380.083 62.8871 379.927 62.732C379.771 62.5768 379.651 62.3898 379.573 62.1838" fill="url(#paint4_radial)"/>
<path d="M382.458 60.5051C382.658 60.9347 382.696 61.4218 382.565 61.8772C382.435 62.3326 382.145 62.7259 381.749 62.9851C381.557 63.0918 381.343 63.1558 381.124 63.1726C380.905 63.1895 380.684 63.1589 380.478 63.0828C380.271 63.0068 380.083 62.8871 379.927 62.732C379.771 62.5768 379.651 62.3898 379.573 62.1838" stroke="#1F2250" stroke-width="0.132209" stroke-miterlimit="10"/>
<path d="M381.589 60.6174C381.885 61.2825 381.765 62.0317 381.32 62.2881C380.876 62.5445 380.275 62.216 379.978 61.5509" fill="#1F2250"/>
<path d="M381.589 60.6174C381.885 61.2825 381.765 62.0317 381.32 62.2881C380.876 62.5445 380.275 62.216 379.978 61.5509" stroke="#202251" stroke-width="0.116184" stroke-linejoin="round"/>
<path d="M382.026 61.4587C382.158 61.4587 382.266 61.3367 382.266 61.1863C382.266 61.0358 382.158 60.9138 382.026 60.9138C381.893 60.9138 381.785 61.0358 381.785 61.1863C381.785 61.3367 381.893 61.4587 382.026 61.4587Z" fill="white"/>
<path d="M368.396 164.394L374.377 160.94L380.359 164.394V171.301L374.377 174.754L368.396 171.301V164.394Z" fill="url(#paint5_radial)"/>
<path d="M377.723 169.911C377.723 169.911 376.581 170.468 375.98 170.804V167.855C375.98 167.146 376.02 165.908 376.02 165.908C376.02 165.908 377.278 165.223 377.935 164.879L377.723 169.911Z" fill="white"/>
<path d="M370.98 169.911C370.98 169.911 372.274 170.616 372.783 170.804V167.855C372.783 167.054 372.807 165.908 372.807 165.908C372.807 165.908 371.32 165.107 370.828 164.879L370.98 169.911Z" fill="white"/>
<path d="M374.377 167.07L375.431 169.694L374.377 171.229L373.324 169.694L374.377 167.07Z" fill="white"/>
<path d="M339.987 194.558L342.984 192.827L345.984 194.558V198.023L342.984 199.758L339.987 198.023V194.558Z" fill="url(#paint6_radial)"/>
<path d="M344.662 197.31C344.662 197.31 344.09 197.594 343.785 197.759V196.28C343.785 195.924 343.805 195.303 343.805 195.303C343.805 195.303 344.434 194.958 344.763 194.786L344.662 197.31Z" fill="white"/>
<path d="M341.281 197.31C341.281 197.31 341.93 197.662 342.182 197.759V196.28C342.182 195.88 342.182 195.303 342.182 195.303C342.182 195.303 341.437 194.902 341.189 194.786L341.281 197.31Z" fill="white"/>
<path d="M342.992 195.9L343.521 197.218L342.992 197.987L342.463 197.218L342.992 195.9Z" fill="white"/>
<path d="M352.343 195.932L352.25 196.397C352.134 196.974 351.718 197.262 350.944 197.262H350.275L350.055 198.388H349.358L350.023 194.982H351.353C352.082 194.982 352.467 195.335 352.343 195.932ZM351.253 195.611H350.6L350.396 196.633H351.041C351.361 196.633 351.521 196.545 351.573 196.296L351.641 195.952C351.694 195.708 351.565 195.611 351.253 195.611Z" fill="white"/>
<path d="M352.45 197.25L352.707 195.972C352.843 195.311 353.36 194.906 354.213 194.906C355.067 194.906 355.563 195.467 355.415 196.108L355.159 197.41C355.023 198.075 354.566 198.444 353.676 198.444C352.787 198.444 352.318 197.895 352.45 197.25ZM354.502 197.306L354.742 196.072C354.81 195.74 354.586 195.539 354.129 195.539C353.672 195.539 353.448 195.724 353.38 196.068L353.132 197.338C353.075 197.627 353.32 197.831 353.757 197.831C354.193 197.831 354.438 197.643 354.502 197.31V197.306Z" fill="white"/>
<path d="M357.775 197.759L357.655 198.388H355.439L356.104 194.982H356.798L356.257 197.759H357.775Z" fill="white"/>
<path d="M359.366 197.242L359.141 198.388H358.448L358.677 197.186L358.044 194.958H358.753L359.153 196.397L360.103 194.958H360.904L359.366 197.242Z" fill="white"/>
<path d="M363.52 196.06L363.484 196.2H362.795L362.827 196.032C362.891 195.74 362.679 195.539 362.266 195.539C361.854 195.539 361.597 195.724 361.529 196.068L361.281 197.338C361.221 197.627 361.469 197.831 361.894 197.831C362.382 197.831 362.567 197.619 362.627 197.254V197.178H361.958L362.082 196.545H363.468L363.3 197.398C363.164 198.083 362.699 198.46 361.834 198.46C360.968 198.46 360.467 197.903 360.6 197.258L360.864 195.948C360.992 195.291 361.509 194.914 362.342 194.914C363.176 194.914 363.66 195.471 363.52 196.06Z" fill="white"/>
<path d="M363.728 197.25L363.989 195.972C364.121 195.311 364.642 194.906 365.491 194.906C366.341 194.906 366.841 195.467 366.693 196.108L366.433 197.41C366.297 198.075 365.84 198.444 364.954 198.444C364.069 198.444 363.596 197.895 363.728 197.25ZM365.78 197.306L366.02 196.072C366.088 195.74 365.868 195.539 365.411 195.539C364.954 195.539 364.726 195.724 364.658 196.068L364.41 197.338C364.353 197.627 364.598 197.831 365.035 197.831C365.471 197.831 365.716 197.643 365.78 197.31V197.306Z" fill="white"/>
<path d="M369.902 194.982L369.241 198.388H368.592L367.791 196.192L367.362 198.388H366.709L367.374 194.982H368.027L368.828 197.19L369.261 194.982H369.902Z" fill="white"/>
<path d="M374.025 198.388H373.4L373.825 196.188L372.707 198.388H372.202L371.942 196.156L371.501 198.404H370.872L371.537 194.998H372.394L372.691 197.114L373.808 194.998H374.682L374.025 198.388Z" fill="white"/>
<path d="M374.694 197.25L374.954 195.972C375.086 195.311 375.607 194.906 376.457 194.906C377.306 194.906 377.807 195.467 377.659 196.108L377.398 197.41C377.262 198.075 376.809 198.444 375.92 198.444C375.03 198.444 374.566 197.895 374.694 197.25ZM376.745 197.306L376.985 196.072C377.054 195.74 376.833 195.539 376.376 195.539C375.92 195.539 375.691 195.724 375.627 196.068L375.375 197.338C375.319 197.627 375.563 197.831 376 197.831C376.437 197.831 376.681 197.643 376.745 197.31V197.306Z" fill="white"/>
<path d="M380.788 196.128L380.555 197.33C380.427 197.987 379.902 198.388 379.057 198.388H377.695L378.36 194.982H379.654C380.455 194.982 380.904 195.471 380.788 196.128ZM379.586 195.611H378.937L378.512 197.759H379.157C379.321 197.776 379.485 197.732 379.617 197.635C379.75 197.538 379.841 197.395 379.874 197.234L380.083 196.144C380.143 195.796 379.987 195.611 379.586 195.611Z" fill="white"/>
<path d="M382.025 195.611L381.865 196.413H383.159L383.035 197.042H381.741L381.601 197.759H383.091L382.971 198.388H380.787L381.452 194.982H383.632L383.512 195.611H382.025Z" fill="white"/>
<path d="M384.834 199.754L386.2 193.392" stroke="white" stroke-width="0.400635" stroke-miterlimit="10"/>
<path d="M387.835 196.721L388.079 195.519C388.199 194.906 388.68 194.562 389.433 194.562C390.186 194.562 390.635 195.078 390.539 195.631L390.495 195.844H389.862L389.906 195.595C389.95 195.323 389.75 195.146 389.361 195.146C388.973 195.146 388.752 195.319 388.696 195.635L388.464 196.813C388.412 197.078 388.64 197.266 389.017 197.266C389.393 197.266 389.614 197.094 389.674 196.781L389.718 196.569H390.359L390.295 196.897C390.182 197.502 389.75 197.847 388.965 197.847C388.179 197.847 387.715 197.31 387.835 196.721Z" fill="white"/>
<path d="M390.659 196.841L390.763 196.332C390.796 196.07 390.928 195.831 391.134 195.665C391.34 195.499 391.602 195.419 391.865 195.443C392.578 195.443 392.907 195.868 392.799 196.448L392.698 196.949C392.67 197.21 392.54 197.45 392.337 197.616C392.134 197.782 391.874 197.862 391.613 197.839C390.892 197.839 390.543 197.418 390.659 196.841ZM392.089 196.881L392.186 196.396C392.238 196.132 392.117 195.996 391.833 195.996C391.776 195.987 391.717 195.991 391.661 196.007C391.605 196.023 391.554 196.051 391.51 196.089C391.466 196.128 391.431 196.175 391.407 196.228C391.384 196.281 391.372 196.338 391.372 196.396L391.272 196.881C391.22 197.138 391.356 197.282 391.641 197.282C391.925 197.282 392.037 197.166 392.089 196.881Z" fill="white"/>
<path d="M396.336 196.545L396.096 197.775H395.475L395.731 196.449C395.787 196.164 395.671 195.996 395.467 195.996C395.262 195.996 395.13 196.156 395.086 196.425C395.083 196.465 395.077 196.505 395.066 196.545L394.834 197.775H394.209L394.465 196.449C394.517 196.164 394.405 195.996 394.201 195.996C394.118 196.005 394.04 196.039 393.977 196.094C393.915 196.15 393.871 196.223 393.852 196.304L393.568 197.775H392.943L393.383 195.511H393.784L393.852 195.651C394.005 195.519 394.199 195.445 394.401 195.443C394.521 195.438 394.639 195.466 394.744 195.524C394.848 195.582 394.935 195.667 394.994 195.771C395.076 195.672 395.178 195.592 395.293 195.535C395.408 195.478 395.535 195.447 395.663 195.443C396.172 195.443 396.46 195.896 396.336 196.545Z" fill="white"/>
<path d="M398.852 196.473L398.764 196.925C398.737 197.185 398.611 197.424 398.413 197.594C398.215 197.764 397.959 197.852 397.698 197.839C397.515 197.848 397.334 197.797 397.182 197.695L396.969 198.796H396.348L396.985 195.511H397.386L397.45 195.639C397.622 195.504 397.836 195.434 398.055 195.443C398.182 195.438 398.309 195.464 398.424 195.518C398.539 195.572 398.64 195.653 398.718 195.753C398.796 195.854 398.849 195.972 398.872 196.097C398.895 196.222 398.889 196.351 398.852 196.473ZM397.899 196.004C397.795 195.995 397.691 196.025 397.607 196.088C397.524 196.151 397.466 196.242 397.446 196.345L397.326 196.953C397.326 197.146 397.446 197.278 397.694 197.278C397.943 197.278 398.095 197.134 398.155 196.853L398.239 196.425C398.259 196.373 398.265 196.318 398.256 196.264C398.248 196.21 398.225 196.159 398.19 196.116C398.156 196.073 398.111 196.041 398.06 196.021C398.008 196.001 397.953 195.995 397.899 196.004Z" fill="white"/>
<path d="M400.298 194.349L399.617 197.775H398.996L399.665 194.349H400.298Z" fill="white"/>
<path d="M402.318 196.397L402.237 196.821H400.863V196.885C400.815 197.138 400.919 197.314 401.176 197.314C401.263 197.319 401.349 197.295 401.421 197.247C401.493 197.198 401.548 197.128 401.576 197.046H402.177C402.131 197.282 402.001 197.493 401.811 197.64C401.621 197.788 401.384 197.861 401.144 197.847C401.01 197.866 400.873 197.852 400.746 197.806C400.619 197.76 400.505 197.683 400.414 197.583C400.324 197.482 400.26 197.361 400.228 197.229C400.196 197.098 400.196 196.96 400.23 196.829L400.318 196.369C400.35 196.104 400.481 195.861 400.686 195.69C400.891 195.519 401.154 195.434 401.42 195.451C401.546 195.433 401.675 195.446 401.795 195.488C401.916 195.53 402.024 195.601 402.112 195.693C402.2 195.785 402.264 195.898 402.3 196.02C402.336 196.142 402.342 196.271 402.318 196.397ZM401.697 196.397C401.737 196.124 401.632 195.96 401.38 195.96C401.128 195.96 401.003 196.112 400.943 196.397H401.697Z" fill="white"/>
<path d="M403.371 196.741C403.307 197.074 403.407 197.214 403.652 197.214H403.848L403.736 197.775H403.451C402.907 197.775 402.606 197.45 402.726 196.825L402.879 196.072H402.578L402.682 195.511H402.991L403.115 194.87H403.736L403.612 195.511H404.112L404.008 196.072H403.5L403.371 196.741Z" fill="white"/>
<path d="M406.264 196.396L406.184 196.821H404.826V196.885C404.778 197.138 404.878 197.314 405.138 197.314C405.225 197.319 405.311 197.295 405.384 197.247C405.456 197.198 405.51 197.128 405.539 197.045H406.14C406.094 197.282 405.963 197.494 405.772 197.641C405.581 197.789 405.343 197.862 405.102 197.847C404.968 197.871 404.829 197.86 404.7 197.816C404.57 197.771 404.455 197.694 404.363 197.592C404.272 197.49 404.209 197.366 404.179 197.233C404.149 197.099 404.154 196.96 404.193 196.829L404.281 196.368C404.312 196.103 404.444 195.861 404.649 195.69C404.854 195.519 405.117 195.434 405.383 195.451C405.508 195.436 405.635 195.451 405.753 195.494C405.871 195.538 405.977 195.608 406.063 195.7C406.149 195.792 406.212 195.903 406.247 196.024C406.282 196.145 406.288 196.273 406.264 196.396ZM405.643 196.396C405.683 196.124 405.575 195.96 405.327 195.96C405.078 195.96 404.95 196.112 404.886 196.396H405.643Z" fill="white"/>
<path d="M409.06 194.349L408.391 197.775H407.991L407.918 197.614C407.836 197.69 407.74 197.749 407.634 197.788C407.529 197.826 407.417 197.844 407.306 197.839C406.737 197.839 406.396 197.462 406.504 196.809L406.592 196.36C406.612 196.108 406.727 195.873 406.913 195.702C407.1 195.532 407.345 195.439 407.598 195.443C407.804 195.435 408.007 195.498 408.171 195.623L408.423 194.349H409.06ZM407.939 196.929L408.035 196.424C408.048 196.373 408.049 196.32 408.037 196.268C408.025 196.217 408.001 196.169 407.966 196.13C407.931 196.09 407.887 196.06 407.837 196.041C407.788 196.023 407.734 196.017 407.682 196.024C407.422 196.024 407.281 196.164 407.221 196.448L407.137 196.877C407.085 197.138 407.209 197.278 407.49 197.278C407.594 197.284 407.698 197.253 407.78 197.189C407.863 197.124 407.919 197.032 407.939 196.929Z" fill="white"/>
</g>
<path d="M248.146 178.573C246.299 178.973 245.975 179.299 245.573 181.146C245.174 179.299 244.847 178.975 243 178.573C244.847 178.173 245.171 177.847 245.573 176C245.975 177.849 246.299 178.173 248.146 178.573Z" fill="white"/>
<path d="M454.241 56.1205C453.436 56.296 453.293 56.4364 453.121 57.241C452.945 56.4364 452.805 56.2933 452 56.1205C452.805 55.945 452.948 55.8046 453.121 55C453.293 55.8046 453.436 55.9477 454.241 56.1205Z" fill="white"/>
<path d="M183.241 25.1205C182.436 25.296 182.293 25.4364 182.121 26.241C181.945 25.4364 181.805 25.2933 181 25.1205C181.805 24.945 181.948 24.8046 182.121 24C182.296 24.8046 182.436 24.9477 183.241 25.1205Z" fill="white"/>
<path d="M468.241 104.12C467.436 104.296 467.293 104.436 467.121 105.241C466.945 104.436 466.805 104.293 466 104.12C466.805 103.945 466.948 103.805 467.121 103C467.296 103.802 467.436 103.945 468.241 104.12Z" fill="white"/>
<path d="M119.241 183.12C118.436 183.296 118.293 183.436 118.121 184.241C117.945 183.436 117.805 183.293 117 183.12C117.805 182.945 117.948 182.805 118.121 182C118.296 182.802 118.436 182.945 119.241 183.12Z" fill="white"/>
<path d="M50.1462 174.573C48.2994 174.973 47.9754 175.299 47.5731 177.146C47.1735 175.299 46.8468 174.975 45 174.573C46.8468 174.173 47.1708 173.847 47.5731 172C47.9727 173.847 48.2994 174.171 50.1462 174.573Z" fill="white"/>
<path d="M466.146 161.573C464.299 161.973 463.975 162.299 463.573 164.146C463.174 162.299 462.847 161.975 461 161.573C462.847 161.173 463.171 160.847 463.573 159C463.975 160.849 464.299 161.173 466.146 161.573Z" fill="white"/>
<path d="M32.1462 106.573C30.2994 106.973 29.9754 107.299 29.5731 109.146C29.1735 107.299 28.8468 106.975 27 106.573C28.8468 106.174 29.1708 105.847 29.5731 104C29.9754 105.85 30.2994 106.174 32.1462 106.573Z" fill="white"/>
<path d="M181.241 182.121C180.436 182.296 180.293 182.436 180.12 183.241C179.945 182.436 179.805 182.293 179 182.121C179.805 181.945 179.948 181.805 180.12 181C180.293 181.805 180.436 181.948 181.241 182.121Z" fill="white"/>
<path d="M59.241 26.1205C58.4364 26.296 58.2933 26.4364 58.1205 27.241C57.945 26.4364 57.8046 26.2933 57 26.1205C57.8046 25.945 57.9477 25.8046 58.1205 25C58.2933 25.8046 58.4364 25.9477 59.241 26.1205Z" fill="white"/>
<path d="M404.241 28.1205C403.436 28.296 403.293 28.4364 403.12 29.241C402.945 28.4364 402.805 28.2933 402 28.1205C402.805 27.945 402.948 27.8046 403.12 27C403.293 27.8046 403.436 27.9477 404.241 28.1205Z" fill="white"/>
<path d="M296.241 180.12C295.436 180.296 295.293 180.436 295.12 181.241C294.945 180.436 294.805 180.293 294 180.12C294.805 179.945 294.948 179.805 295.12 179C295.296 179.805 295.436 179.945 296.241 180.12Z" fill="white"/>
<path d="M263.241 34.1205C262.436 34.296 262.293 34.4364 262.12 35.241C261.945 34.4364 261.805 34.2933 261 34.1205C261.805 33.945 261.948 33.8046 262.12 33C262.296 33.8046 262.436 33.945 263.241 34.1205Z" fill="white"/>
<g clip-path="url(#clip1)">
<path d="M100.212 137.291L99.68 140.021C99.004 143.396 96.5575 145.084 92.0307 145.084H88.1058L86.7975 151.665H82.7199L86.6012 131.722H94.4206C98.6944 131.722 100.962 133.806 100.212 137.291ZM93.8275 135.411H90.0028L88.821 141.403H92.5889C94.4773 141.403 95.4018 140.897 95.7115 139.436L96.1083 137.408C96.4179 135.847 95.6591 135.411 93.8275 135.411Z" fill="white"/>
<path d="M100.831 145.005L102.353 137.522C103.138 133.667 106.178 131.307 111.158 131.307C116.139 131.307 119.06 134.569 118.302 138.42L116.784 146.043C115.995 149.925 113.321 152.092 108.119 152.092C103.029 152.088 100.09 148.795 100.831 145.005ZM112.846 145.341L114.25 138.111C114.643 136.17 113.352 134.988 110.679 134.988C107.892 134.988 106.684 136.087 106.291 138.084L104.826 145.537C104.49 147.225 105.925 148.407 108.485 148.407C111.324 148.403 112.48 147.308 112.846 145.337V145.341Z" fill="white"/>
<path d="M132 147.98L131.298 151.665H118.332L122.214 131.722H126.291L123.112 147.98H132Z" fill="white"/>
<path d="M141.311 144.971L140.002 151.665H135.938L137.246 144.718L133.565 131.696H137.783L140.059 140.104L145.602 131.696H150.242L141.311 144.971Z" fill="white"/>
<path d="M165.615 138.05L165.419 138.869H161.367L161.563 137.884C161.93 136.166 160.691 134.984 158.275 134.984C155.576 134.984 154.35 136.083 153.971 138.08L152.51 145.533C152.17 147.221 153.604 148.403 156.108 148.403C158.951 148.403 160.033 147.164 160.386 145.027L160.469 144.591H156.474L157.207 140.906H165.305L164.324 145.878C163.535 149.899 160.805 152.092 155.741 152.092C150.678 152.092 147.756 148.826 148.498 145.005L150.042 137.352C150.805 133.501 153.84 131.307 158.707 131.307C163.452 131.303 166.43 134.591 165.615 138.05Z" fill="white"/>
<path d="M166.814 145.005L168.332 137.522C169.121 133.667 172.156 131.307 177.137 131.307C182.117 131.307 185.039 134.569 184.28 138.42L182.762 146.043C181.973 149.925 179.3 152.092 174.097 152.092C169.021 152.088 166.068 148.795 166.814 145.005ZM178.824 145.341L180.229 138.111C180.625 136.17 179.33 134.988 176.657 134.988C173.875 134.988 172.662 136.087 172.27 138.084L170.809 145.537C170.469 147.225 171.903 148.407 174.463 148.407C177.315 148.403 178.471 147.308 178.837 145.337L178.824 145.341Z" fill="white"/>
<path d="M202.971 131.722L199.086 151.665H195.291L190.651 138.813L188.148 151.665H184.323L188.205 131.722H192.029L196.643 144.661L199.173 131.722H202.971Z" fill="white"/>
<path d="M227.079 151.665H223.42L225.898 138.782L219.356 151.665H216.399L216.43 151.582L214.882 138.499L212.322 151.66H208.637L212.518 131.717H217.555L219.286 144.133L225.828 131.726H230.948L227.079 151.665Z" fill="white"/>
<path d="M230.991 145.005L232.509 137.522C233.298 133.667 236.333 131.307 241.314 131.307C246.294 131.307 249.216 134.569 248.457 138.42L246.939 146.043C246.15 149.925 243.477 152.092 238.274 152.092C233.185 152.088 230.228 148.795 230.991 145.005ZM243.001 145.341L244.406 138.111C244.802 136.17 243.507 134.988 240.834 134.988C238.052 134.988 236.839 136.087 236.447 138.084L234.981 145.537C234.646 147.225 236.08 148.407 238.64 148.407C241.479 148.403 242.635 147.308 243.001 145.337V145.341Z" fill="white"/>
<path d="M266.573 138.464L265.221 145.494C264.462 149.349 261.396 151.682 256.447 151.682H248.488L252.369 131.739H259.935C264.715 131.722 267.332 134.591 266.573 138.464ZM259.539 135.411H255.744L253.267 147.984H257.035C259.286 147.984 260.834 146.859 261.226 144.931L262.465 138.547C262.888 136.506 261.846 135.411 259.539 135.411Z" fill="white"/>
<path d="M273.886 135.411L272.957 140.108H280.524L279.795 143.793H272.229L271.413 147.984H280.136L279.433 151.669H266.629L270.511 131.726H283.28L282.578 135.411H273.886Z" fill="white"/>
<path d="M163.439 59.7208C163.426 59.6992 163.408 59.6812 163.386 59.6685C163.358 59.6597 163.328 59.6597 163.299 59.6685C162.67 59.5812 162.031 59.5812 161.402 59.6685C161.366 59.6746 161.331 59.6896 161.302 59.7121C161.271 59.7363 161.25 59.7701 161.241 59.808L157.499 71.2601L153.962 59.808C153.949 59.7711 153.926 59.7381 153.897 59.7121C153.868 59.6881 153.833 59.673 153.796 59.6685C153.461 59.6205 153.123 59.5986 152.785 59.603C152.439 59.6031 152.094 59.625 151.751 59.6685C151.726 59.6598 151.698 59.6598 151.673 59.6685C151.646 59.6818 151.625 59.7032 151.612 59.7295C151.607 59.7584 151.607 59.7878 151.612 59.8167C151.607 59.8442 151.607 59.8721 151.612 59.8996L152.553 62.5162L153.09 64.1778L150.757 71.2296L147.22 59.7775C147.202 59.7429 147.18 59.7107 147.155 59.6815C147.126 59.6576 147.091 59.6424 147.054 59.6379C146.718 59.5893 146.378 59.5689 146.038 59.5769C145.694 59.5732 145.35 59.5936 145.009 59.6379C144.983 59.6293 144.956 59.6293 144.93 59.6379C144.904 59.6513 144.883 59.6727 144.869 59.699C144.865 59.7279 144.865 59.7573 144.869 59.7862C144.865 59.8137 144.865 59.8416 144.869 59.8691L145.811 62.4857L149.636 74.3346C149.64 74.3536 149.648 74.3716 149.659 74.3873C149.67 74.4031 149.685 74.4163 149.701 74.4262C149.729 74.4516 149.764 74.4682 149.802 74.4742C150.118 74.5185 150.437 74.539 150.757 74.5353C151.072 74.5388 151.387 74.5184 151.699 74.4742C151.736 74.4664 151.77 74.45 151.799 74.4262C151.829 74.4036 151.851 74.3712 151.86 74.3346L154.193 67.5096L156.396 74.3346C156.408 74.3697 156.429 74.4012 156.457 74.4262C156.473 74.4328 156.49 74.4362 156.507 74.4362C156.524 74.4362 156.541 74.4328 156.557 74.4262C156.874 74.4749 157.195 74.4997 157.516 74.5004C157.83 74.4997 158.144 74.4749 158.454 74.4262C158.469 74.4327 158.485 74.436 158.502 74.436C158.518 74.436 158.535 74.4327 158.55 74.4262C158.581 74.4047 158.603 74.3719 158.611 74.3346L163.495 59.8691C163.5 59.8416 163.5 59.8137 163.495 59.7862C163.479 59.7679 163.459 59.7518 163.439 59.7382V59.7208Z" fill="white"/>
<path d="M171.358 59.7602C171.343 59.7268 171.32 59.6971 171.293 59.673C171.267 59.6499 171.235 59.6348 171.201 59.6294C170.602 59.5422 169.994 59.5422 169.396 59.6294C169.362 59.6348 169.33 59.6499 169.304 59.673C169.274 59.6938 169.252 59.7247 169.243 59.7602L164.093 74.2302C164.084 74.2586 164.084 74.289 164.093 74.3174C164.088 74.3434 164.088 74.3699 164.093 74.3959C164.108 74.4193 164.127 74.4399 164.149 74.4569C164.176 74.4656 164.205 74.4656 164.232 74.4569C164.838 74.5441 165.453 74.5441 166.059 74.4569C166.095 74.4499 166.128 74.4334 166.155 74.4089C166.183 74.3839 166.204 74.3524 166.216 74.3174L167.586 70.266H172.919L174.311 74.3174C174.318 74.3526 174.336 74.3846 174.363 74.4089C174.392 74.4327 174.426 74.4492 174.463 74.4569C175.082 74.5441 175.711 74.5441 176.33 74.4569C176.355 74.4656 176.383 74.4656 176.408 74.4569C176.435 74.4435 176.456 74.4222 176.469 74.3959C176.474 74.3699 176.474 74.3434 176.469 74.3174C176.478 74.289 176.478 74.2586 176.469 74.2302L171.358 59.7602ZM172.296 68.4823H168.231L170.25 62.4859L172.296 68.4823Z" fill="white"/>
<path d="M185.13 68.4604C187.311 68.0243 188.397 66.7814 188.397 64.784V63.6545C188.397 60.9332 186.548 59.6118 182.727 59.6118H178.497C178.445 59.6127 178.395 59.633 178.358 59.6685C178.338 59.688 178.323 59.7111 178.312 59.7366C178.302 59.762 178.296 59.7893 178.296 59.8168V74.278C178.296 74.326 178.313 74.3724 178.344 74.4088C178.375 74.4437 178.414 74.4694 178.458 74.483C179.057 74.5658 179.664 74.5658 180.263 74.483C180.31 74.4739 180.352 74.4474 180.381 74.4088C180.413 74.3728 180.432 74.3264 180.433 74.278V68.6871H182.854C184.222 70.4517 185.392 72.3618 186.343 74.3827C186.356 74.4098 186.376 74.4336 186.399 74.4524H186.482C187.118 74.5352 187.761 74.5352 188.397 74.4524H188.484C188.51 74.4347 188.531 74.4107 188.545 74.3827C188.549 74.3508 188.549 74.3186 188.545 74.2867C188.554 74.2598 188.554 74.2308 188.545 74.2039C187.611 72.1749 186.467 70.2498 185.13 68.4604ZM186.26 63.9423V64.5747C186.26 66.4499 184.903 66.8293 182.719 66.8293H180.385V61.5656H182.719C184.899 61.5656 186.26 61.9624 186.26 63.9598V63.9423Z" fill="white"/>
<path d="M196.849 59.6291H192.143C192.117 59.623 192.09 59.623 192.065 59.6291C192.042 59.6396 192.021 59.6544 192.003 59.6727C191.983 59.6907 191.966 59.713 191.955 59.7381C191.951 59.7626 191.951 59.7878 191.955 59.8123V74.2779C191.951 74.3024 191.951 74.3275 191.955 74.352C191.966 74.3771 191.983 74.3995 192.003 74.4174C192.021 74.4357 192.042 74.4505 192.065 74.461C192.09 74.4671 192.117 74.4671 192.143 74.461H196.853C198.292 74.5626 199.729 74.246 200.992 73.5496C201.513 73.1884 201.93 72.6975 202.203 72.1253C202.476 71.5532 202.595 70.9197 202.548 70.2875V63.7459C202.548 60.9505 200.734 59.6291 196.849 59.6291ZM200.394 64.0686V70.0651C200.394 72.1148 198.972 72.5291 196.836 72.5291H194.071V61.548H196.849C199.029 61.548 200.407 61.9841 200.407 64.0599L200.394 64.0686Z" fill="white"/>
<path d="M213.992 72.612H207.886V67.8716H212.98C213.022 67.8719 213.064 67.8581 213.098 67.8323C213.132 67.8029 213.159 67.7655 213.176 67.7233C213.29 67.2105 213.29 66.6792 213.176 66.1664C213.158 66.1248 213.131 66.0876 213.098 66.0574C213.059 66.0487 213.019 66.0487 212.98 66.0574H207.895V61.4652H214C214.046 61.4612 214.09 61.4446 214.127 61.4172C214.16 61.3886 214.185 61.3506 214.197 61.3082C214.314 60.7959 214.314 60.2636 214.197 59.7513C214.18 59.711 214.157 59.6741 214.127 59.6423C214.085 59.6336 214.042 59.6336 214 59.6423H205.954C205.903 59.6444 205.853 59.6644 205.815 59.699C205.794 59.7176 205.777 59.7405 205.766 59.766C205.755 59.7916 205.749 59.8193 205.749 59.8472V74.3085C205.743 74.3343 205.743 74.3612 205.749 74.387C205.759 74.4117 205.776 74.433 205.797 74.448C205.815 74.4676 205.835 74.4839 205.858 74.496C205.884 74.5001 205.911 74.5001 205.937 74.496H213.974C214.016 74.5047 214.059 74.5047 214.101 74.496C214.129 74.4633 214.153 74.4266 214.171 74.387C214.284 73.8742 214.284 73.3428 214.171 72.8301C214.156 72.789 214.128 72.7538 214.092 72.7298C214.088 72.6987 214.074 72.6697 214.053 72.6469C214.031 72.6245 214.004 72.608 213.974 72.5989L213.992 72.612Z" fill="white"/>
<path d="M229.177 59.6292C228.888 59.5901 228.597 59.5697 228.305 59.5681C228.001 59.5689 227.698 59.5893 227.398 59.6292C227.348 59.6355 227.303 59.6605 227.271 59.6989C227.241 59.7358 227.226 59.7823 227.228 59.8298V71.042L220.708 59.7295C220.695 59.7028 220.678 59.679 220.656 59.6597H220.568C219.9 59.5725 219.222 59.5725 218.553 59.6597C218.506 59.6671 218.462 59.6919 218.431 59.7295C218.401 59.7663 218.384 59.8125 218.383 59.8603V74.3259C218.383 74.3738 218.4 74.4202 218.431 74.4567C218.446 74.4762 218.464 74.4924 218.485 74.5045C218.506 74.5165 218.529 74.524 218.553 74.5265C219.149 74.6137 219.755 74.6137 220.35 74.5265C220.4 74.5202 220.445 74.4952 220.477 74.4567C220.507 74.4198 220.522 74.3733 220.52 74.3259V63.2925L226.922 74.4044L226.983 74.4654C227.012 74.4742 227.042 74.4742 227.071 74.4654C227.426 74.5127 227.785 74.536 228.143 74.5352C228.495 74.5359 228.846 74.5126 229.194 74.4654C229.24 74.4559 229.282 74.4349 229.317 74.4044C229.347 74.3659 229.364 74.3183 229.365 74.2692V59.8298C229.365 59.7818 229.348 59.7354 229.317 59.6989C229.302 59.6795 229.284 59.6632 229.263 59.6512C229.242 59.6392 229.219 59.6317 229.194 59.6292H229.177Z" fill="white"/>
<path d="M122.479 84.2603C121.25 89.0574 116.928 93.0958 111.027 95.2196V76.9032C111.027 66.6591 116.37 58.3513 123.203 58.3513L122.802 81.8225C122.789 82.6448 122.681 83.4629 122.479 84.2603Z" fill="white"/>
<path d="M79.7152 84.2603C80.9537 89.0574 85.2755 93.0958 91.1673 95.2196V76.9032C91.1673 66.6591 85.825 58.3513 79 58.3513L79.3925 81.8225C79.4059 82.6419 79.5141 83.457 79.7152 84.2516V84.2603Z" fill="white"/>
<path d="M101.215 72.0015C101.215 72.0015 107.757 80.2874 107.757 88.3423C107.757 95.4552 101.215 97.9017 101.215 97.9017C101.215 97.9017 94.6737 95.4552 94.6737 88.3423C94.6563 80.3093 101.215 72.0015 101.215 72.0015Z" fill="white"/>
<path d="M153.988 87.6273V88.2597C153.988 89.5418 153.024 90.3791 151.62 90.3791H148.083V81.9841H151.332C152.75 81.9841 153.713 82.6601 153.713 83.8986V84.4612C153.723 84.754 153.655 85.0442 153.517 85.3027C153.38 85.5613 153.177 85.7794 152.928 85.9352C153.249 86.0854 153.52 86.325 153.708 86.6251C153.896 86.9252 153.993 87.2732 153.988 87.6273ZM149.13 82.9479V85.5646H151.359C152.157 85.5646 152.667 85.2549 152.667 84.4568V83.951C152.667 83.2488 152.157 82.9654 151.359 82.9654L149.13 82.9479ZM152.942 87.6491C152.942 86.9121 152.466 86.5065 151.633 86.5065H149.121V89.411H151.62C152.458 89.411 152.928 88.9967 152.928 88.2597L152.942 87.6491Z" fill="white"/>
<path d="M160.272 86.4583V87.675H156.247V87.9498C156.247 89.0662 156.744 89.6506 157.804 89.6506C158.676 89.6506 159.234 89.2581 159.234 88.5211V88.4469H160.272C160.272 89.7814 159.322 90.5184 157.856 90.5184C156.112 90.5184 155.27 89.4849 155.27 87.9367V86.7679C155.27 85.2198 156.143 84.208 157.795 84.208C159.322 84.208 160.272 85.1151 160.272 86.4583ZM159.248 86.8159V86.4714C159.248 85.5425 158.746 85.0802 157.804 85.0802C156.723 85.0802 156.247 85.6733 156.247 86.7679V86.8159H159.248Z" fill="white"/>
<path d="M161.406 88.5212V88.3991H162.409V88.5081C162.409 89.1972 162.954 89.6158 163.909 89.6158C164.646 89.6158 165.218 89.3193 165.218 88.7436C165.218 87.3263 161.537 88.1985 161.537 86.018C161.537 84.9103 162.431 84.1951 163.813 84.1951C165.287 84.1951 166.147 84.9801 166.147 86.1488V86.2666H165.148V86.1488C165.148 85.5077 164.681 85.1022 163.84 85.1022C162.998 85.1022 162.553 85.4598 162.553 85.9482C162.553 87.2565 166.229 86.4236 166.229 88.6739C166.229 89.8993 165.135 90.5055 163.861 90.5055C162.313 90.5186 161.406 89.7205 161.406 88.5212Z" fill="white"/>
<path d="M170.482 89.4107V90.3788H169.745C168.397 90.3788 167.721 89.7334 167.721 88.2942V85.3157H166.91V84.3868H167.721V82.6423H168.733V84.3868H170.377V85.3375H168.733V88.0893C168.733 89.0531 169.138 89.4325 169.958 89.4325L170.482 89.4107Z" fill="white"/>
<path d="M180.333 84.1995V85.1154C180.333 86.4847 179.404 87.3308 177.773 87.3308H175.536V90.3835H174.489V81.9841H177.773C179.413 81.9841 180.333 82.8171 180.333 84.1995ZM179.3 84.1995C179.3 83.4015 178.82 82.9697 177.834 82.9697H175.536V86.3277H177.834C178.833 86.3277 179.313 85.9134 179.313 85.1154L179.3 84.1995Z" fill="white"/>
<path d="M184.808 84.2692V85.1981C184.64 85.1606 184.469 85.1402 184.297 85.1371C183.425 85.1371 182.714 85.6037 182.714 86.5893V90.379H181.703V84.387H182.405L182.605 85.0063C182.85 84.766 183.141 84.5777 183.46 84.4526C183.779 84.3274 184.12 84.268 184.463 84.278C184.578 84.2687 184.693 84.2658 184.808 84.2692Z" fill="white"/>
<path d="M186.003 82.2065H187.076V83.4451H186.003V82.2065ZM186.029 84.3871H187.041V90.4009H186.029V84.3871Z" fill="white"/>
<path d="M188.584 88.0326V86.6982C188.584 85.15 189.456 84.208 191.109 84.208C192.657 84.208 193.586 85.1151 193.586 86.5673V86.6851H192.575V86.5412C192.575 85.6384 192.047 85.1718 191.109 85.1718C190.071 85.1718 189.596 85.6995 189.596 86.7592V87.9716C189.596 89.0313 190.058 89.5547 191.109 89.5547C192.038 89.5547 192.575 89.0924 192.575 88.1853V88.0414H193.586V88.1635C193.586 89.6157 192.666 90.5184 191.109 90.5184C189.491 90.5184 188.584 89.5808 188.584 88.0326Z" fill="white"/>
<path d="M199.897 86.4583V87.675H195.872V87.9498C195.872 89.0662 196.373 89.6506 197.433 89.6506C198.305 89.6506 198.859 89.2581 198.859 88.5211V88.4469H199.871C199.871 89.7814 198.92 90.5184 197.455 90.5184C195.71 90.5184 194.873 89.4849 194.873 87.9367V86.7679C194.873 85.2198 195.745 84.208 197.398 84.208C198.933 84.208 199.897 85.1151 199.897 86.4583ZM198.872 86.8159V86.4714C198.872 85.5425 198.371 85.0802 197.433 85.0802C196.347 85.0802 195.872 85.6733 195.872 86.7679V86.8159H198.872Z" fill="white"/>
<path d="M203.97 87.9847V87.662H205.017V88.0414C205.017 88.9354 205.828 89.5416 207.115 89.5416C208.318 89.5416 209.103 88.9965 209.103 88.0894C209.103 85.9088 204.162 87.0907 204.162 84.1252C204.162 82.8517 205.034 81.8269 207.019 81.8269C209.003 81.8269 209.971 82.8299 209.971 84.2429V84.6136H208.937V84.208C208.937 83.4012 208.231 82.8299 207.019 82.8299C205.806 82.8299 205.209 83.3271 205.209 84.1034C205.209 86.0091 210.137 84.9756 210.15 88.0283C210.15 89.4369 209.112 90.5185 207.097 90.5185C205.082 90.5185 203.97 89.4718 203.97 87.9847Z" fill="white"/>
<path d="M218.606 84.387L217.071 90.4008H216.033L214.746 86.3625L213.438 90.4008H212.404L210.891 84.387H211.912L213.041 89.2713L214.349 84.387H215.169L216.478 89.3149L217.594 84.387H218.606Z" fill="white"/>
<path d="M224.463 84.3868V90.4007H223.76L223.573 89.7901C223.336 90.0502 223.044 90.2538 222.718 90.3859C222.392 90.518 222.04 90.5752 221.689 90.5533C220.215 90.5533 219.343 89.8032 219.343 88.0195V86.7679C219.343 84.9711 220.215 84.2298 221.689 84.2298C222.04 84.2088 222.391 84.2665 222.717 84.3985C223.043 84.5305 223.335 84.7336 223.573 84.993L223.76 84.3868H224.463ZM223.451 88.1373V86.6371C223.456 86.434 223.417 86.2321 223.338 86.0452C223.258 85.8583 223.139 85.6907 222.989 85.5538C222.839 85.4169 222.661 85.3139 222.467 85.2517C222.274 85.1896 222.069 85.1697 221.868 85.1936C220.856 85.1936 220.354 85.682 220.354 86.8246V87.9454C220.354 89.088 220.856 89.5895 221.868 89.5895C222.072 89.6123 222.279 89.5907 222.474 89.5262C222.669 89.4617 222.847 89.3559 222.998 89.2159C223.148 89.0759 223.266 88.9051 223.344 88.7152C223.423 88.5253 223.459 88.3207 223.451 88.1155V88.1373Z" fill="white"/>
<path d="M231.322 86.7461V87.9978C231.322 89.7945 230.45 90.5315 228.968 90.5315C228.649 90.5498 228.33 90.5031 228.03 90.3944C227.731 90.2857 227.456 90.1172 227.223 89.8992V93.1089H226.211V84.3868H226.913L227.105 84.9799C227.342 84.724 227.633 84.5239 227.956 84.3942C228.28 84.2644 228.628 84.2083 228.976 84.2298C230.442 84.208 231.322 84.9494 231.322 86.7461ZM230.311 86.8028C230.311 85.6602 229.814 85.1718 228.789 85.1718C228.597 85.1501 228.402 85.168 228.217 85.2243C228.032 85.2805 227.861 85.374 227.713 85.499C227.566 85.624 227.446 85.7779 227.36 85.9511C227.274 86.1243 227.224 86.3132 227.214 86.5063V88.2507C227.224 88.4437 227.274 88.6327 227.36 88.8059C227.446 88.9791 227.566 89.133 227.713 89.258C227.861 89.383 228.032 89.4765 228.217 89.5327C228.402 89.589 228.597 89.6069 228.789 89.5852C229.814 89.5852 230.311 89.0967 230.311 87.9411V86.8028Z" fill="white"/>
<path d="M132.75 77.4704C133.077 79.3588 132.248 82.9479 133.186 84.0861C133.738 84.7508 134.064 85.5742 134.117 86.4369C134.17 87.2995 133.946 88.1565 133.478 88.8833C133.325 89.1406 133.177 89.4066 133.016 89.6595C132.406 90.517 131.568 91.1851 130.595 91.5871C129.542 92.1019 128.407 92.4323 127.242 92.564C126.736 92.6163 126.221 92.564 125.724 92.6381C123.372 92.8417 121.008 92.849 118.655 92.6599C118.476 92.6708 118.298 92.6286 118.143 92.5386C117.987 92.4486 117.862 92.3148 117.783 92.1541C117.639 91.7799 117.525 91.3949 117.443 91.0028C117.359 90.6474 117.295 90.2878 117.251 89.9256C117.238 89.6596 117.211 89.3946 117.168 89.1319C117.13 89.0071 117.106 88.8783 117.098 88.7481C117.087 88.2825 117.1 87.8167 117.137 87.3525C117.172 86.9862 117.316 86.2405 117.704 86.066C117.859 86.0157 118.025 86.0157 118.18 86.066C118.427 86.101 118.661 86.2019 118.856 86.3582C118.969 86.4817 119.063 86.6214 119.135 86.7725C119.369 87.2133 119.741 87.5655 120.194 87.7756C120.424 87.875 120.674 87.9155 120.923 87.8933C121.171 87.8677 121.408 87.7792 121.612 87.636C122.314 87.0865 121.891 86.1053 121.873 85.3726C121.813 83.8617 121.947 82.3492 122.27 80.872C122.562 79.603 123.012 77.9763 124.106 77.1477" fill="white"/>
<path d="M132.75 77.4704C133.077 79.3588 132.248 82.9479 133.186 84.0861C133.738 84.7508 134.064 85.5742 134.117 86.4369C134.17 87.2995 133.946 88.1565 133.478 88.8833C133.325 89.1406 133.177 89.4066 133.016 89.6595C132.406 90.517 131.568 91.1851 130.595 91.5871C129.542 92.1019 128.407 92.4323 127.242 92.564C126.736 92.6163 126.221 92.564 125.724 92.6381C123.372 92.8417 121.008 92.849 118.655 92.6599C118.476 92.6708 118.298 92.6286 118.143 92.5386C117.987 92.4486 117.862 92.3148 117.783 92.1541C117.639 91.7799 117.525 91.3949 117.443 91.0028C117.359 90.6474 117.295 90.2878 117.251 89.9256C117.238 89.6596 117.211 89.3946 117.168 89.1319C117.13 89.0071 117.106 88.8783 117.098 88.7481C117.087 88.2825 117.1 87.8167 117.137 87.3525C117.172 86.9862 117.316 86.2405 117.704 86.066C117.859 86.0157 118.025 86.0157 118.18 86.066C118.427 86.101 118.661 86.2019 118.856 86.3582C118.969 86.4817 119.063 86.6214 119.135 86.7725C119.369 87.2133 119.741 87.5655 120.194 87.7756C120.424 87.875 120.674 87.9155 120.923 87.8933C121.171 87.8677 121.408 87.7792 121.612 87.636C122.314 87.0865 121.891 86.1053 121.873 85.3726C121.813 83.8617 121.947 82.3492 122.27 80.872C122.562 79.603 123.012 77.9763 124.106 77.1477" stroke="#202251" stroke-width="0.348884" stroke-miterlimit="10"/>
<path d="M124.045 77.7712C119.37 76.6243 120.042 74.8842 120.12 71.7835C120.124 70.6992 120.345 69.6265 120.769 68.6285C121.193 67.6304 121.812 66.7271 122.589 65.9713C123.367 65.2156 124.288 64.6227 125.297 64.2275C126.307 63.8322 127.386 63.6425 128.47 63.6695C129.554 63.6965 130.621 63.9397 131.61 64.3847C132.599 64.8297 133.489 65.4677 134.228 66.2612C134.967 67.0547 135.54 67.9878 135.914 69.0057C136.288 70.0236 136.455 71.1059 136.405 72.1891C136.376 73.5004 136.022 74.7842 135.376 75.9257C134.73 77.0672 133.811 78.0309 132.702 78.7307" fill="white"/>
<path d="M124.045 77.7712C119.37 76.6243 120.042 74.8842 120.12 71.7835C120.124 70.6992 120.345 69.6265 120.769 68.6285C121.193 67.6304 121.812 66.7271 122.589 65.9713C123.367 65.2156 124.288 64.6227 125.297 64.2275C126.307 63.8322 127.386 63.6425 128.47 63.6695C129.554 63.6965 130.621 63.9397 131.61 64.3847C132.599 64.8297 133.489 65.4677 134.228 66.2612C134.967 67.0547 135.54 67.9878 135.914 69.0057C136.288 70.0236 136.455 71.1059 136.405 72.1891C136.376 73.5004 136.022 74.7842 135.376 75.9257C134.73 77.0672 133.811 78.0309 132.702 78.7307" stroke="#202251" stroke-width="0.331439" stroke-linecap="round" stroke-linejoin="round"/>
<path d="M119.998 72.0103C120.077 68.8486 121.651 67.2568 123.923 67.1129C131.586 66.6332 131.516 69.4286 130.661 72.7823C129.88 75.835 125.746 77.2872 123.461 77.0953C119.662 76.7726 119.92 75.1721 119.998 72.0103Z" fill="#202251"/>
<path d="M121.607 67.1696C121.607 67.1696 124.481 64.7884 128.973 66.5285C131.402 67.4661 133.984 70.9332 130.508 75.1765C127.857 78.4167 121.394 76.6985 121.394 76.6985" stroke="#202251" stroke-width="0.283468" stroke-miterlimit="10"/>
<path d="M127.128 71.6484C126.387 72.7517 123.299 71.5917 121.66 71.8403C123.092 71.1124 124.42 70.1973 125.611 69.119C126.701 68.2468 127.599 69.1626 129.274 68.7221C130.949 68.2817 130.369 67.802 131.651 66.6986C132.68 65.8264 135.236 65.556 136.387 65.5386C135.353 65.7822 134.36 66.1791 133.443 66.7161C132.488 67.4007 132.445 69.0449 130.526 69.7034C128.607 70.3619 128.062 70.2659 127.128 71.6484Z" fill="white" stroke="#202251" stroke-width="0.270385" stroke-linejoin="round"/>
<path d="M128.616 80.1567C128.616 80.1567 123.526 77.2522 120.417 77.6099C118.236 77.8628 118.581 79.8122 118.838 80.5187C119.274 81.7659 123.609 83.5452 127.63 83.6368" fill="white"/>
<path d="M128.616 80.1567C128.616 80.1567 123.526 77.2522 120.417 77.6099C118.236 77.8628 118.581 79.8122 118.838 80.5187C119.274 81.7659 123.609 83.5452 127.63 83.6368" stroke="#202251" stroke-width="0.257302" stroke-miterlimit="10"/>
<path d="M125.558 83.4099C125.558 83.4099 128.14 80.911 127.189 79.4631" stroke="#202251" stroke-width="0.283468" stroke-miterlimit="10"/>
<path d="M123.365 82.9392C123.365 82.9392 126.138 80.0173 125.192 78.5781" stroke="#202251" stroke-width="0.283468" stroke-miterlimit="10"/>
<path d="M121.049 82.1278C121.049 82.1278 123.928 79.2582 122.981 77.8147" stroke="#202251" stroke-width="0.283468" stroke-miterlimit="10"/>
<path d="M119.798 80.4968C118.328 81.744 117.041 80.6407 116.919 80.0607C116.579 78.4776 115.21 78.4907 115.881 77.0079C116.553 75.5252 117.857 74.9713 119.327 75.6473C119.757 75.8555 120.129 76.1673 120.409 76.5547C120.689 76.9422 120.869 77.3931 120.931 77.8671" fill="white"/>
<path d="M119.798 80.4968C118.328 81.744 117.041 80.6407 116.919 80.0607C116.579 78.4776 115.21 78.4907 115.881 77.0079C116.553 75.5252 117.857 74.9713 119.327 75.6473C119.757 75.8555 120.129 76.1673 120.409 76.5547C120.689 76.9422 120.869 77.3931 120.931 77.8671" stroke="#202251" stroke-width="0.322717" stroke-linecap="round" stroke-linejoin="round"/>
<path d="M137.394 72.1149C137.421 70.9766 137.211 70.0477 135.38 69.9998C133.722 69.9605 133.295 70.872 133.265 72.0146C133.234 73.1572 133.618 74.0381 135.279 74.134C137.111 74.2343 137.368 73.2575 137.394 72.1149Z" fill="white" stroke="#202251" stroke-width="0.401216" stroke-miterlimit="10"/>
<path d="M120.338 92.7384L119.811 87.2871" stroke="#202251" stroke-width="0.231135" stroke-miterlimit="10"/>
<path d="M240.188 63.5149L263.594 50L287 63.5149V90.5403L263.594 104.055L240.188 90.5403V63.5149Z" fill="url(#paint7_radial)"/>
<path d="M250.079 89.2713L249.168 89.8295C249.102 89.7641 249.037 89.6682 248.937 89.5679L249.761 87.2434C249.076 87.1126 248.749 88.2203 248.553 89.2408C248.06 88.8047 247.502 88.4166 247.149 88.1331C247.149 87.6054 247.018 87.4397 246.49 87.7711C246.49 87.3089 246.294 86.8989 246.294 86.489C246.294 86.079 246.952 85.7084 246.952 84.9844C246.952 82.8257 249.342 77.357 251.056 74.483C250.498 74.4176 248.876 75.3073 247.947 75.7913C246.673 74.483 245.718 71.7356 247.454 71.2733C249.809 70.6497 252.133 69.0928 254.554 68.4255C255.227 68.4652 255.89 68.6124 256.516 68.8616C256.827 69.8749 257.026 70.919 257.109 71.9754C254.275 79.1537 252.007 81.356 250.079 89.2713Z" fill="white"/>
<path d="M257.279 90.0913L255.483 88.0329L255.81 87.5967C254.99 85.8 256.337 83.4102 257.611 83.4102C258.662 83.4102 259.77 85.0499 260.262 86.8728C259.667 88.2538 258.613 89.3874 257.279 90.0825V90.0913Z" fill="white"/>
<path d="M273.163 72.647C272.845 72.884 272.59 73.1955 272.421 73.5541C272.25 73.9131 272.17 74.3082 272.186 74.7054L272.678 77.0604C272.94 78.5083 274.541 78.6042 275.962 79.3194C276.787 80.5977 277.21 82.0941 277.175 83.615C277.079 85.9962 273.799 88.0633 270.664 89.1754C269.528 89.2588 268.389 89.0705 267.341 88.6261C266.293 88.1817 265.366 87.4939 264.637 86.6198C264.654 86.4677 264.654 86.314 264.637 86.1619L265.819 86.7506C265.592 86.1619 265.099 85.9307 264.571 85.5426C264.554 85.3249 264.554 85.1062 264.571 84.8885L265.443 84.0686L266.355 84.5047C267.175 84.9015 266.713 85.7563 267.436 85.7563C267.668 85.7563 272.151 84.2779 272.447 81.2383C271.789 79.3325 270.123 78.6871 268.291 77.5357L267.306 74.0033L265.443 74.2344C264.85 72.5903 265.801 71.5829 266.752 70.497L267.624 70.3008C267.929 69.5192 268.277 68.7548 268.666 68.0112C269.159 68.0112 269.425 67.9109 269.652 67.9109C269.879 67.9109 270.276 68.0112 270.991 68.5345L282.408 66.0706C282.951 66.2325 283.442 66.5331 283.834 66.9428C284.227 67.3458 284.511 67.8427 284.658 68.3863C284.646 68.628 284.552 68.8585 284.392 69.0404L284.95 70.3487C281.636 72.3243 276.036 72.0932 273.163 72.647ZM273.49 86.7855C272.709 86.7855 272.578 87.0821 271.845 88.0633L273.49 87.2434V86.7855ZM283.834 69.2454L282.09 69.869L281.893 70.2223L283.886 69.6074L283.834 69.2454Z" fill="white"/>
<path d="M79 114.312C87.6654 114.186 96.3351 114.129 105.001 114.038L131.001 113.876C139.666 113.806 148.332 113.819 157.002 113.798L183.002 113.745L208.998 113.793C217.668 113.819 226.333 113.793 234.999 113.876L261.013 114.042C269.682 114.138 278.348 114.195 287.013 114.321C278.348 114.452 269.682 114.509 261.013 114.6L235.012 114.761C226.347 114.831 217.681 114.814 209.011 114.84L183.015 114.892L157.015 114.84C148.345 114.814 139.68 114.84 131.014 114.757L105.014 114.6C96.3351 114.478 87.6654 114.443 79 114.312Z" fill="white"/>
</g>
<defs>
<linearGradient id="paint0_linear" x1="373.572" y1="107.696" x2="373.572" y2="88.8301" gradientUnits="userSpaceOnUse">
<stop stop-color="#662D91"/>
<stop offset="0.04" stop-color="#692D91" stop-opacity="0.93"/>
<stop offset="0.19" stop-color="#762B90" stop-opacity="0.64"/>
<stop offset="0.34" stop-color="#802990" stop-opacity="0.41"/>
<stop offset="0.49" stop-color="#88288F" stop-opacity="0.23"/>
<stop offset="0.65" stop-color="#8E288F" stop-opacity="0.1"/>
<stop offset="0.82" stop-color="#91278F" stop-opacity="0.03"/>
<stop offset="1" stop-color="#92278F" stop-opacity="0"/>
</linearGradient>
<radialGradient id="paint1_radial" cx="0" cy="0" r="1" gradientUnits="userSpaceOnUse" gradientTransform="translate(361.097 72.5764) scale(18.6295)">
<stop stop-color="#67308F"/>
<stop offset="0.4" stop-color="#6A308F"/>
<stop offset="0.64" stop-color="#722E8F"/>
<stop offset="0.84" stop-color="#802C8E"/>
<stop offset="1" stop-color="#922A8E"/>
</radialGradient>
<radialGradient id="paint2_radial" cx="0" cy="0" r="1" gradientUnits="userSpaceOnUse" gradientTransform="translate(825.664 505.367) scale(17.0767 19.7305)">
<stop stop-color="#67308F"/>
<stop offset="0.4" stop-color="#6A308F"/>
<stop offset="0.64" stop-color="#722E8F"/>
<stop offset="0.84" stop-color="#802C8E"/>
<stop offset="1" stop-color="#922A8E"/>
</radialGradient>
<radialGradient id="paint3_radial" cx="0" cy="0" r="1" gradientUnits="userSpaceOnUse" gradientTransform="translate(3055.3 610.924) scale(11.0209 9.59891)">
<stop stop-color="#67308F"/>
<stop offset="0.4" stop-color="#6A308F"/>
<stop offset="0.64" stop-color="#722E8F"/>
<stop offset="0.84" stop-color="#802C8E"/>
<stop offset="1" stop-color="#922A8E"/>
</radialGradient>
<radialGradient id="paint4_radial" cx="0" cy="0" r="1" gradientUnits="userSpaceOnUse" gradientTransform="translate(-167.18 -5987.1) rotate(-30.2254) scale(10.0855 9.43071)">
<stop stop-color="#67308F"/>
<stop offset="0.4" stop-color="#6A308F"/>
<stop offset="0.64" stop-color="#722E8F"/>
<stop offset="0.84" stop-color="#802C8E"/>
<stop offset="1" stop-color="#922A8E"/>
</radialGradient>
<radialGradient id="paint5_radial" cx="0" cy="0" r="1" gradientUnits="userSpaceOnUse" gradientTransform="translate(1902.52 4672.56) scale(192.962 222.818)">
<stop stop-color="#67308F"/>
<stop offset="0.4" stop-color="#6A308F"/>
<stop offset="0.64" stop-color="#722E8F"/>
<stop offset="0.84" stop-color="#802C8E"/>
<stop offset="1" stop-color="#922A8E"/>
</radialGradient>
<radialGradient id="paint6_radial" cx="0" cy="0" r="1" gradientUnits="userSpaceOnUse" gradientTransform="translate(639.142 2948.58) scale(48.5198 56.0716)">
<stop stop-color="#67308F"/>
<stop offset="0.4" stop-color="#6A308F"/>
<stop offset="0.64" stop-color="#722E8F"/>
<stop offset="0.84" stop-color="#802C8E"/>
<stop offset="1" stop-color="#922A8E"/>
</radialGradient>
<radialGradient id="paint7_radial" cx="0" cy="0" r="1" gradientUnits="userSpaceOnUse" gradientTransform="translate(263.594 77.0254) scale(25.281)">
<stop stop-color="#67308F"/>
<stop offset="0.4" stop-color="#6A308F"/>
<stop offset="0.64" stop-color="#722E8F"/>
<stop offset="0.84" stop-color="#802C8E"/>
<stop offset="1" stop-color="#922A8E"/>
</radialGradient>
<clipPath id="clip0">
<rect width="101" height="173.19" fill="white" transform="translate(323 37)"/>
</clipPath>
<clipPath id="clip1">
<rect width="208" height="102.088" fill="white" transform="translate(79 50)"/>
</clipPath>
</defs>
</svg>
